<svg width="24" height="24" viewBox="0 0 24 24" fill="none" xmlns="http://www.w3.org/2000/svg">
<path d="M18.7714 15L19.2289 15.2019L19.231 15.197L18.7714 15ZM19.0543 16.56L18.6968 16.9097L18.7007 16.9136L19.0543 16.56ZM19.1057 16.6114L18.7522 16.965L18.7524 16.9652L19.1057 16.6114ZM19.1057 19.0371L18.7524 18.6834L18.752 18.6838L19.1057 19.0371ZM16.68 19.0371L17.0337 18.6838L17.0336 18.6836L16.68 19.0371ZM16.6286 18.9857L16.9821 18.6321L16.9782 18.6283L16.6286 18.9857ZM15.0686 18.7029L15.2655 19.1625L15.2705 19.1603L15.0686 18.7029ZM14.2114 19.9971L13.7114 19.9951V19.9971H14.2114ZM10.7829 20.0657H11.283L11.2827 20.054L10.7829 20.0657ZM9.85714 18.7714L9.65526 19.2289C9.6649 19.2331 9.67467 19.2371 9.68455 19.2407L9.85714 18.7714ZM8.29714 19.0543L7.94749 18.6968L7.94359 18.7007L8.29714 19.0543ZM8.24571 19.1057L7.89216 18.7522L7.89196 18.7524L8.24571 19.1057ZM5.82 19.1057L6.17375 18.7524L6.17336 18.752L5.82 19.1057ZM5.31722 17.8929H5.81722H5.31722ZM5.82 16.68L6.17336 17.0337L6.17355 17.0336L5.82 16.68ZM5.87143 16.6286L6.225 16.9821L6.22886 16.9782L5.87143 16.6286ZM6.15429 15.0686L5.69469 15.2655L5.69685 15.2705L6.15429 15.0686ZM4.86 14.2114L4.86199 13.7114H4.86V14.2114ZM3 12.4971H2.5H3ZM4.71429 10.7829V11.2829V10.7829ZM4.79143 10.7829V11.283L4.80312 11.2827L4.79143 10.7829ZM6.08571 9.85714L5.62828 9.65526C5.62403 9.6649 5.62008 9.67467 5.61645 9.68455L6.08571 9.85714ZM5.80286 8.29714L6.16031 7.94749L6.15641 7.94359L5.80286 8.29714ZM5.75143 8.24571L6.10498 7.89216L6.10479 7.89196L5.75143 8.24571ZM5.75143 5.82L6.10479 6.17375L6.10518 6.17336L5.75143 5.82ZM8.17714 5.82L7.82339 6.17336L7.82359 6.17355L8.17714 5.82ZM8.22857 5.87143L7.875 6.225L7.87894 6.22886L8.22857 5.87143ZM9.78857 6.15429V5.65429C9.71905 5.65429 9.65029 5.66878 9.58669 5.69685L9.78857 6.15429ZM9.85714 6.15429V6.65429C9.92486 6.65429 9.99187 6.64053 10.0541 6.61386L9.85714 6.15429ZM10.7143 4.86L11.2143 4.86199V4.86H10.7143ZM12.4286 3V2.5V3ZM14.1429 4.79143H13.6429L13.6429 4.79342L14.1429 4.79143ZM15 6.08571L15.2019 5.62826L15.197 5.62614L15 6.08571ZM16.56 5.80286L16.9097 6.16031L16.9136 6.15641L16.56 5.80286ZM16.6114 5.75143L16.965 6.10498L16.9652 6.10479L16.6114 5.75143ZM17.8243 5.24865V5.74865V5.24865ZM19.0371 5.75143L18.6834 6.10479L18.6838 6.10518L19.0371 5.75143ZM19.0371 8.17714L18.6838 7.82339L18.6836 7.82359L19.0371 8.17714ZM18.9857 8.22857L18.6321 7.875L18.6283 7.87894L18.9857 8.22857ZM18.7029 9.78857H19.2029C19.2029 9.71905 19.1884 9.65029 19.1603 9.58669L18.7029 9.78857ZM18.7029 9.85714H18.2029C18.2029 9.92486 18.2166 9.99187 18.2433 10.0541L18.7029 9.85714ZM19.9971 10.7143L19.9951 11.2143H19.9971V10.7143ZM20.0657 14.1429V13.6429L20.0637 13.6429L20.0657 14.1429ZM14.5 12.4286C14.5 13.5726 13.5726 14.5 12.4286 14.5V15.5C14.1249 15.5 15.5 14.1249 15.5 12.4286H14.5ZM12.4286 14.5C11.2846 14.5 10.3571 13.5726 10.3571 12.4286H9.35714C9.35714 14.1249 10.7323 15.5 12.4286 15.5V14.5ZM10.3571 12.4286C10.3571 11.2846 11.2846 10.3571 12.4286 10.3571V9.35714C10.7323 9.35714 9.35714 10.7323 9.35714 12.4286H10.3571ZM12.4286 10.3571C13.5726 10.3571 14.5 11.2846 14.5 12.4286H15.5C15.5 10.7323 14.1249 9.35714 12.4286 9.35714V10.3571ZM18.314 14.7981C18.1596 15.148 18.1135 15.5362 18.1817 15.9126L19.1657 15.7342C19.1331 15.5544 19.1551 15.369 19.2289 15.2019L18.314 14.7981ZM18.1817 15.9126C18.25 16.2889 18.4294 16.6362 18.6969 16.9096L19.4117 16.2104C19.284 16.0798 19.1983 15.9139 19.1657 15.7342L18.1817 15.9126ZM18.7007 16.9136L18.7522 16.965L19.4593 16.2579L19.4078 16.2064L18.7007 16.9136ZM18.7524 16.9652C18.8653 17.078 18.9548 17.2119 19.0159 17.3593L19.9397 16.9763C19.8283 16.7075 19.6649 16.4633 19.4591 16.2577L18.7524 16.9652ZM19.0159 17.3593C19.077 17.5067 19.1085 17.6647 19.1085 17.8243H20.1085C20.1085 17.5333 20.0511 17.2452 19.9397 16.9763L19.0159 17.3593ZM19.1085 17.8243C19.1085 17.9839 19.077 18.1419 19.0159 18.2893L19.9397 18.6722C20.0511 18.4034 20.1085 18.1153 20.1085 17.8243H19.1085ZM19.0159 18.2893C18.9548 18.4367 18.8653 18.5706 18.7524 18.6834L19.4591 19.3909C19.6649 19.1852 19.8283 18.941 19.9397 18.6722L19.0159 18.2893ZM18.752 18.6838C18.6392 18.7967 18.5053 18.8863 18.3579 18.9474L18.7408 19.8711C19.0096 19.7597 19.2538 19.5964 19.4595 19.3905L18.752 18.6838ZM18.3579 18.9474C18.2104 19.0085 18.0524 19.0399 17.8929 19.0399V20.0399C18.1838 20.0399 18.472 19.9826 18.7408 19.8711L18.3579 18.9474ZM17.8929 19.0399C17.7333 19.0399 17.5753 19.0085 17.4279 18.9474L17.0449 19.8711C17.3137 19.9826 17.6019 20.0399 17.8929 20.0399V19.0399ZM17.4279 18.9474C17.2804 18.8863 17.1465 18.7967 17.0337 18.6838L16.3262 19.3905C16.5319 19.5964 16.7761 19.7597 17.0449 19.8711L17.4279 18.9474ZM17.0336 18.6836L16.9821 18.6322L16.275 19.3393L16.3264 19.3907L17.0336 18.6836ZM16.9782 18.6283C16.7048 18.3608 16.3575 18.1814 15.9811 18.1132L15.8027 19.0971C15.9825 19.1297 16.1483 19.2154 16.2789 19.3431L16.9782 18.6283ZM15.9811 18.1132C15.6048 18.0449 15.2166 18.091 14.8667 18.2454L15.2705 19.1603C15.4376 19.0865 15.623 19.0645 15.8027 19.0971L15.9811 18.1132ZM14.8716 18.2433C14.5285 18.3904 14.2358 18.6346 14.0297 18.9458L14.8634 19.498C14.9619 19.3493 15.1016 19.2327 15.2655 19.1624L14.8716 18.2433ZM14.0297 18.9458C13.8235 19.2571 13.7129 19.6218 13.7114 19.9951L14.7114 19.9991C14.7121 19.8208 14.765 19.6466 14.8634 19.498L14.0297 18.9458ZM13.7114 19.9971V20.1429H14.7114V19.9971H13.7114ZM13.7114 20.1429C13.7114 20.4649 13.5835 20.7738 13.3558 21.0015L14.0629 21.7086C14.4781 21.2933 14.7114 20.7301 14.7114 20.1429H13.7114ZM13.3558 21.0015C13.128 21.2292 12.8192 21.3571 12.4971 21.3571V22.3571C13.0844 22.3571 13.6476 22.1239 14.0629 21.7086L13.3558 21.0015ZM12.4971 21.3571C12.1751 21.3571 11.8662 21.2292 11.6385 21.0015L10.9314 21.7086C11.3467 22.1239 11.9099 22.3571 12.4971 22.3571V21.3571ZM11.6385 21.0015C11.4108 20.7738 11.2829 20.4649 11.2829 20.1429H10.2829C10.2829 20.7301 10.5161 21.2933 10.9314 21.7086L11.6385 21.0015ZM11.2829 20.1429V20.0657H10.2829V20.1429H11.2829ZM11.2827 20.054C11.2737 19.67 11.1494 19.2976 10.926 18.9852L10.1126 19.5669C10.2193 19.7161 10.2787 19.894 10.283 20.0774L11.2827 20.054ZM10.926 18.9852C10.7025 18.6727 10.3902 18.4347 10.0297 18.3022L9.68455 19.2407C9.85673 19.304 10.0059 19.4177 10.1126 19.5669L10.926 18.9852ZM10.059 18.314C9.7091 18.1596 9.32093 18.1135 8.94458 18.1817L9.12299 19.1657C9.30274 19.1331 9.48813 19.1551 9.65526 19.2289L10.059 18.314ZM8.94458 18.1817C8.56822 18.25 8.22094 18.4294 7.94751 18.6969L8.64678 19.4117C8.77737 19.284 8.94323 19.1983 9.12299 19.1657L8.94458 18.1817ZM7.94359 18.7007L7.89216 18.7522L8.59927 19.4593L8.6507 19.4078L7.94359 18.7007ZM7.89196 18.7524C7.77919 18.8653 7.64527 18.9548 7.49786 19.0159L7.8808 19.9397C8.14961 19.8283 8.39382 19.6649 8.59946 19.4591L7.89196 18.7524ZM7.49786 19.0159C7.35044 19.077 7.19243 19.1085 7.03286 19.1085V20.1085C7.32385 20.1085 7.61199 20.0511 7.8808 19.9397L7.49786 19.0159ZM7.03286 19.1085C6.87328 19.1085 6.71527 19.077 6.56786 19.0159L6.18492 19.9397C6.45373 20.0511 6.74186 20.1085 7.03286 20.1085V19.1085ZM6.56786 19.0159C6.42044 18.9548 6.28652 18.8653 6.17375 18.7524L5.46625 19.4591C5.6719 19.6649 5.91611 19.8283 6.18492 19.9397L6.56786 19.0159ZM6.17336 18.752C6.06046 18.6392 5.97089 18.5053 5.90978 18.3579L4.98601 18.7408C5.09744 19.0096 5.26077 19.2538 5.46664 19.4595L6.17336 18.752ZM5.90978 18.3579C5.84868 18.2104 5.81722 18.0524 5.81722 17.8929H4.81722C4.81722 18.1838 4.87458 18.472 4.98601 18.7408L5.90978 18.3579ZM5.81722 17.8929C5.81722 17.7333 5.84868 17.5753 5.90978 17.4279L4.98601 17.0449C4.87458 17.3137 4.81722 17.6019 4.81722 17.8929H5.81722ZM5.90978 17.4279C5.97089 17.2804 6.06046 17.1465 6.17336 17.0337L5.46664 16.3262C5.26077 16.5319 5.09744 16.7761 4.98601 17.0449L5.90978 17.4279ZM6.17355 17.0336L6.22498 16.9821L5.51788 16.275L5.46645 16.3264L6.17355 17.0336ZM6.22886 16.9782C6.49632 16.7048 6.67574 16.3575 6.74398 15.9811L5.76003 15.8027C5.72743 15.9825 5.64174 16.1483 5.514 16.2789L6.22886 16.9782ZM6.74398 15.9811C6.81222 15.6048 6.76615 15.2166 6.61172 14.8667L5.69685 15.2705C5.77062 15.4376 5.79262 15.623 5.76003 15.8027L6.74398 15.9811ZM6.61386 14.8716C6.46679 14.5285 6.22259 14.2358 5.91133 14.0297L5.35918 14.8634C5.50784 14.9619 5.62447 15.1016 5.69472 15.2655L6.61386 14.8716ZM5.91133 14.0297C5.60007 13.8235 5.23532 13.7129 4.86199 13.7114L4.85801 14.7114C5.03631 14.7121 5.21052 14.765 5.35918 14.8634L5.91133 14.0297ZM4.86 13.7114H4.71429V14.7114H4.86V13.7114ZM4.71429 13.7114C4.39224 13.7114 4.08338 13.5835 3.85566 13.3558L3.14855 14.0629C3.56381 14.4781 4.12702 14.7114 4.71429 14.7114V13.7114ZM3.85566 13.3558C3.62793 13.128 3.5 12.8192 3.5 12.4971H2.5C2.5 13.0844 2.73329 13.6476 3.14855 14.0629L3.85566 13.3558ZM3.5 12.4971C3.5 12.1751 3.62793 11.8662 3.85566 11.6385L3.14855 10.9314C2.73329 11.3467 2.5 11.9099 2.5 12.4971H3.5ZM3.85566 11.6385C4.08338 11.4108 4.39224 11.2829 4.71429 11.2829V10.2829C4.12702 10.2829 3.56381 10.5161 3.14855 10.9314L3.85566 11.6385ZM4.71429 11.2829H4.79143V10.2829H4.71429V11.2829ZM4.80312 11.2827C5.18713 11.2737 5.55956 11.1494 5.87199 10.926L5.29024 10.1126C5.14102 10.2193 4.96314 10.2787 4.77974 10.283L4.80312 11.2827ZM5.87199 10.926C6.18442 10.7025 6.42239 10.3902 6.55498 10.0297L5.61645 9.68455C5.55312 9.85673 5.43946 10.0059 5.29024 10.1126L5.87199 10.926ZM6.54315 10.059C6.69758 9.7091 6.74365 9.32093 6.67541 8.94458L5.69145 9.12299C5.72405 9.30274 5.70204 9.48813 5.62828 9.65526L6.54315 10.059ZM6.67541 8.94458C6.60717 8.56822 6.42775 8.22094 6.16029 7.94751L5.44543 8.64678C5.57317 8.77737 5.65886 8.94323 5.69145 9.12299L6.67541 8.94458ZM6.15641 7.94359L6.10498 7.89216L5.39788 8.59927L5.4493 8.6507L6.15641 7.94359ZM6.10479 7.89196C5.99189 7.77919 5.90232 7.64527 5.84121 7.49786L4.91744 7.8808C5.02887 8.14961 5.1922 8.39382 5.39807 8.59946L6.10479 7.89196ZM5.84121 7.49786C5.7801 7.35044 5.74865 7.19243 5.74865 7.03286H4.74865C4.74865 7.32385 4.80601 7.61199 4.91744 7.8808L5.84121 7.49786ZM5.74865 7.03286C5.74865 6.87328 5.7801 6.71527 5.84121 6.56786L4.91744 6.18492C4.80601 6.45373 4.74865 6.74187 4.74865 7.03286H5.74865ZM5.84121 6.56786C5.90232 6.42045 5.99189 6.28652 6.10479 6.17375L5.39807 5.46625C5.1922 5.6719 5.02887 5.91611 4.91744 6.18492L5.84121 6.56786ZM6.10518 6.17336C6.21795 6.06046 6.35187 5.97089 6.49929 5.90978L6.11635 4.98601C5.84754 5.09744 5.60333 5.26077 5.39768 5.46664L6.10518 6.17336ZM6.49929 5.90978C6.6467 5.84868 6.80471 5.81722 6.96429 5.81722V4.81722C6.67329 4.81722 6.38516 4.87458 6.11635 4.98601L6.49929 5.90978ZM6.96429 5.81722C7.12386 5.81722 7.28187 5.84868 7.42928 5.90978L7.81222 4.98601C7.54342 4.87458 7.25528 4.81722 6.96429 4.81722V5.81722ZM7.42928 5.90978C7.5767 5.97089 7.71062 6.06046 7.82339 6.17336L8.53089 5.46664C8.32525 5.26077 8.08104 5.09744 7.81222 4.98601L7.42928 5.90978ZM7.82359 6.17355L7.87502 6.22498L8.58212 5.51788L8.5307 5.46645L7.82359 6.17355ZM7.87894 6.22886C8.15237 6.49632 8.49965 6.67574 8.876 6.74398L9.05441 5.76003C8.87466 5.72743 8.7088 5.64174 8.5782 5.514L7.87894 6.22886ZM8.876 6.74398C9.25236 6.81222 9.64053 6.76615 9.99045 6.61172L9.58669 5.69685C9.41956 5.77062 9.23417 5.79262 9.05441 5.76003L8.876 6.74398ZM9.78857 6.65429H9.85714V5.65429H9.78857V6.65429ZM10.0541 6.61386C10.3973 6.46679 10.6899 6.22259 10.896 5.91133L10.0623 5.35918C9.96384 5.50784 9.82407 5.62447 9.66018 5.69472L10.0541 6.61386ZM10.896 5.91133C11.1022 5.60007 11.2128 5.23532 11.2143 4.86199L10.2143 4.85801C10.2136 5.03631 10.1607 5.21052 10.0623 5.35918L10.896 5.91133ZM11.2143 4.86V4.71429H10.2143V4.86H11.2143ZM11.2143 4.71429C11.2143 4.39224 11.3422 4.08338 11.5699 3.85566L10.8628 3.14855C10.4476 3.56381 10.2143 4.12702 10.2143 4.71429H11.2143ZM11.5699 3.85566C11.7977 3.62793 12.1065 3.5 12.4286 3.5V2.5C11.8413 2.5 11.2781 2.73329 10.8628 3.14855L11.5699 3.85566ZM12.4286 3.5C12.7506 3.5 13.0595 3.62793 13.2872 3.85566L13.9943 3.14855C13.579 2.73329 13.0158 2.5 12.4286 2.5V3.5ZM13.2872 3.85566C13.5149 4.08338 13.6429 4.39224 13.6429 4.71429H14.6429C14.6429 4.12702 14.4096 3.56381 13.9943 3.14855L13.2872 3.85566ZM13.6429 4.71429V4.79143H14.6429V4.71429H13.6429ZM13.6429 4.79342C13.6444 5.16675 13.755 5.5315 13.9611 5.84276L14.7949 5.29061C14.6964 5.14195 14.6436 4.96774 14.6429 4.78943L13.6429 4.79342ZM13.9611 5.84276C14.1672 6.15402 14.4599 6.39822 14.803 6.54528L15.197 5.62614C15.0331 5.5559 14.8933 5.43927 14.7949 5.29061L13.9611 5.84276ZM14.7981 6.54315C15.148 6.69758 15.5362 6.74365 15.9126 6.67541L15.7342 5.69145C15.5544 5.72405 15.369 5.70204 15.2019 5.62828L14.7981 6.54315ZM15.9126 6.67541C16.2889 6.60717 16.6362 6.42775 16.9096 6.16029L16.2104 5.44543C16.0798 5.57317 15.9139 5.65886 15.7342 5.69145L15.9126 6.67541ZM16.9136 6.15641L16.965 6.10498L16.2579 5.39788L16.2064 5.44931L16.9136 6.15641ZM16.9652 6.10479C17.078 5.99189 17.2119 5.90232 17.3593 5.84121L16.9763 4.91744C16.7075 5.02887 16.4633 5.19219 16.2577 5.39807L16.9652 6.10479ZM17.3593 5.84121C17.5067 5.7801 17.6647 5.74865 17.8243 5.74865V4.74865C17.5333 4.74865 17.2452 4.80601 16.9763 4.91744L17.3593 5.84121ZM17.8243 5.74865C17.9839 5.74865 18.1419 5.7801 18.2893 5.84121L18.6722 4.91744C18.4034 4.80601 18.1153 4.74865 17.8243 4.74865V5.74865ZM18.2893 5.84121C18.4367 5.90232 18.5706 5.99188 18.6834 6.10479L19.3909 5.39807C19.1852 5.1922 18.941 5.02887 18.6722 4.91744L18.2893 5.84121ZM18.6838 6.10518C18.7967 6.21795 18.8863 6.35188 18.9474 6.49929L19.8711 6.11635C19.7597 5.84754 19.5964 5.60333 19.3905 5.39768L18.6838 6.10518ZM18.9474 6.49929C19.0085 6.6467 19.0399 6.80471 19.0399 6.96429H20.0399C20.0399 6.67329 19.9826 6.38516 19.8711 6.11635L18.9474 6.49929ZM19.0399 6.96429C19.0399 7.12386 19.0085 7.28187 18.9474 7.42928L19.8711 7.81222C19.9826 7.54342 20.0399 7.25528 20.0399 6.96429H19.0399ZM18.9474 7.42928C18.8863 7.5767 18.7967 7.71062 18.6838 7.82339L19.3905 8.53089C19.5964 8.32525 19.7597 8.08104 19.8711 7.81222L18.9474 7.42928ZM18.6836 7.82359L18.6322 7.87502L19.3393 8.58212L19.3907 8.53069L18.6836 7.82359ZM18.6283 7.87894C18.3608 8.15237 18.1814 8.49965 18.1132 8.876L19.0971 9.05441C19.1297 8.87466 19.2154 8.7088 19.3431 8.5782L18.6283 7.87894ZM18.1132 8.876C18.0449 9.25236 18.091 9.64053 18.2454 9.99045L19.1603 9.58669C19.0865 9.41956 19.0645 9.23417 19.0971 9.05441L18.1132 8.876ZM18.2029 9.78857V9.85714H19.2029V9.78857H18.2029ZM18.2433 10.0541C18.3904 10.3973 18.6346 10.6899 18.9458 10.896L19.498 10.0623C19.3493 9.96384 19.2327 9.82407 19.1624 9.66018L18.2433 10.0541ZM18.9458 10.896C19.2571 11.1022 19.6218 11.2128 19.9951 11.2143L19.9991 10.2143C19.8208 10.2136 19.6466 10.1607 19.498 10.0623L18.9458 10.896ZM19.9971 11.2143H20.1429V10.2143H19.9971V11.2143ZM20.1429 11.2143C20.4649 11.2143 20.7738 11.3422 21.0015 11.5699L21.7086 10.8628C21.2933 10.4476 20.7301 10.2143 20.1429 10.2143V11.2143ZM21.0015 11.5699C21.2292 11.7977 21.3571 12.1065 21.3571 12.4286H22.3571C22.3571 11.8413 22.1239 11.2781 21.7086 10.8628L21.0015 11.5699ZM21.3571 12.4286C21.3571 12.7506 21.2292 13.0595 21.0015 13.2872L21.7086 13.9943C22.1239 13.579 22.3571 13.0158 22.3571 12.4286H21.3571ZM21.0015 13.2872C20.7738 13.5149 20.4649 13.6429 20.1429 13.6429V14.6429C20.7301 14.6429 21.2933 14.4096 21.7086 13.9943L21.0015 13.2872ZM20.1429 13.6429H20.0657V14.6429H20.1429V13.6429ZM20.0637 13.6429C19.6904 13.6444 19.3256 13.755 19.0144 13.9611L19.5665 14.7949C19.7152 14.6964 19.8894 14.6436 20.0677 14.6429L20.0637 13.6429ZM19.0144 13.9611C18.7031 14.1672 18.4589 14.4599 18.3119 14.803L19.231 15.197C19.3012 15.0331 19.4179 14.8933 19.5665 14.7949L19.0144 13.9611Z" fill="white"/>
</svg>
