<svg width="28" height="28" viewBox="0 0 28 28" fill="none" xmlns="http://www.w3.org/2000/svg">
<path d="M9.6086 20.5001H5.16675V16.0568L17.4237 3.83787L17.4243 3.83732C17.7703 3.49131 18.2288 3.30127 18.7192 3.30127C19.2095 3.30127 19.668 3.49117 20.0154 3.83849L21.8657 5.68882C22.213 6.03614 22.4029 6.49466 22.4029 6.98494C22.4029 7.47521 22.213 7.93373 21.8657 8.28105L9.6086 20.5001ZM19.0726 4.78083L18.7196 4.42827L18.3663 4.78049L16.5124 6.62849L16.1576 6.98216L16.512 7.33627L18.3623 9.18543L18.7152 9.5381L19.0686 9.18599L20.9236 7.33799L21.2787 6.98422L20.9241 6.62999L19.0726 4.78083ZM6.50008 18.6668V19.1668H7.00008H8.85158H9.05823L9.20458 19.0209L17.4167 10.8344L17.7714 10.4808L17.4173 10.1267L15.567 8.27638L15.214 7.92338L14.8604 8.27583L6.64708 16.4635L6.50008 16.61V16.8176V18.6668ZM5.16675 23.8334H22.8334V25.1668H5.16675V23.8334Z" fill="black" stroke="black"/>
</svg>
