<svg width="36" height="35" viewBox="0 0 36 35" fill="none" xmlns="http://www.w3.org/2000/svg">
<path d="M17.9859 10.5247C19.2575 10.5247 20.2919 11.4829 20.2919 12.6613C20.2919 13.8388 19.2575 14.7976 17.9859 14.7976C16.7152 14.7976 15.6799 13.8388 15.6799 12.6613C15.6799 11.4829 16.7152 10.5247 17.9859 10.5247Z" fill="#A3A3A3"/>
<path fill-rule="evenodd" clip-rule="evenodd" d="M18 0C8.33502 0 0.5 7.83502 0.5 17.5C0.5 27.165 8.33502 35 18 35C27.665 35 35.5 27.165 35.5 17.5C35.5 7.83502 27.665 0 18 0ZM17.9859 17.8211C21.058 17.8211 23.5552 15.5066 23.5552 12.6613C23.5552 9.81509 21.058 7.5 17.9859 7.5C14.9144 7.5 12.4165 9.81509 12.4165 12.6613C12.4165 15.5066 14.9144 17.8211 17.9859 17.8211ZM23.4875 20.7925C22.4805 21.3786 21.3871 21.7943 20.2534 22.0336L23.3669 24.919C24.0047 25.5088 24.0047 26.4667 23.3669 27.0572C22.7297 27.6476 21.697 27.6476 21.0605 27.0572L17.9994 24.2218L14.941 27.0572C14.6221 27.3521 14.2042 27.4997 13.7863 27.4997C13.3691 27.4997 12.9519 27.3521 12.633 27.0572C11.9958 26.4667 11.9958 25.5095 12.6323 24.919L15.7461 22.0336C14.6124 21.7943 13.5191 21.378 12.512 20.7925C11.7499 20.3472 11.521 19.4143 12.0012 18.7075C12.48 17.9997 13.4871 17.7866 14.2505 18.2319C16.5305 19.561 19.4677 19.5613 21.749 18.2319C22.5124 17.7866 23.5192 17.9997 23.999 18.7075C24.4792 19.4137 24.2496 20.3472 23.4875 20.7925Z" fill="#A3A3A3"/>
</svg>
