<svg width="36" height="35" viewBox="0 0 36 35" fill="none" xmlns="http://www.w3.org/2000/svg">
<path fill-rule="evenodd" clip-rule="evenodd" d="M18 35C27.665 35 35.5 27.165 35.5 17.5C35.5 7.83502 27.665 0 18 0C8.33502 0 0.5 7.83502 0.5 17.5C0.5 27.165 8.33502 35 18 35ZM25.0365 8.85249C25.9318 8.45944 26.8891 9.25415 26.7332 10.261L24.4273 25.1577C24.2871 26.0632 23.3231 26.5353 22.5737 26.0654L15.8925 21.8756C15.1962 21.4389 15.0813 20.4276 15.6601 19.8308L21.6276 13.6783C21.8412 13.4581 21.5687 13.1026 21.3187 13.2753L13.0285 19.0029C12.4157 19.4263 11.6557 19.5418 10.9539 19.3183L7.27683 18.1474C6.611 17.9353 6.56404 16.9629 7.20602 16.6811L25.0365 8.85249Z" fill="#A3A3A3"/>
</svg>
