<svg width="24" height="24" viewBox="0 0 24 24" fill="none" xmlns="http://www.w3.org/2000/svg">
<path d="M2.5 12C2.5 6.76214 6.76214 2.5 12 2.5C17.2379 2.5 21.5 6.76214 21.5 12C21.5 17.2379 17.2379 21.5 12 21.5C6.76214 21.5 2.5 17.2379 2.5 12ZM3.5 12C3.5 16.6871 7.31286 20.5 12 20.5C16.6871 20.5 20.5 16.6871 20.5 12C20.5 7.31286 16.6871 3.5 12 3.5C7.31286 3.5 3.5 7.31286 3.5 12Z" fill="#97D978" stroke="#97D978"/>
<path d="M9.99909 13.587L7.70009 11.292L6.28809 12.708L10.0011 16.413L16.7071 9.70703L15.2931 8.29303L9.99909 13.587Z" fill="#97D978"/>
</svg>
