<svg width="24" height="24" viewBox="0 0 24 24" fill="none" xmlns="http://www.w3.org/2000/svg">
<path d="M10.9394 11.6464L8.46492 9.172L9.17181 8.4651L11.6463 10.9395L11.9998 11.2931L12.3534 10.9395L14.8278 8.4651L15.5347 9.172L13.0603 11.6464L12.7067 12L13.0603 12.3535L15.5347 14.828L14.8278 15.5349L12.3534 13.0604L11.9998 12.7069L11.6463 13.0604L9.17181 15.5349L8.46492 14.828L10.9394 12.3535L11.2929 12L10.9394 11.6464Z" fill="#DF5151" stroke="#DF5151"/>
<path d="M12 22C17.514 22 22 17.514 22 12C22 6.486 17.514 2 12 2C6.486 2 2 6.486 2 12C2 17.514 6.486 22 12 22ZM12 4C16.411 4 20 7.589 20 12C20 16.411 16.411 20 12 20C7.589 20 4 16.411 4 12C4 7.589 7.589 4 12 4Z" fill="#DF5151"/>
</svg>
