<svg width="16" height="16" viewBox="0 0 16 16" fill="none" xmlns="http://www.w3.org/2000/svg">
<path d="M6.11454 10.8279L7.99988 8.94254L9.88521 10.8279L10.8279 9.88521L8.94254 7.99988L10.8279 6.11454L9.88521 5.17188L7.99988 7.05721L6.11454 5.17188L5.17188 6.11454L7.05721 7.99988L5.17188 9.88521L6.11454 10.8279Z" fill="#181F25"/>
<path d="M8.00016 14.6663C11.6762 14.6663 14.6668 11.6757 14.6668 7.99967C14.6668 4.32367 11.6762 1.33301 8.00016 1.33301C4.32416 1.33301 1.3335 4.32367 1.3335 7.99967C1.3335 11.6757 4.32416 14.6663 8.00016 14.6663ZM8.00016 2.66634C10.9408 2.66634 13.3335 5.05901 13.3335 7.99967C13.3335 10.9403 10.9408 13.333 8.00016 13.333C5.0595 13.333 2.66683 10.9403 2.66683 7.99967C2.66683 5.05901 5.0595 2.66634 8.00016 2.66634Z" fill="#181F25"/>
</svg>
