<svg width="50" height="50" viewBox="0 0 50 50" fill="none" xmlns="http://www.w3.org/2000/svg">
<path d="M0 10C0 4.47715 4.47715 0 10 0H40C45.5228 0 50 4.47715 50 10V40C50 45.5228 45.5228 50 40 50H10C4.47715 50 0 45.5228 0 40V10Z" fill="#D9DCFB"/>
<path d="M23.9394 24.6464L21.4649 22.172L22.1718 21.4651L24.6463 23.9395L24.9998 24.2931L25.3534 23.9395L27.8278 21.4651L28.5347 22.172L26.0603 24.6464L25.7067 25L26.0603 25.3535L28.5347 27.828L27.8278 28.5349L25.3534 26.0604L24.9998 25.7069L24.6463 26.0604L22.1718 28.5349L21.4649 27.828L23.9394 25.3535L24.2929 25L23.9394 24.6464Z" fill="black" stroke="black"/>
<path d="M25 35C30.514 35 35 30.514 35 25C35 19.486 30.514 15 25 15C19.486 15 15 19.486 15 25C15 30.514 19.486 35 25 35ZM25 17C29.411 17 33 20.589 33 25C33 29.411 29.411 33 25 33C20.589 33 17 29.411 17 25C17 20.589 20.589 17 25 17Z" fill="black"/>
</svg>
