<svg width="50" height="50" viewBox="0 0 50 50" fill="none" xmlns="http://www.w3.org/2000/svg">
<path d="M0 10C0 4.47715 4.47715 0 10 0H40C45.5228 0 50 4.47715 50 10V40C50 45.5228 45.5228 50 40 50H10C4.47715 50 0 45.5228 0 40V10Z" fill="#D9DCFB"/>
<path d="M22.5 27.5H27.5V31.5H22.5V27.5ZM24.5 18.5H25.5V19.5H24.5V18.5Z" stroke="#D9DCFB"/>
<path d="M18 34H32C33.103 34 34 33.103 34 32V21C34 20.735 33.895 20.48 33.707 20.293L29.707 16.293C29.52 16.105 29.266 16 29 16H18C16.897 16 16 16.897 16 18V32C16 33.103 16.897 34 18 34ZM28 32H22V27H28V32ZM26 20H24V18H26V20ZM18 18H20V22H22H24H26H27H28V18H28.586L32 21.414L32.001 32H30V27C30 25.897 29.103 25 28 25H22C20.897 25 20 25.897 20 27V32H18V18Z" fill="black"/>
</svg>
