<svg width="178" height="178" viewBox="0 0 178 178" fill="none" xmlns="http://www.w3.org/2000/svg">
<g filter="url(#filter0_d_138_12667)">
<path d="M3 6C3 3.23858 5.23858 1 8 1H170C172.761 1 175 3.23858 175 6V168C175 170.761 172.761 173 170 173H8C5.23858 173 3 170.761 3 168V6Z" fill="white"/>
</g>
<path d="M76.6445 87.8571C76.8739 94.135 82.1904 99.3565 88.5826 99.5818L76.6445 87.8571Z" fill="#484848"/>
<path d="M64.2 111.803H101.025L94.8249 105.714H64.2V75.636L58.4464 69.9852C58.1643 70.6794 58 71.4314 58 72.223V105.714C58 109.072 60.7807 111.803 64.2 111.803ZM113.8 66.1338H105.783L97.3917 57.8921C96.812 57.3197 96.0246 57 95.2 57H82.8C81.9785 57 81.188 57.3197 80.6083 57.8921L72.2166 66.1338H71.6834L63.2917 57.8921L58.9083 62.1971L114.708 117L119.092 112.695L117.151 110.789C118.856 109.711 120 107.854 120 105.714V72.223C120 68.8648 117.219 66.1338 113.8 66.1338ZM94.9489 88.9836L87.4345 81.6004C87.9398 81.4603 88.4606 81.3568 89 81.3568C92.3015 81.3568 95.2 84.2035 95.2 87.446C95.2 87.9758 95.0977 88.4873 94.9489 88.9836ZM99.6051 93.5535C100.715 91.745 101.4 89.6656 101.4 87.446C101.4 80.8453 95.7208 75.2676 89 75.2676C86.7401 75.2676 84.6228 75.9374 82.7783 77.0304L76.3334 70.7007L84.0834 63.0892H93.9166L102.308 71.3309C102.888 71.9033 103.675 72.223 104.5 72.223L113.8 72.22V105.714H111.983L99.6051 93.5535Z" fill="#484848"/>
<defs>
<filter id="filter0_d_138_12667" x="0" y="0" width="178" height="178" filterUnits="userSpaceOnUse" color-interpolation-filters="sRGB">
<feFlood flood-opacity="0" result="BackgroundImageFix"/>
<feColorMatrix in="SourceAlpha" type="matrix" values="0 0 0 0 0 0 0 0 0 0 0 0 0 0 0 0 0 0 127 0" result="hardAlpha"/>
<feOffset dy="2"/>
<feGaussianBlur stdDeviation="1.5"/>
<feColorMatrix type="matrix" values="0 0 0 0 0 0 0 0 0 0 0 0 0 0 0 0 0 0 0.25 0"/>
<feBlend mode="normal" in2="BackgroundImageFix" result="effect1_dropShadow_138_12667"/>
<feBlend mode="normal" in="SourceGraphic" in2="effect1_dropShadow_138_12667" result="shape"/>
</filter>
</defs>
</svg>
