<svg width="24" height="24" viewBox="0 0 24 24" fill="none" xmlns="http://www.w3.org/2000/svg">
<path d="M14.5 19.4286C14.5 19.7047 14.7239 19.9286 15 19.9286C15.2761 19.9286 15.5 19.7047 15.5 19.4286H14.5ZM13.2857 4V3.5V4ZM9.85714 4V3.5V4ZM8.14286 5.71429H7.64286H8.14286ZM7.64286 19.4286C7.64286 19.7047 7.86671 19.9286 8.14286 19.9286C8.419 19.9286 8.64286 19.7047 8.64286 19.4286H7.64286ZM4.71429 7.92857H18.4286V6.92857H4.71429V7.92857ZM18.4286 7.92857C19.0992 7.92857 19.6429 8.47223 19.6429 9.14286H20.6429C20.6429 7.91994 19.6515 6.92857 18.4286 6.92857V7.92857ZM19.6429 9.14286V17.7143H20.6429V9.14286H19.6429ZM19.6429 17.7143C19.6429 18.3849 19.0992 18.9286 18.4286 18.9286V19.9286C19.6515 19.9286 20.6429 18.9372 20.6429 17.7143H19.6429ZM18.4286 18.9286H4.71429V19.9286H18.4286V18.9286ZM4.71429 18.9286C4.04365 18.9286 3.5 18.3849 3.5 17.7143H2.5C2.5 18.9372 3.49137 19.9286 4.71429 19.9286V18.9286ZM3.5 17.7143V9.14286H2.5V17.7143H3.5ZM3.5 9.14286C3.5 8.47223 4.04365 7.92857 4.71429 7.92857V6.92857C3.49137 6.92857 2.5 7.91994 2.5 9.14286H3.5ZM15.5 19.4286V5.71429H14.5V19.4286H15.5ZM15.5 5.71429C15.5 5.12702 15.2667 4.56381 14.8514 4.14855L14.1443 4.85566C14.3721 5.08338 14.5 5.39224 14.5 5.71429H15.5ZM14.8514 4.14855C14.4362 3.73329 13.873 3.5 13.2857 3.5V4.5C13.6078 4.5 13.9166 4.62793 14.1443 4.85566L14.8514 4.14855ZM13.2857 3.5H9.85714V4.5H13.2857V3.5ZM9.85714 3.5C9.26988 3.5 8.70667 3.73329 8.29141 4.14855L8.99851 4.85566C9.22624 4.62793 9.53509 4.5 9.85714 4.5V3.5ZM8.29141 4.14855C7.87615 4.56381 7.64286 5.12702 7.64286 5.71429H8.64286C8.64286 5.39224 8.77079 5.08338 8.99851 4.85566L8.29141 4.14855ZM7.64286 5.71429V19.4286H8.64286V5.71429H7.64286Z" fill="white"/>
</svg>
