<svg width="24" height="24" viewBox="0 0 24 24" fill="none" xmlns="http://www.w3.org/2000/svg">
<path d="M12 5H5.77778C5.30628 5 4.8541 5.1873 4.5207 5.5207C4.1873 5.8541 4 6.30628 4 6.77778V19.2222C4 19.6937 4.1873 20.1459 4.5207 20.4793C4.8541 20.8127 5.30628 21 5.77778 21H18.2222C18.6937 21 19.1459 20.8127 19.4793 20.4793C19.8127 20.1459 20 19.6937 20 19.2222V13" stroke="#C9D1DF" stroke-width="2.5" stroke-linecap="round" stroke-linejoin="round"/>
<path d="M18.9227 2.52798C19.2607 2.18992 19.7193 2 20.1973 2C20.6754 2 21.134 2.18992 21.472 2.52798C21.8101 2.86605 22 3.32456 22 3.80265C22 4.28075 21.8101 4.73926 21.472 5.07732L13.3991 13.1502L10 14L10.8498 10.6009L18.9227 2.52798Z" stroke="#C9D1DF" stroke-width="2.5" stroke-linecap="round" stroke-linejoin="round"/>
</svg>
