<svg width="17" height="14" viewBox="0 0 17 14" fill="none" xmlns="http://www.w3.org/2000/svg">
<path d="M1 2.71429V11.2857C1 11.7404 1.17559 12.1764 1.48816 12.4979C1.80072 12.8194 2.22464 13 2.66667 13H14.3333C14.7754 13 15.1993 12.8194 15.5118 12.4979C15.8244 12.1764 16 11.7404 16 11.2857V4.42857C16 3.97391 15.8244 3.53788 15.5118 3.21639C15.1993 2.8949 14.7754 2.71429 14.3333 2.71429H9.33333L7.66667 1H2.66667C2.22464 1 1.80072 1.18061 1.48816 1.5021C1.17559 1.82359 1 2.25963 1 2.71429V2.71429Z" stroke="#939BB4" stroke-width="2" stroke-linecap="round" stroke-linejoin="round"/>
</svg>
