<svg width="18" height="18" viewBox="0 0 18 18" fill="none" xmlns="http://www.w3.org/2000/svg">
<path d="M13.9999 9.11111C13.9999 9.6634 13.5522 10.1111 12.9999 10.1111H10.1605V13C10.1605 13.5523 9.71274 14 9.16046 14H8.83942C8.28713 14 7.83942 13.5523 7.83942 13V10.1111H4.99994C4.44765 10.1111 3.99994 9.6634 3.99994 9.11111V8.88889C3.99994 8.33661 4.44765 7.88889 4.99994 7.88889H7.83942V5C7.83942 4.44771 8.28713 4 8.83942 4H9.16046C9.71274 4 10.1605 4.44772 10.1605 5V7.88889H12.9999C13.5522 7.88889 13.9999 8.33661 13.9999 8.88889V9.11111Z" fill="#C2CFE0"/>
</svg>
