<svg width="5" height="9" viewBox="0 0 5 9" fill="none" xmlns="http://www.w3.org/2000/svg">
<path d="M4.85357 2.64642L2.85358 0.646402C2.85349 0.646309 2.8534 0.646262 2.85332 0.646168C2.84175 0.634613 2.82961 0.623668 2.81695 0.613285C2.81116 0.608527 2.80507 0.604402 2.79911 0.599949C2.79201 0.594629 2.78505 0.589121 2.77765 0.584176C2.77052 0.579418 2.76314 0.575293 2.75582 0.570934C2.74912 0.566926 2.74258 0.562731 2.73569 0.559027C2.72824 0.555043 2.7206 0.551668 2.71298 0.548082C2.70579 0.544684 2.69871 0.541098 2.69135 0.538027C2.68397 0.53498 2.67642 0.532496 2.66892 0.529824C2.66102 0.526988 2.65324 0.523965 2.64518 0.521527C2.63768 0.519254 2.63004 0.51759 2.62247 0.515691C2.61424 0.513605 2.60611 0.511309 2.59774 0.509645C2.58895 0.50791 2.58009 0.506855 2.57125 0.50559C2.56397 0.504559 2.55679 0.503152 2.54939 0.502426C2.51657 0.499191 2.4835 0.499191 2.45069 0.502426C2.44331 0.503152 2.43614 0.504535 2.42882 0.50559C2.41999 0.506855 2.41111 0.507887 2.40234 0.509645C2.39395 0.511309 2.38584 0.513605 2.37761 0.515691C2.37002 0.51759 2.3624 0.519254 2.3549 0.521527C2.34684 0.523965 2.33904 0.526988 2.33116 0.529824C2.32366 0.53252 2.31611 0.53498 2.30873 0.538027C2.30135 0.541074 2.29429 0.544684 2.2871 0.548082C2.2795 0.551668 2.27184 0.555043 2.26439 0.559027C2.2575 0.562731 2.25096 0.566926 2.24425 0.570934C2.23694 0.575293 2.22956 0.579418 2.22243 0.584176C2.21503 0.589121 2.20809 0.594629 2.20097 0.599949C2.19501 0.604402 2.18892 0.608527 2.18313 0.613285C2.17047 0.623668 2.15831 0.634613 2.14675 0.646168C2.14666 0.646262 2.14657 0.646309 2.1465 0.646402L0.146504 2.6464C-0.0487534 2.84165 -0.0487534 3.15825 0.146504 3.35351C0.341762 3.54876 0.658356 3.54876 0.853614 3.35351L2.00006 2.20706V7.99997C2.00006 8.27611 2.22391 8.49996 2.50005 8.49996C2.77619 8.49996 3.00004 8.27611 3.00004 7.99997V2.20708L4.14649 3.35353C4.34175 3.54879 4.65834 3.54879 4.8536 3.35353C5.04883 3.15825 5.04883 2.84168 4.85357 2.64642Z" fill="#A7ABC3"/>
</svg>
