<svg width="18" height="18" viewBox="0 0 18 18" fill="none" xmlns="http://www.w3.org/2000/svg">
<path d="M6.97416 17C6.26514 17 5.55094 16.7752 4.95561 16.3104L3.71068 15.3386C3.03628 14.813 2.61252 14.0636 2.51743 13.2276C2.4239 12.4022 2.67557 11.5607 3.20837 10.9129L7.32557 5.91065C7.73073 5.41772 8.30849 5.10939 8.9524 5.03998C9.60148 4.97308 10.2299 5.15164 10.7348 5.54548L11.065 5.802C11.5715 6.19785 11.8903 6.76019 11.959 7.38742C12.0314 8.01213 11.8469 8.62929 11.4423 9.12071L8.47076 12.7301C8.16069 13.1044 7.59792 13.1642 7.21343 12.8654C6.82791 12.5642 6.76538 12.0164 7.0739 11.6417L10.0454 8.03225C10.1513 7.90298 10.2004 7.74152 10.1813 7.57755C10.1627 7.41156 10.0795 7.26419 9.94617 7.16107L9.61647 6.90455C9.34206 6.68927 8.94 6.73253 8.72088 7.00062L4.60317 12.0028C4.36493 12.2915 4.25227 12.6678 4.29413 13.0365C4.33651 13.4107 4.52513 13.7457 4.82693 13.9806L6.07186 14.9528C6.69303 15.4367 7.60515 15.3406 8.10385 14.733L13.8959 7.69676C14.3946 7.09066 14.2944 6.20339 13.6706 5.71901L10.25 3.05167C9.94772 2.81577 9.56996 2.70612 9.18754 2.75038C8.80357 2.79113 8.45939 2.97522 8.21805 3.26896L3.59286 8.89085C3.28279 9.26658 2.72001 9.32694 2.33553 9.02665C1.95001 8.72536 1.88748 8.17761 2.196 7.80238L6.82274 2.18151C7.36278 1.5246 8.13279 1.11216 8.99168 1.01961C9.85419 0.926553 10.6945 1.16698 11.3694 1.6931L14.7895 4.35994C16.1811 5.44438 16.4065 7.42967 15.2928 8.78472L9.50226 15.8215C8.86352 16.5966 7.92297 17 6.97416 17Z" fill="#A7ABC3"/>
</svg>
