<svg width="18" height="19" viewBox="0 0 18 19" fill="none" xmlns="http://www.w3.org/2000/svg">
<path d="M15.3545 15.3055C15.163 15.3055 14.9967 15.167 14.9647 14.975C14.6793 13.3085 13.0656 10.4 8.97223 10.23V12.3682C8.97223 12.5164 8.88944 12.6521 8.75771 12.7199C8.62595 12.7876 8.46738 12.7761 8.34683 12.69L2.41598 8.45369C2.31204 8.37944 2.25037 8.25955 2.25037 8.13183C2.25037 8.00408 2.31204 7.88421 2.41598 7.80999L8.34686 3.57368C8.46738 3.48756 8.62598 3.47604 8.75771 3.54383C8.88944 3.61162 8.97223 3.74736 8.97223 3.89552V6.06593C11.5025 6.31832 15.7504 8.14472 15.7504 14.91C15.7504 15.1158 15.5926 15.2872 15.3875 15.3041C15.3764 15.305 15.3654 15.3055 15.3545 15.3055Z" fill="white"/>
</svg>
