<svg width="24" height="24" viewBox="0 0 24 24" fill="none" xmlns="http://www.w3.org/2000/svg">
<path d="M20.4721 19.7407C20.2167 19.7407 19.995 19.556 19.9524 19.3C19.5718 17.078 17.4202 13.1999 11.9624 12.9733V15.8243C11.9624 16.0218 11.852 16.2028 11.6763 16.2932C11.5007 16.3835 11.2892 16.3682 11.1285 16.2534L3.22069 10.6049C3.08211 10.5059 2.99988 10.3461 2.99988 10.1758C2.99988 10.0054 3.08211 9.84562 3.22069 9.74665L11.1285 4.09824C11.2892 3.98342 11.5007 3.96806 11.6763 4.05844C11.852 4.14883 11.9624 4.32981 11.9624 4.52736V7.42124C15.3361 7.75776 20.9999 10.193 20.9999 19.2133C20.9999 19.4877 20.7895 19.7162 20.516 19.7388C20.5013 19.74 20.4866 19.7407 20.4721 19.7407Z" fill="#C2CFE0"/>
</svg>
