<svg width="24" height="24" viewBox="0 0 24 24" fill="none" xmlns="http://www.w3.org/2000/svg">
<path d="M4.49988 8.25H19.4999C19.6988 8.25 19.8896 8.17099 20.0302 8.03033C20.1709 7.88968 20.2499 7.69891 20.2499 7.5C20.2499 7.30109 20.1709 7.11032 20.0302 6.96967C19.8896 6.82902 19.6988 6.75 19.4999 6.75H4.49988C4.30097 6.75 4.1102 6.82902 3.96955 6.96967C3.8289 7.11032 3.74988 7.30109 3.74988 7.5C3.74988 7.69891 3.8289 7.88968 3.96955 8.03033C4.1102 8.17099 4.30097 8.25 4.49988 8.25Z" fill="#D3D8DD" stroke="#D3D8DD" stroke-width="0.3"/>
<path d="M19.4999 11.25H4.49988C4.30097 11.25 4.1102 11.329 3.96955 11.4697C3.8289 11.6103 3.74988 11.8011 3.74988 12C3.74988 12.1989 3.8289 12.3897 3.96955 12.5303C4.1102 12.671 4.30097 12.75 4.49988 12.75H19.4999C19.6988 12.75 19.8896 12.671 20.0302 12.5303C20.1709 12.3897 20.2499 12.1989 20.2499 12C20.2499 11.8011 20.1709 11.6103 20.0302 11.4697C19.8896 11.329 19.6988 11.25 19.4999 11.25Z" fill="#D3D8DD" stroke="#D3D8DD" stroke-width="0.3"/>
<path d="M19.4999 15.75H4.49988C4.30097 15.75 4.1102 15.829 3.96955 15.9697C3.8289 16.1103 3.74988 16.3011 3.74988 16.5C3.74988 16.6989 3.8289 16.8897 3.96955 17.0303C4.1102 17.171 4.30097 17.25 4.49988 17.25H19.4999C19.6988 17.25 19.8896 17.171 20.0302 17.0303C20.1709 16.8897 20.2499 16.6989 20.2499 16.5C20.2499 16.3011 20.1709 16.1103 20.0302 15.9697C19.8896 15.829 19.6988 15.75 19.4999 15.75Z" fill="#D3D8DD" stroke="#D3D8DD" stroke-width="0.3"/>
</svg>
