<svg width="10" height="10" viewBox="0 0 10 10" fill="none" xmlns="http://www.w3.org/2000/svg">
<path d="M6.52602 4.99993L6.57904 4.9469L9.609 1.91663L9.66203 1.96966L9.609 1.91662C10.0304 1.49522 10.0304 0.812205 9.60884 0.390803C9.18762 -0.0302566 8.50491 -0.0302858 8.08332 0.390824L5.05304 3.42107L5.00001 3.4741L4.94698 3.42107L1.91647 0.390819C1.91647 0.390811 1.91646 0.390803 1.91645 0.390796C1.49495 -0.0302734 0.812358 -0.0302562 0.391051 0.390793C0.391046 0.390798 0.391041 0.390803 0.391036 0.390809M6.52602 4.99993L0.338018 1.96966C-0.112673 1.51896 -0.112673 0.788452 0.338018 0.33776L0.391036 0.390809M6.52602 4.99993L6.57904 5.05296L9.60899 8.08309L6.52602 4.99993ZM0.391036 0.390809C-0.0303505 0.812212 -0.0303454 1.49523 0.391051 1.91662L0.391053 1.91662L3.4211 4.94687L3.47412 4.9999L3.4211 5.05293L0.391244 8.08305C0.391238 8.08305 0.391232 8.08306 0.391226 8.08307C-0.0301971 8.50483 -0.0301595 9.18771 0.391222 9.60907L0.338411 9.66188L0.391224 9.60907C0.601951 9.8198 0.877688 9.92497 1.15388 9.92497C1.43015 9.92497 1.70609 9.81963 1.91662 9.60907L1.96557 9.65802L1.91662 9.60907L4.94701 6.57862L5.00004 6.52559L5.05307 6.57862L8.08369 9.6091L8.08373 9.60914C8.29407 9.8198 8.56998 9.925 8.84652 9.925C9.12252 9.925 9.39843 9.81967 9.60899 9.60911C9.60899 9.60911 9.609 9.6091 9.609 9.6091M0.391036 0.390809L9.66203 8.03006C10.1127 8.48093 10.1127 9.21127 9.66203 9.66213L9.609 9.6091M9.609 9.6091C10.0304 9.18752 10.0304 8.50467 9.609 8.0831L9.609 9.6091Z" fill="#F7685B" stroke="white" stroke-width="0.15"/>
</svg>
