<svg width="10" height="10" viewBox="0 0 10 10" fill="none" xmlns="http://www.w3.org/2000/svg">
<path d="M1.11499 2.47488L3.587 4.94705L1.11499 2.47488ZM1.11499 2.47488C0.739419 2.0993 0.739419 1.49054 1.11499 1.11496V2.47488ZM8.83197 2.42184L8.83197 2.42185L6.30701 4.94707L6.25398 5.00011L6.30701 5.05314L8.83196 7.57824C8.83197 7.57824 8.83197 7.57824 8.83197 7.57825C9.17826 7.92468 9.17826 8.48582 8.83196 8.83225C8.65893 9.00527 8.43223 9.09183 8.20541 9.09183C7.97813 9.09183 7.75144 9.00538 7.5786 8.83228L7.57856 8.83224L5.05304 6.30684L5.00001 6.25381L4.94698 6.30684L2.42166 8.83221L2.42165 8.83222C2.24865 9.00524 2.02193 9.0918 1.79488 9.0918C1.5679 9.0918 1.34134 9.00538 1.16817 8.83221L1.11514 8.88525L1.16817 8.83221C0.821898 8.48596 0.821866 7.9248 1.16819 7.57821L3.69307 5.05311L3.74609 5.00008L3.69307 4.94705L1.16803 2.42184L1.16803 2.42184C0.821741 2.07556 0.821741 1.51428 1.16803 1.168C1.51424 0.821997 2.07517 0.821987 2.42154 1.16802L4.94696 3.69323L4.99999 3.74626L5.05302 3.69323L7.57824 1.16803C7.92469 0.821975 8.48571 0.822004 8.83184 1.16801C9.17826 1.51429 9.17826 2.07556 8.83197 2.42184Z" fill="#A7ABC3" stroke="white" stroke-width="0.15"/>
</svg>
