<svg width="24" height="24" viewBox="0 0 24 24" fill="none" xmlns="http://www.w3.org/2000/svg">
<path d="M13.526 11.9999L13.579 11.9469L16.609 8.91663L16.662 8.96966L16.609 8.91662C17.0304 8.49522 17.0304 7.81221 16.6088 7.3908C16.1876 6.96975 15.5049 6.96971 15.0833 7.39079C15.0833 7.3908 15.0833 7.39081 15.0833 7.39082L12.053 10.4211L12 10.4741L11.947 10.4211L8.91647 7.39082C8.49498 6.96973 7.81237 6.96974 7.39105 7.39079C6.96965 7.8122 6.96965 8.49522 7.39105 8.91662L7.39105 8.91662L10.4211 11.9469L10.4741 11.9999L10.4211 12.0529L7.39124 15.083C7.39124 15.0831 7.39123 15.0831 7.39123 15.0831C6.9698 15.5048 6.96984 16.1877 7.39122 16.6091L7.33819 16.6621L7.39122 16.6091C7.60195 16.8198 7.87769 16.925 8.15388 16.925C8.43015 16.925 8.70609 16.8196 8.91662 16.6091L8.96909 16.6615L8.91662 16.6091L11.947 13.5786L12 13.5256L12.0531 13.5786L15.0837 16.6091L15.0837 16.6091C15.2941 16.8198 15.57 16.925 15.8465 16.925C16.1225 16.925 16.3984 16.8197 16.609 16.6091L13.526 11.9999ZM13.526 11.9999L13.579 12.053L16.609 15.0831C16.609 15.0831 16.609 15.0831 16.609 15.0831C17.0304 15.5047 17.0304 16.1875 16.609 16.6091L13.526 11.9999Z" fill="#C2CFE0" stroke="white" stroke-width="0.15"/>
</svg>
