<svg width="20" height="20" viewBox="0 0 20 20" fill="none" xmlns="http://www.w3.org/2000/svg">
<path d="M14.7059 6.9824H9.29412L8.21765 5.70298C8.18143 5.65946 8.12717 5.63504 8.07059 5.63681H3.70441C3.03779 5.64166 2.5 6.18343 2.5 6.85004V14.7192C2.50081 15.3881 3.04287 15.9301 3.71176 15.9309H14.7059C15.3748 15.9301 15.9168 15.3881 15.9176 14.7192V8.19416C15.9168 7.52526 15.3748 6.9832 14.7059 6.9824Z" fill="#C2CFE0"/>
<path d="M16.2957 5.41501H10.8824L9.80596 4.1356C9.76975 4.09207 9.71548 4.06766 9.6589 4.06943H5.29419C4.68934 4.07042 4.17787 4.51726 4.09566 5.11648H8.07655C8.2853 5.11597 8.4835 5.2081 8.61772 5.36795L9.53684 6.4606H14.706C15.662 6.46221 16.4367 7.23688 16.4383 8.19295V14.3518C17.0445 14.2761 17.4996 13.7612 17.5001 13.1503V6.6253C17.4985 5.95983 16.9611 5.41986 16.2957 5.41501Z" fill="#C2CFE0"/>
</svg>
