<svg width="20" height="20" viewBox="0 0 20 20" fill="none" xmlns="http://www.w3.org/2000/svg">
<path d="M5.84534 13.2889C5.84534 13.0613 5.66097 12.877 5.43335 12.877H3.37341C3.14579 12.877 2.96143 13.0613 2.96143 13.2889V16.6123C2.96143 16.8399 3.14579 17.0243 3.37341 17.0243H5.43335C5.66097 17.0243 5.84534 16.8399 5.84534 16.6123V13.2889Z" fill="#C2CFE0"/>
<path d="M9.1687 10.4043H7.10876C6.88114 10.4043 6.69678 10.5887 6.69678 10.8163V16.6116C6.69678 16.8392 6.88114 17.0236 7.10876 17.0236H9.1687C9.39632 17.0236 9.58069 16.8392 9.58069 16.6116V10.8163C9.58069 10.5887 9.39632 10.4043 9.1687 10.4043Z" fill="#C2CFE0"/>
<path d="M12.8766 9.58105H10.8167C10.589 9.58105 10.4047 9.76542 10.4047 9.99304V16.6123C10.4047 16.8399 10.589 17.0243 10.8167 17.0243H12.8766C13.1042 17.0243 13.2886 16.8399 13.2886 16.6123V9.99304C13.2886 9.76542 13.1042 9.58105 12.8766 9.58105Z" fill="#C2CFE0"/>
<path d="M16.6119 6.28516H14.552C14.3244 6.28516 14.14 6.46952 14.14 6.69714V16.6123C14.14 16.8399 14.3244 17.0243 14.552 17.0243H16.6119C16.8396 17.0243 17.0239 16.8399 17.0239 16.6123V6.69714C17.0239 6.46952 16.8396 6.28516 16.6119 6.28516Z" fill="#C2CFE0"/>
<path d="M4.43095 12.0247C5.11244 12.0247 5.66691 11.4702 5.66691 10.7887C5.66691 10.6729 5.64579 10.5631 5.61592 10.4569L7.22113 9.32374C7.42266 9.46682 7.66745 9.55273 7.93284 9.55273C8.55812 9.55273 9.07087 9.08444 9.15215 8.48105L10.7958 8.13498C11.0134 8.48964 11.4012 8.72876 11.8467 8.72876C12.5282 8.72876 13.0827 8.17429 13.0827 7.4928C13.0827 7.328 13.0489 7.17128 12.9902 7.02742L14.9619 5.27476C15.1388 5.37235 15.3387 5.43286 15.5546 5.43286C16.2361 5.43286 16.7906 4.8784 16.7906 4.1969C16.7906 3.5154 16.2361 2.96094 15.5546 2.96094C14.8731 2.96094 14.3186 3.5154 14.3186 4.1969C14.3186 4.36169 14.3525 4.51842 14.4112 4.66227L12.4394 6.41494C12.2626 6.31735 12.0626 6.25684 11.8467 6.25684C11.2214 6.25684 10.7087 6.72513 10.6274 7.32852L8.98375 7.67459C8.76617 7.31993 8.37839 7.08081 7.93284 7.08081C7.25134 7.08081 6.69688 7.63528 6.69688 8.31677C6.69688 8.43256 6.71799 8.54234 6.74786 8.64859L5.14265 9.78173C4.94112 9.63865 4.69633 9.55273 4.43095 9.55273C3.74945 9.55273 3.19498 10.1072 3.19498 10.7887C3.19498 11.4702 3.74945 12.0247 4.43095 12.0247Z" fill="#C2CFE0"/>
</svg>
