<svg width="20" height="20" viewBox="0 0 24 24" fill="none" xmlns="http://www.w3.org/2000/svg">
<path fill-rule="evenodd" clip-rule="evenodd" d="M10.7005 3.20187C10.9316 2.9537 10.9549 2.59667 10.7568 2.32587C10.5585 2.05505 10.1869 1.9361 9.84675 2.03387C5.29966 3.34282 2 7.21311 2 11.78C2 17.4206 7.0352 22 13.2352 22C16.6708 22 19.7475 20.5947 21.8092 18.3821C22.0412 18.134 22.0636 17.7763 21.8655 17.5054C21.6672 17.2346 21.2966 17.1157 20.9555 17.2141C20.0381 17.4776 19.0624 17.62 18.0503 17.62C12.7354 17.62 8.42014 13.6948 8.42014 8.86C8.42014 6.70358 9.27892 4.72899 10.7008 3.20187L10.7005 3.20187ZM15.1159 10.9645L13.2316 11.8631C12.9676 11.9894 12.8022 12.2384 12.8022 12.5099C12.8022 12.7815 12.9676 13.0303 13.2316 13.1566L15.1159 14.0553L16.1038 15.7693C16.2427 16.0095 16.5164 16.1599 16.8148 16.1599C17.1134 16.1599 17.387 16.0095 17.5258 15.7693L18.5137 14.0553L20.398 13.1566C20.6621 13.0303 20.8274 12.7813 20.8274 12.5099C20.8274 12.2382 20.6621 11.9894 20.398 11.8631L18.5137 10.9645L17.5258 9.25044C17.387 9.01026 17.1133 8.85986 16.8148 8.85986C16.5162 8.85986 16.2427 9.01026 16.1038 9.25044L15.1159 10.9645ZM12.8777 4.5484L11.5616 5.32809C11.3344 5.46236 11.1972 5.69309 11.1972 5.93978C11.1972 6.18648 11.3344 6.4172 11.5616 6.55148L12.8777 7.33116L13.7348 8.52832C13.8824 8.73494 14.136 8.85976 14.4072 8.85976C14.6784 8.85976 14.9321 8.73494 15.0797 8.52832L15.9368 7.33116L17.2529 6.55148C17.48 6.41721 17.6173 6.18648 17.6173 5.93978C17.6173 5.69309 17.48 5.46236 17.2529 5.32809L15.9368 4.5484L15.0797 3.35124C14.9321 3.14463 14.6784 3.01981 14.4072 3.01981C14.136 3.01981 13.8824 3.14463 13.7348 3.35124L12.8777 4.5484Z" fill="#C2CFE0"/>
</svg>
