<svg width="20" height="20" viewBox="0 0 20 20" fill="none" xmlns="http://www.w3.org/2000/svg">
<path d="M16.4062 2.5H3.59375C2.99063 2.5 2.5 2.99063 2.5 3.59375V5.15625C2.5 5.75938 2.99063 6.25 3.59375 6.25H16.4062C17.0094 6.25 17.5 5.75938 17.5 5.15625V3.59375C17.5 2.99063 17.0094 2.5 16.4062 2.5Z" fill="#C2CFE0"/>
<path d="M3.59375 17.5H8.28125C8.88438 17.5 9.37501 17.0094 9.37501 16.4062V8.59375C9.37501 7.99063 8.88438 7.5 8.28125 7.5H3.59375C2.99063 7.5 2.5 7.99063 2.5 8.59375V16.4062C2.5 17.0094 2.99063 17.5 3.59375 17.5Z" fill="#C2CFE0"/>
<path d="M16.4063 7.5H11.7188C11.1156 7.5 10.625 7.99063 10.625 8.59375V10.7812C10.625 11.3844 11.1156 11.875 11.7188 11.875H16.4063C17.0094 11.875 17.5 11.3844 17.5 10.7812V8.59375C17.5 7.99063 17.0094 7.5 16.4063 7.5Z" fill="#C2CFE0"/>
<path d="M16.4063 13.125H11.7188C11.1156 13.125 10.625 13.6156 10.625 14.2188V16.4062C10.625 17.0094 11.1156 17.5 11.7188 17.5H16.4063C17.0094 17.5 17.5 17.0094 17.5 16.4062V14.2188C17.5 13.6156 17.0094 13.125 16.4063 13.125Z" fill="#C2CFE0"/>
</svg>
