<svg width="40" height="40" viewBox="0 0 40 40" fill="none" xmlns="http://www.w3.org/2000/svg">
<path d="M32.8125 5H7.1875C5.98125 5 5 5.98125 5 7.1875V10.3125C5 11.5188 5.98125 12.5 7.1875 12.5H32.8125C34.0187 12.5 35 11.5188 35 10.3125V7.1875C35 5.98125 34.0187 5 32.8125 5Z" fill="white"/>
<path d="M7.1875 35H16.5625C17.7688 35 18.75 34.0187 18.75 32.8125V17.1875C18.75 15.9813 17.7688 15 16.5625 15H7.1875C5.98125 15 5 15.9813 5 17.1875V32.8125C5 34.0187 5.98125 35 7.1875 35Z" fill="white"/>
<path d="M32.8125 15H23.4375C22.2313 15 21.25 15.9813 21.25 17.1875V21.5625C21.25 22.7688 22.2313 23.75 23.4375 23.75H32.8125C34.0188 23.75 35 22.7688 35 21.5625V17.1875C35 15.9813 34.0188 15 32.8125 15Z" fill="white"/>
<path d="M32.8125 26.25H23.4375C22.2313 26.25 21.25 27.2313 21.25 28.4375V32.8125C21.25 34.0188 22.2313 35 23.4375 35H32.8125C34.0188 35 35 34.0188 35 32.8125V28.4375C35 27.2313 34.0188 26.25 32.8125 26.25Z" fill="white"/>
</svg>
