<svg width="16" height="16" viewBox="0 0 16 16" fill="none" xmlns="http://www.w3.org/2000/svg">
<path d="M13.6037 0C12.9874 0 12.372 0.233114 11.9068 0.69842L10.9864 1.59994H2.22197C1.00488 1.59994 0 2.60476 0 3.8218V13.7781C0 14.9952 1.00488 16 2.22197 16H12.1787C13.3957 16 14.4006 14.9952 14.4006 13.7781V5.01407L15.3022 4.09373C16.2326 3.16336 16.2326 1.62879 15.3022 0.69842C14.837 0.233235 14.2201 0 13.6037 0ZM13.6068 1.58434C13.8095 1.58434 14.0124 1.6648 14.174 1.82656C14.4972 2.14979 14.4972 2.63778 14.174 2.96097C14.172 2.96252 14.1699 2.96395 14.1678 2.96697L7.66597 9.5998H6.40185V8.33574L13.0349 1.83413C13.0365 1.83207 13.0381 1.83115 13.0397 1.82813C13.2013 1.66667 13.4042 1.58591 13.6069 1.58591L13.6068 1.58434ZM2.22197 3.19996H9.35509L5.03771 7.43127C4.88672 7.58124 4.8018 7.78546 4.80176 7.99839V10.4016C4.80352 10.8409 5.15928 11.1967 5.59867 11.1984H8.00346C8.21586 11.198 8.41935 11.1132 8.56911 10.9626L12.8005 6.64537V13.7782C12.8005 14.1371 12.5375 14.4001 12.1786 14.4001H2.22197C1.86313 14.4001 1.60007 14.1371 1.60007 13.7782V3.82189C1.60007 3.46307 1.86313 3.20006 2.22197 3.20006L2.22197 3.19996Z" fill="#C2CFE0"/>
</svg>
