<svg width="36" height="36" viewBox="0 0 36 36" fill="none" xmlns="http://www.w3.org/2000/svg">
<path d="M18 0C21.8012 4.53292e-08 25.5049 1.20339 28.5801 3.43769C31.6554 5.672 33.9444 8.82251 35.119 12.4377C36.2936 16.0529 36.2936 19.9471 35.119 23.5623C33.9444 27.1775 31.6554 30.328 28.5801 32.5623C25.5049 34.7966 21.8012 36 18 36C14.1988 36 10.4951 34.7966 7.41984 32.5623C4.34459 30.328 2.05561 27.1775 0.880963 23.5623C-0.29368 19.9471 -0.29368 16.0529 0.880964 12.4377L4.30477 13.5502C3.36505 16.4423 3.36505 19.5577 4.30477 22.4498C5.24448 25.342 7.07567 27.8624 9.53587 29.6498C11.9961 31.4373 14.959 32.4 18 32.4C21.041 32.4 24.0039 31.4373 26.4641 29.6498C28.9243 27.8624 30.7555 25.342 31.6952 22.4498C32.6349 19.5577 32.6349 16.4423 31.6952 13.5502C30.7555 10.658 28.9243 8.1376 26.4641 6.35015C24.0039 4.56271 21.041 3.6 18 3.6V0Z" fill="#6C7293"/>
</svg>
