<svg width="18" height="18" viewBox="0 0 18 18" fill="none" xmlns="http://www.w3.org/2000/svg">
<path d="M8.99998 0C10.9006 2.26646e-08 12.7524 0.601695 14.2901 1.71885C15.8277 2.836 16.9722 4.41126 17.5595 6.21885C18.1468 8.02644 18.1468 9.97356 17.5595 11.7812C16.9722 13.5887 15.8277 15.164 14.29 16.2812C12.7524 17.3983 10.9006 18 8.99998 18C7.09937 18 5.24754 17.3983 3.70992 16.2812C2.17229 15.164 1.0278 13.5887 0.440476 11.7812C-0.146846 9.97356 -0.146846 8.02644 0.440476 6.21885L2.15238 6.77508C1.68252 8.22115 1.68252 9.77885 2.15238 11.2249C2.62223 12.671 3.53783 13.9312 4.76793 14.8249C5.99803 15.7186 7.47949 16.2 8.99998 16.2C10.5205 16.2 12.0019 15.7186 13.232 14.8249C14.4621 13.9312 15.3777 12.671 15.8476 11.2249C16.3174 9.77885 16.3174 8.22115 15.8476 6.77508C15.3777 5.32901 14.4621 4.0688 13.232 3.17508C12.0019 2.28136 10.5205 1.8 8.99998 1.8V0Z" fill="#A7ABC3"/>
</svg>
