<svg width="24" height="24" viewBox="0 0 24 24" fill="none" xmlns="http://www.w3.org/2000/svg">
<path d="M14.2505 12.75C13.8358 12.75 13.5005 13.086 13.5005 13.4999V16.5C13.5005 16.9132 13.1645 17.25 12.7504 17.25H10.5004V5.99995C10.5004 5.35945 10.0924 4.7872 9.47899 4.5742L9.25693 4.49991H12.7504C13.1645 4.49991 13.5005 4.83664 13.5005 5.25V7.5C13.5005 7.91391 13.8358 8.24995 14.2505 8.24995C14.6652 8.24995 15.0004 7.91391 15.0004 7.5V5.25C15.0004 4.00951 13.9909 3 12.7504 3H4.68799C4.65942 3 4.63553 3.01277 4.60779 3.01648C4.57167 3.01346 4.5372 3 4.50053 3C3.67326 3 3.00049 3.67264 3.00049 4.49991V17.9999C3.00049 18.6404 3.40849 19.2127 4.02194 19.4257L8.53554 20.9302C8.68852 20.9775 8.84068 21 9.00053 21C9.8278 21 10.5004 20.3272 10.5004 19.5V18.75H12.7504C13.9909 18.75 15.0004 17.7405 15.0004 16.5V13.4999C15.0004 13.086 14.6652 12.75 14.2505 12.75Z" fill="white"/>
<path d="M20.7807 9.96966L17.7806 6.96971C17.5663 6.7552 17.2437 6.69066 16.9632 6.80684C16.6835 6.92316 16.5004 7.19685 16.5004 7.49994V9.74994H13.5005C13.0864 9.74994 12.7504 10.0858 12.7504 10.4999C12.7504 10.9139 13.0864 11.2498 13.5005 11.2498H16.5004V13.4998C16.5004 13.8029 16.6835 14.0766 16.9632 14.1929C17.2437 14.3091 17.5663 14.2446 17.7806 14.0302L20.7807 11.0301C21.0739 10.7369 21.0739 10.2629 20.7807 9.96966Z" fill="white"/>
</svg>
