<svg width="18" height="13" viewBox="0 0 18 13" fill="none" xmlns="http://www.w3.org/2000/svg">
<path d="M17.8795 5.85384C17.3037 4.85484 14.137 -0.158161 8.7571 0.00383947C3.78207 0.129839 0.903218 4.50384 0.120529 5.85384C0.0415692 5.99066 0 6.14586 0 6.30384C0 6.46182 0.0415692 6.61702 0.120529 6.75384C0.687304 7.73484 3.7191 12.6038 9.01799 12.6038H9.2429C14.2179 12.4778 17.1058 8.10384 17.8795 6.75384C17.9584 6.61702 18 6.46182 18 6.30384C18 6.14586 17.9584 5.99066 17.8795 5.85384ZM9.19792 10.8038C5.32046 10.8938 2.79247 7.57284 2.00078 6.30384C2.90042 4.85484 5.24849 1.89384 8.84706 1.80384C12.7065 1.70484 15.2435 5.03484 16.0442 6.30384C15.1176 7.75284 12.7965 10.7138 9.19792 10.8038Z" fill="#109CF1"/>
<path d="M9.00352 3.15381C8.38051 3.15381 7.77149 3.33855 7.25347 3.68468C6.73546 4.03081 6.33171 4.52277 6.0933 5.09836C5.85488 5.67394 5.7925 6.3073 5.91404 6.91834C6.03559 7.52939 6.3356 8.09066 6.77613 8.5312C7.21667 8.97173 7.77794 9.27174 8.38898 9.39328C9.00002 9.51483 9.63338 9.45245 10.209 9.21403C10.7846 8.97562 11.2765 8.57187 11.6226 8.05386C11.9688 7.53584 12.1535 6.92682 12.1535 6.30381C12.1535 5.46838 11.8216 4.66716 11.2309 4.07642C10.6402 3.48568 9.83895 3.15381 9.00352 3.15381ZM9.00352 7.65381C8.73651 7.65381 8.4755 7.57463 8.2535 7.42629C8.03149 7.27795 7.85846 7.06711 7.75628 6.82043C7.6541 6.57375 7.62737 6.30231 7.67946 6.04044C7.73155 5.77856 7.86012 5.53802 8.04892 5.34922C8.23772 5.16041 8.47827 5.03184 8.74015 4.97975C9.00202 4.92766 9.27346 4.95439 9.52014 5.05657C9.76682 5.15875 9.97766 5.33178 10.126 5.55379C10.2743 5.7758 10.3535 6.0368 10.3535 6.30381C10.3535 6.66185 10.2113 7.00523 9.95811 7.2584C9.70494 7.51158 9.36156 7.65381 9.00352 7.65381Z" fill="#109CF1"/>
</svg>
