<svg width="40" height="40" viewBox="0 0 40 40" fill="none" xmlns="http://www.w3.org/2000/svg">
<path d="M29.4118 13.9648H18.5882L16.4353 11.406C16.3629 11.3189 16.2543 11.2701 16.1412 11.2736H7.40882C6.07559 11.2833 5 12.3669 5 13.7001V29.4383C5.00162 30.7761 6.08574 31.8602 7.42353 31.8618H29.4118C30.7496 31.8602 31.8337 30.7761 31.8353 29.4383V16.3883C31.8337 15.0505 30.7496 13.9664 29.4118 13.9648Z" fill="#A7ABC3"/>
<path d="M32.5914 10.8295H21.7649L19.6119 8.27072C19.5395 8.18366 19.431 8.13483 19.3178 8.13836H10.5884C9.3787 8.14035 8.35576 9.03402 8.19135 10.2325H16.1531C16.5706 10.2314 16.967 10.4157 17.2355 10.7354L19.0737 12.9207H29.4119C31.3241 12.9239 32.8734 14.4733 32.8766 16.3854V28.703C34.089 28.5518 34.9992 27.5219 35.0002 26.3001V13.2501C34.997 11.9192 33.9222 10.8392 32.5914 10.8295Z" fill="#A7ABC3"/>
</svg>
