<svg width="40" height="40" viewBox="0 0 40 40" fill="none" xmlns="http://www.w3.org/2000/svg">
<path d="M11.6907 26.5769C11.6907 26.1217 11.3219 25.7529 10.8667 25.7529H6.74683C6.29158 25.7529 5.92285 26.1217 5.92285 26.5769V33.2236C5.92285 33.6789 6.29158 34.0476 6.74683 34.0476H10.8667C11.3219 34.0476 11.6907 33.6789 11.6907 33.2236V26.5769Z" fill="#A7ABC3"/>
<path d="M18.3374 20.8096H14.2175C13.7623 20.8096 13.3936 21.1783 13.3936 21.6335V33.2241C13.3936 33.6794 13.7623 34.0481 14.2175 34.0481H18.3374C18.7926 34.0481 19.1614 33.6794 19.1614 33.2241V21.6335C19.1614 21.1783 18.7926 20.8096 18.3374 20.8096Z" fill="#A7ABC3"/>
<path d="M25.7532 19.1611H21.6333C21.1781 19.1611 20.8093 19.5299 20.8093 19.9851V33.2236C20.8093 33.6789 21.1781 34.0476 21.6333 34.0476H25.7532C26.2084 34.0476 26.5771 33.6789 26.5771 33.2236V19.9851C26.5771 19.5299 26.2084 19.1611 25.7532 19.1611Z" fill="#A7ABC3"/>
<path d="M33.2239 12.5693H29.104C28.6488 12.5693 28.28 12.9381 28.28 13.3933V33.2236C28.28 33.6789 28.6488 34.0476 29.104 34.0476H33.2239C33.6791 34.0476 34.0479 33.6789 34.0479 33.2236V13.3933C34.0479 12.9381 33.6791 12.5693 33.2239 12.5693Z" fill="#A7ABC3"/>
<path d="M8.86188 24.0503C10.2249 24.0503 11.3338 22.9414 11.3338 21.5784C11.3338 21.3468 11.2916 21.1272 11.2318 20.9147L14.4422 18.6485C14.8453 18.9346 15.3349 19.1064 15.8657 19.1064C17.1162 19.1064 18.1417 18.1699 18.3043 16.9631L21.5916 16.2709C22.0268 16.9802 22.8023 17.4585 23.6934 17.4585C25.0564 17.4585 26.1653 16.3496 26.1653 14.9866C26.1653 14.657 26.0977 14.3435 25.9803 14.0558L29.9239 10.5505C30.2775 10.7457 30.6775 10.8667 31.1092 10.8667C32.4722 10.8667 33.5811 9.75777 33.5811 8.39478C33.5811 7.03178 32.4722 5.92285 31.1092 5.92285C29.7462 5.92285 28.6373 7.03178 28.6373 8.39478C28.6373 8.72437 28.7049 9.03782 28.8223 9.32552L24.8787 12.8308C24.5251 12.6357 24.1251 12.5146 23.6934 12.5146C22.4429 12.5146 21.4174 13.4512 21.2548 14.658L17.9675 15.3502C17.5323 14.6408 16.7568 14.1626 15.8657 14.1626C14.5027 14.1626 13.3937 15.2715 13.3937 16.6345C13.3937 16.8661 13.436 17.0856 13.4957 17.2982L10.2853 19.5644C9.88223 19.2783 9.39265 19.1064 8.86188 19.1064C7.49889 19.1064 6.38995 20.2154 6.38995 21.5784C6.38995 22.9414 7.49889 24.0503 8.86188 24.0503Z" fill="#A7ABC3"/>
</svg>
