<svg width="318" height="386" viewBox="0 0 318 386" fill="none" xmlns="http://www.w3.org/2000/svg">
<g filter="url(#filter0_d_12_1786)">
<path d="M13 11C13 8.23858 15.2386 6 18 6H300C302.761 6 305 8.23858 305 11V361C305 363.761 302.761 366 300 366H18C15.2386 366 13 363.761 13 361V11Z" fill="white"/>
<path d="M51.8447 120.2V130H50.8367V121.096H48.5267V120.2H51.8447Z" fill="#192A3E"/>
<path d="M90.3715 129.104V130H83.4975V129.286L87.5715 125.296C88.0848 124.792 88.4302 124.358 88.6075 123.994C88.7942 123.621 88.8875 123.247 88.8875 122.874C88.8875 122.295 88.6868 121.847 88.2855 121.53C87.8935 121.203 87.3288 121.04 86.5915 121.04C85.4435 121.04 84.5522 121.404 83.9175 122.132L83.2035 121.516C83.5862 121.068 84.0715 120.723 84.6595 120.48C85.2568 120.237 85.9288 120.116 86.6755 120.116C87.6742 120.116 88.4628 120.354 89.0415 120.83C89.6295 121.297 89.9235 121.941 89.9235 122.762C89.9235 123.266 89.8115 123.751 89.5875 124.218C89.3635 124.685 88.9388 125.221 88.3135 125.828L84.9815 129.104H90.3715Z" fill="#192A3E"/>
<path d="M123.039 124.4C124.065 124.456 124.845 124.736 125.377 125.24C125.918 125.735 126.189 126.383 126.189 127.186C126.189 127.746 126.053 128.245 125.783 128.684C125.512 129.113 125.111 129.454 124.579 129.706C124.047 129.958 123.398 130.084 122.633 130.084C121.923 130.084 121.251 129.972 120.617 129.748C119.991 129.515 119.487 129.207 119.105 128.824L119.595 128.026C119.921 128.362 120.355 128.637 120.897 128.852C121.438 129.057 122.017 129.16 122.633 129.16C123.435 129.16 124.056 128.987 124.495 128.642C124.933 128.287 125.153 127.802 125.153 127.186C125.153 126.579 124.933 126.103 124.495 125.758C124.056 125.413 123.393 125.24 122.507 125.24H121.807V124.498L124.523 121.096H119.511V120.2H125.811V120.914L123.039 124.4Z" fill="#192A3E"/>
<path d="M163.36 127.424H161.4V130H160.392V127.424H154.862V126.696L160.056 120.2H161.176L156.164 126.528H160.42V124.26H161.4V126.528H163.36V127.424Z" fill="#192A3E"/>
<path d="M194.269 124.218C195.688 124.218 196.719 124.475 197.363 124.988C198.016 125.492 198.343 126.201 198.343 127.116C198.343 127.685 198.208 128.194 197.937 128.642C197.676 129.09 197.279 129.445 196.747 129.706C196.215 129.958 195.562 130.084 194.787 130.084C194.087 130.084 193.42 129.972 192.785 129.748C192.16 129.515 191.656 129.207 191.273 128.824L191.763 128.026C192.09 128.362 192.519 128.637 193.051 128.852C193.583 129.057 194.157 129.16 194.773 129.16C195.585 129.16 196.21 128.978 196.649 128.614C197.097 128.25 197.321 127.765 197.321 127.158C197.321 126.486 197.069 125.977 196.565 125.632C196.07 125.287 195.23 125.114 194.045 125.114H191.959L192.463 120.2H197.825V121.096H193.345L193.009 124.218H194.269Z" fill="#192A3E"/>
<path d="M231.452 124.134C232.096 124.134 232.666 124.255 233.16 124.498C233.664 124.741 234.056 125.086 234.336 125.534C234.616 125.973 234.756 126.486 234.756 127.074C234.756 127.671 234.612 128.199 234.322 128.656C234.033 129.113 233.632 129.468 233.118 129.72C232.614 129.963 232.045 130.084 231.41 130.084C230.113 130.084 229.119 129.659 228.428 128.81C227.738 127.951 227.392 126.743 227.392 125.184C227.392 124.092 227.579 123.168 227.952 122.412C228.326 121.656 228.848 121.087 229.52 120.704C230.192 120.312 230.976 120.116 231.872 120.116C232.843 120.116 233.618 120.293 234.196 120.648L233.79 121.46C233.324 121.152 232.689 120.998 231.886 120.998C230.804 120.998 229.954 121.343 229.338 122.034C228.722 122.715 228.414 123.709 228.414 125.016C228.414 125.249 228.428 125.515 228.456 125.814C228.699 125.282 229.086 124.871 229.618 124.582C230.15 124.283 230.762 124.134 231.452 124.134ZM231.368 129.23C232.078 129.23 232.652 129.039 233.09 128.656C233.538 128.264 233.762 127.746 233.762 127.102C233.762 126.458 233.538 125.945 233.09 125.562C232.652 125.179 232.054 124.988 231.298 124.988C230.804 124.988 230.365 125.081 229.982 125.268C229.609 125.455 229.315 125.711 229.1 126.038C228.886 126.365 228.778 126.729 228.778 127.13C228.778 127.503 228.876 127.849 229.072 128.166C229.278 128.483 229.576 128.74 229.968 128.936C230.36 129.132 230.827 129.23 231.368 129.23Z" fill="#192A3E"/>
<path d="M270.452 120.2V120.914L266.35 130H265.258L269.29 121.096H264.25V122.93H263.256V120.2H270.452Z" fill="#192A3E"/>
<path d="M52.8081 160.862C53.4241 161.067 53.8955 161.375 54.2221 161.786C54.5581 162.197 54.7261 162.691 54.7261 163.27C54.7261 163.839 54.5721 164.339 54.2641 164.768C53.9561 165.188 53.5128 165.515 52.9341 165.748C52.3648 165.972 51.6928 166.084 50.9181 166.084C49.7421 166.084 48.8181 165.832 48.1461 165.328C47.4741 164.824 47.1381 164.138 47.1381 163.27C47.1381 162.682 47.2968 162.187 47.6141 161.786C47.9408 161.375 48.4121 161.067 49.0281 160.862C48.5241 160.666 48.1415 160.386 47.8801 160.022C47.6188 159.649 47.4881 159.21 47.4881 158.706C47.4881 157.913 47.7961 157.283 48.4121 156.816C49.0375 156.349 49.8728 156.116 50.9181 156.116C51.6088 156.116 52.2108 156.223 52.7241 156.438C53.2468 156.643 53.6528 156.942 53.9421 157.334C54.2315 157.726 54.3761 158.183 54.3761 158.706C54.3761 159.21 54.2408 159.649 53.9701 160.022C53.6995 160.386 53.3121 160.666 52.8081 160.862ZM48.4961 158.734C48.4961 159.275 48.7108 159.705 49.1401 160.022C49.5695 160.339 50.1621 160.498 50.9181 160.498C51.6741 160.498 52.2668 160.339 52.6961 160.022C53.1348 159.705 53.3541 159.28 53.3541 158.748C53.3541 158.197 53.1301 157.763 52.6821 157.446C52.2435 157.129 51.6555 156.97 50.9181 156.97C50.1715 156.97 49.5788 157.129 49.1401 157.446C48.7108 157.763 48.4961 158.193 48.4961 158.734ZM50.9181 165.23C51.7861 165.23 52.4628 165.053 52.9481 164.698C53.4428 164.343 53.6901 163.863 53.6901 163.256C53.6901 162.649 53.4428 162.173 52.9481 161.828C52.4628 161.473 51.7861 161.296 50.9181 161.296C50.0595 161.296 49.3828 161.473 48.8881 161.828C48.4028 162.173 48.1601 162.649 48.1601 163.256C48.1601 163.872 48.4028 164.357 48.8881 164.712C49.3735 165.057 50.0501 165.23 50.9181 165.23Z" fill="#192A3E"/>
<path d="M86.4444 156.116C87.7417 156.116 88.7357 156.545 89.4264 157.404C90.117 158.253 90.4624 159.457 90.4624 161.016C90.4624 162.108 90.2757 163.032 89.9024 163.788C89.529 164.544 89.0064 165.118 88.3344 165.51C87.6624 165.893 86.8784 166.084 85.9824 166.084C85.0117 166.084 84.237 165.907 83.6584 165.552L84.0644 164.74C84.531 165.048 85.1657 165.202 85.9684 165.202C87.051 165.202 87.9004 164.861 88.5164 164.18C89.1324 163.489 89.4404 162.491 89.4404 161.184C89.4404 160.941 89.4264 160.675 89.3984 160.386C89.1557 160.918 88.7684 161.333 88.2364 161.632C87.7044 161.921 87.093 162.066 86.4024 162.066C85.7584 162.066 85.1844 161.945 84.6804 161.702C84.1857 161.459 83.7984 161.119 83.5184 160.68C83.2384 160.232 83.0984 159.714 83.0984 159.126C83.0984 158.529 83.243 158.001 83.5324 157.544C83.8217 157.087 84.2184 156.737 84.7224 156.494C85.2357 156.242 85.8097 156.116 86.4444 156.116ZM86.5564 161.212C87.051 161.212 87.485 161.119 87.8584 160.932C88.241 160.745 88.5397 160.489 88.7544 160.162C88.969 159.835 89.0764 159.471 89.0764 159.07C89.0764 158.697 88.9737 158.351 88.7684 158.034C88.5724 157.717 88.2784 157.46 87.8864 157.264C87.4944 157.068 87.0277 156.97 86.4864 156.97C85.777 156.97 85.1984 157.166 84.7504 157.558C84.3117 157.941 84.0924 158.454 84.0924 159.098C84.0924 159.742 84.3117 160.255 84.7504 160.638C85.1984 161.021 85.8004 161.212 86.5564 161.212Z" fill="#192A3E"/>
<path d="M119.14 156.2V166H118.132V157.096H115.822V156.2H119.14ZM125.529 166.084C124.773 166.084 124.096 165.883 123.499 165.482C122.911 165.081 122.449 164.507 122.113 163.76C121.786 163.004 121.623 162.117 121.623 161.1C121.623 160.083 121.786 159.201 122.113 158.454C122.449 157.698 122.911 157.119 123.499 156.718C124.096 156.317 124.773 156.116 125.529 156.116C126.285 156.116 126.957 156.317 127.545 156.718C128.142 157.119 128.609 157.698 128.945 158.454C129.281 159.201 129.449 160.083 129.449 161.1C129.449 162.117 129.281 163.004 128.945 163.76C128.609 164.507 128.142 165.081 127.545 165.482C126.957 165.883 126.285 166.084 125.529 166.084ZM125.529 165.16C126.098 165.16 126.597 165.001 127.027 164.684C127.465 164.367 127.806 163.905 128.049 163.298C128.291 162.691 128.413 161.959 128.413 161.1C128.413 160.241 128.291 159.509 128.049 158.902C127.806 158.295 127.465 157.833 127.027 157.516C126.597 157.199 126.098 157.04 125.529 157.04C124.959 157.04 124.455 157.199 124.017 157.516C123.587 157.833 123.251 158.295 123.009 158.902C122.766 159.509 122.645 160.241 122.645 161.1C122.645 161.959 122.766 162.691 123.009 163.298C123.251 163.905 123.587 164.367 124.017 164.684C124.455 165.001 124.959 165.16 125.529 165.16Z" fill="#192A3E"/>
<path d="M157.245 156.2V166H156.237V157.096H153.927V156.2H157.245ZM162.444 156.2V166H161.436V157.096H159.126V156.2H162.444Z" fill="#192A3E"/>
<path d="M191.796 156.2V166H190.788V157.096H188.478V156.2H191.796ZM200.971 165.104V166H194.097V165.286L198.171 161.296C198.684 160.792 199.029 160.358 199.207 159.994C199.393 159.621 199.487 159.247 199.487 158.874C199.487 158.295 199.286 157.847 198.885 157.53C198.493 157.203 197.928 157.04 197.191 157.04C196.043 157.04 195.151 157.404 194.517 158.132L193.803 157.516C194.185 157.068 194.671 156.723 195.259 156.48C195.856 156.237 196.528 156.116 197.275 156.116C198.273 156.116 199.062 156.354 199.641 156.83C200.229 157.297 200.523 157.941 200.523 158.762C200.523 159.266 200.411 159.751 200.187 160.218C199.963 160.685 199.538 161.221 198.913 161.828L195.581 165.104H200.971Z" fill="#192A3E"/>
<path d="M227.824 156.2V166H226.816V157.096H224.506V156.2H227.824ZM233.638 160.4C234.665 160.456 235.444 160.736 235.976 161.24C236.517 161.735 236.788 162.383 236.788 163.186C236.788 163.746 236.653 164.245 236.382 164.684C236.111 165.113 235.71 165.454 235.178 165.706C234.646 165.958 233.997 166.084 233.232 166.084C232.523 166.084 231.851 165.972 231.216 165.748C230.591 165.515 230.087 165.207 229.704 164.824L230.194 164.026C230.521 164.362 230.955 164.637 231.496 164.852C232.037 165.057 232.616 165.16 233.232 165.16C234.035 165.16 234.655 164.987 235.094 164.642C235.533 164.287 235.752 163.802 235.752 163.186C235.752 162.579 235.533 162.103 235.094 161.758C234.655 161.413 233.993 161.24 233.106 161.24H232.406V160.498L235.122 157.096H230.11V156.2H236.41V156.914L233.638 160.4Z" fill="#192A3E"/>
<path d="M263.147 156.2V166H262.139V157.096H259.829V156.2H263.147ZM273.959 163.424H271.999V166H270.991V163.424H265.461V162.696L270.655 156.2H271.775L266.763 162.528H271.019V160.26H271.999V162.528H273.959V163.424Z" fill="#192A3E"/>
<path d="M47.8099 192.2V202H46.8019V193.096H44.4919V192.2H47.8099ZM52.8685 196.218C54.2871 196.218 55.3185 196.475 55.9625 196.988C56.6158 197.492 56.9425 198.201 56.9425 199.116C56.9425 199.685 56.8071 200.194 56.5365 200.642C56.2751 201.09 55.8785 201.445 55.3465 201.706C54.8145 201.958 54.1611 202.084 53.3865 202.084C52.6865 202.084 52.0191 201.972 51.3845 201.748C50.7591 201.515 50.2551 201.207 49.8725 200.824L50.3625 200.026C50.6891 200.362 51.1185 200.637 51.6505 200.852C52.1825 201.057 52.7565 201.16 53.3725 201.16C54.1845 201.16 54.8098 200.978 55.2485 200.614C55.6965 200.25 55.9205 199.765 55.9205 199.158C55.9205 198.486 55.6685 197.977 55.1645 197.632C54.6698 197.287 53.8298 197.114 52.6445 197.114H50.5585L51.0625 192.2H56.4245V193.096H51.9445L51.6085 196.218H52.8685Z" fill="#192A3E"/>
<path d="M83.5091 192.2V202H82.5011V193.096H80.1911V192.2H83.5091ZM90.0517 196.134C90.6957 196.134 91.265 196.255 91.7597 196.498C92.2637 196.741 92.6557 197.086 92.9357 197.534C93.2157 197.973 93.3557 198.486 93.3557 199.074C93.3557 199.671 93.211 200.199 92.9217 200.656C92.6323 201.113 92.231 201.468 91.7177 201.72C91.2137 201.963 90.6443 202.084 90.0097 202.084C88.7123 202.084 87.7183 201.659 87.0277 200.81C86.337 199.951 85.9917 198.743 85.9917 197.184C85.9917 196.092 86.1783 195.168 86.5517 194.412C86.925 193.656 87.4477 193.087 88.1197 192.704C88.7917 192.312 89.5757 192.116 90.4717 192.116C91.4423 192.116 92.217 192.293 92.7957 192.648L92.3897 193.46C91.923 193.152 91.2883 192.998 90.4857 192.998C89.403 192.998 88.5537 193.343 87.9377 194.034C87.3217 194.715 87.0137 195.709 87.0137 197.016C87.0137 197.249 87.0277 197.515 87.0557 197.814C87.2983 197.282 87.6857 196.871 88.2177 196.582C88.7497 196.283 89.361 196.134 90.0517 196.134ZM89.9677 201.23C90.677 201.23 91.251 201.039 91.6897 200.656C92.1377 200.264 92.3617 199.746 92.3617 199.102C92.3617 198.458 92.1377 197.945 91.6897 197.562C91.251 197.179 90.6537 196.988 89.8977 196.988C89.403 196.988 88.9643 197.081 88.5817 197.268C88.2083 197.455 87.9143 197.711 87.6997 198.038C87.485 198.365 87.3777 198.729 87.3777 199.13C87.3777 199.503 87.4757 199.849 87.6717 200.166C87.877 200.483 88.1757 200.74 88.5677 200.936C88.9597 201.132 89.4263 201.23 89.9677 201.23Z" fill="#192A3E"/>
<path d="M107 197C107 188.163 114.163 181 123 181H141V213H123C114.163 213 107 205.837 107 197Z" fill="#004269" fill-opacity="0.07"/>
<path d="M107 197C107 188.163 114.163 181 123 181C131.837 181 139 188.163 139 197C139 205.837 131.837 213 123 213C114.163 213 107 205.837 107 197Z" fill="#109CF1"/>
<path d="M119.796 192.2V202H118.41V193.418H116.198V192.2H119.796ZM129.219 192.2V193.152L125.257 202H123.773L127.651 193.418H123.171V195.168H121.827V192.2H129.219Z" fill="white"/>
<path d="M141 181H177V213H141V181Z" fill="#EDF2F4"/>
<path d="M155.311 192.2V202H154.303V193.096H151.993V192.2H155.311ZM163.407 196.862C164.023 197.067 164.495 197.375 164.821 197.786C165.157 198.197 165.325 198.691 165.325 199.27C165.325 199.839 165.171 200.339 164.863 200.768C164.555 201.188 164.112 201.515 163.533 201.748C162.964 201.972 162.292 202.084 161.517 202.084C160.341 202.084 159.417 201.832 158.745 201.328C158.073 200.824 157.737 200.138 157.737 199.27C157.737 198.682 157.896 198.187 158.213 197.786C158.54 197.375 159.011 197.067 159.627 196.862C159.123 196.666 158.741 196.386 158.479 196.022C158.218 195.649 158.087 195.21 158.087 194.706C158.087 193.913 158.395 193.283 159.011 192.816C159.637 192.349 160.472 192.116 161.517 192.116C162.208 192.116 162.81 192.223 163.323 192.438C163.846 192.643 164.252 192.942 164.541 193.334C164.831 193.726 164.975 194.183 164.975 194.706C164.975 195.21 164.84 195.649 164.569 196.022C164.299 196.386 163.911 196.666 163.407 196.862ZM159.095 194.734C159.095 195.275 159.31 195.705 159.739 196.022C160.169 196.339 160.761 196.498 161.517 196.498C162.273 196.498 162.866 196.339 163.295 196.022C163.734 195.705 163.953 195.28 163.953 194.748C163.953 194.197 163.729 193.763 163.281 193.446C162.843 193.129 162.255 192.97 161.517 192.97C160.771 192.97 160.178 193.129 159.739 193.446C159.31 193.763 159.095 194.193 159.095 194.734ZM161.517 201.23C162.385 201.23 163.062 201.053 163.547 200.698C164.042 200.343 164.289 199.863 164.289 199.256C164.289 198.649 164.042 198.173 163.547 197.828C163.062 197.473 162.385 197.296 161.517 197.296C160.659 197.296 159.982 197.473 159.487 197.828C159.002 198.173 158.759 198.649 158.759 199.256C158.759 199.872 159.002 200.357 159.487 200.712C159.973 201.057 160.649 201.23 161.517 201.23Z" fill="#192A3E"/>
<path d="M177 181H213V213H177V181Z" fill="#EDF2F4"/>
<path d="M191.509 192.2V202H190.501V193.096H188.191V192.2H191.509ZM197.044 192.116C198.341 192.116 199.335 192.545 200.026 193.404C200.716 194.253 201.062 195.457 201.062 197.016C201.062 198.108 200.875 199.032 200.502 199.788C200.128 200.544 199.606 201.118 198.934 201.51C198.262 201.893 197.478 202.084 196.582 202.084C195.611 202.084 194.836 201.907 194.258 201.552L194.664 200.74C195.13 201.048 195.765 201.202 196.568 201.202C197.65 201.202 198.5 200.861 199.116 200.18C199.732 199.489 200.04 198.491 200.04 197.184C200.04 196.941 200.026 196.675 199.998 196.386C199.755 196.918 199.368 197.333 198.836 197.632C198.304 197.921 197.692 198.066 197.002 198.066C196.358 198.066 195.784 197.945 195.28 197.702C194.785 197.459 194.398 197.119 194.118 196.68C193.838 196.232 193.698 195.714 193.698 195.126C193.698 194.529 193.842 194.001 194.132 193.544C194.421 193.087 194.818 192.737 195.322 192.494C195.835 192.242 196.409 192.116 197.044 192.116ZM197.156 197.212C197.65 197.212 198.084 197.119 198.458 196.932C198.84 196.745 199.139 196.489 199.354 196.162C199.568 195.835 199.676 195.471 199.676 195.07C199.676 194.697 199.573 194.351 199.368 194.034C199.172 193.717 198.878 193.46 198.486 193.264C198.094 193.068 197.627 192.97 197.086 192.97C196.376 192.97 195.798 193.166 195.35 193.558C194.911 193.941 194.692 194.454 194.692 195.098C194.692 195.742 194.911 196.255 195.35 196.638C195.798 197.021 196.4 197.212 197.156 197.212Z" fill="#192A3E"/>
<path d="M213 181H249V213H213V181Z" fill="#EDF2F4"/>
<path d="M229.694 201.104V202H222.82V201.286L226.894 197.296C227.407 196.792 227.753 196.358 227.93 195.994C228.117 195.621 228.21 195.247 228.21 194.874C228.21 194.295 228.009 193.847 227.608 193.53C227.216 193.203 226.651 193.04 225.914 193.04C224.766 193.04 223.875 193.404 223.24 194.132L222.526 193.516C222.909 193.068 223.394 192.723 223.982 192.48C224.579 192.237 225.251 192.116 225.998 192.116C226.997 192.116 227.785 192.354 228.364 192.83C228.952 193.297 229.246 193.941 229.246 194.762C229.246 195.266 229.134 195.751 228.91 196.218C228.686 196.685 228.261 197.221 227.636 197.828L224.304 201.104H229.694ZM234.95 202.084C234.194 202.084 233.518 201.883 232.92 201.482C232.332 201.081 231.87 200.507 231.534 199.76C231.208 199.004 231.044 198.117 231.044 197.1C231.044 196.083 231.208 195.201 231.534 194.454C231.87 193.698 232.332 193.119 232.92 192.718C233.518 192.317 234.194 192.116 234.95 192.116C235.706 192.116 236.378 192.317 236.966 192.718C237.564 193.119 238.03 193.698 238.366 194.454C238.702 195.201 238.87 196.083 238.87 197.1C238.87 198.117 238.702 199.004 238.366 199.76C238.03 200.507 237.564 201.081 236.966 201.482C236.378 201.883 235.706 202.084 234.95 202.084ZM234.95 201.16C235.52 201.16 236.019 201.001 236.448 200.684C236.887 200.367 237.228 199.905 237.47 199.298C237.713 198.691 237.834 197.959 237.834 197.1C237.834 196.241 237.713 195.509 237.47 194.902C237.228 194.295 236.887 193.833 236.448 193.516C236.019 193.199 235.52 193.04 234.95 193.04C234.381 193.04 233.877 193.199 233.438 193.516C233.009 193.833 232.673 194.295 232.43 194.902C232.188 195.509 232.066 196.241 232.066 197.1C232.066 197.959 232.188 198.691 232.43 199.298C232.673 199.905 233.009 200.367 233.438 200.684C233.877 201.001 234.381 201.16 234.95 201.16Z" fill="#192A3E"/>
<path d="M249 181H285V213H249V181Z" fill="#EDF2F4"/>
<path d="M267.772 201.104V202H260.898V201.286L264.972 197.296C265.486 196.792 265.831 196.358 266.008 195.994C266.195 195.621 266.288 195.247 266.288 194.874C266.288 194.295 266.088 193.847 265.686 193.53C265.294 193.203 264.73 193.04 263.992 193.04C262.844 193.04 261.953 193.404 261.318 194.132L260.604 193.516C260.987 193.068 261.472 192.723 262.06 192.48C262.658 192.237 263.33 192.116 264.076 192.116C265.075 192.116 265.864 192.354 266.442 192.83C267.03 193.297 267.324 193.941 267.324 194.762C267.324 195.266 267.212 195.751 266.988 196.218C266.764 196.685 266.34 197.221 265.714 197.828L262.382 201.104H267.772ZM271.893 192.2V202H270.885V193.096H268.575V192.2H271.893Z" fill="#192A3E"/>
<path d="M33 217H69V249H33V217Z" fill="#EDF2F4"/>
<path d="M50.323 237.104V238H43.449V237.286L47.523 233.296C48.0363 232.792 48.3816 232.358 48.559 231.994C48.7456 231.621 48.839 231.247 48.839 230.874C48.839 230.295 48.6383 229.847 48.237 229.53C47.845 229.203 47.2803 229.04 46.543 229.04C45.395 229.04 44.5036 229.404 43.869 230.132L43.155 229.516C43.5376 229.068 44.023 228.723 44.611 228.48C45.2083 228.237 45.8803 228.116 46.627 228.116C47.6256 228.116 48.4143 228.354 48.993 228.83C49.581 229.297 49.875 229.941 49.875 230.762C49.875 231.266 49.763 231.751 49.539 232.218C49.315 232.685 48.8903 233.221 48.265 233.828L44.933 237.104H50.323ZM58.42 237.104V238H51.546V237.286L55.62 233.296C56.1333 232.792 56.4787 232.358 56.656 231.994C56.8427 231.621 56.936 231.247 56.936 230.874C56.936 230.295 56.7353 229.847 56.334 229.53C55.942 229.203 55.3773 229.04 54.64 229.04C53.492 229.04 52.6007 229.404 51.966 230.132L51.252 229.516C51.6347 229.068 52.12 228.723 52.708 228.48C53.3053 228.237 53.9773 228.116 54.724 228.116C55.7227 228.116 56.5113 228.354 57.09 228.83C57.678 229.297 57.972 229.941 57.972 230.762C57.972 231.266 57.86 231.751 57.636 232.218C57.412 232.685 56.9873 233.221 56.362 233.828L53.03 237.104H58.42Z" fill="#192A3E"/>
<path d="M69 217H105V249H69V217Z" fill="#EDF2F4"/>
<path d="M86.3503 237.104V238H79.4763V237.286L83.5503 233.296C84.0636 232.792 84.409 232.358 84.5863 231.994C84.773 231.621 84.8663 231.247 84.8663 230.874C84.8663 230.295 84.6656 229.847 84.2643 229.53C83.8723 229.203 83.3076 229.04 82.5703 229.04C81.4223 229.04 80.531 229.404 79.8963 230.132L79.1823 229.516C79.565 229.068 80.0503 228.723 80.6383 228.48C81.2356 228.237 81.9076 228.116 82.6543 228.116C83.653 228.116 84.4416 228.354 85.0203 228.83C85.6083 229.297 85.9023 229.941 85.9023 230.762C85.9023 231.266 85.7903 231.751 85.5663 232.218C85.3423 232.685 84.9176 233.221 84.2923 233.828L80.9603 237.104H86.3503ZM91.0873 232.4C92.114 232.456 92.8933 232.736 93.4253 233.24C93.9667 233.735 94.2373 234.383 94.2373 235.186C94.2373 235.746 94.102 236.245 93.8313 236.684C93.5607 237.113 93.1593 237.454 92.6273 237.706C92.0953 237.958 91.4467 238.084 90.6813 238.084C89.972 238.084 89.3 237.972 88.6653 237.748C88.04 237.515 87.536 237.207 87.1533 236.824L87.6433 236.026C87.97 236.362 88.404 236.637 88.9453 236.852C89.4867 237.057 90.0653 237.16 90.6813 237.16C91.484 237.16 92.1047 236.987 92.5433 236.642C92.982 236.287 93.2013 235.802 93.2013 235.186C93.2013 234.579 92.982 234.103 92.5433 233.758C92.1047 233.413 91.442 233.24 90.5553 233.24H89.8553V232.498L92.5713 229.096H87.5593V228.2H93.8593V228.914L91.0873 232.4Z" fill="#192A3E"/>
<path d="M105 217H141V249H105V217Z" fill="#EDF2F4"/>
<path d="M121.838 237.104V238H114.964V237.286L119.038 233.296C119.551 232.792 119.896 232.358 120.074 231.994C120.26 231.621 120.354 231.247 120.354 230.874C120.354 230.295 120.153 229.847 119.752 229.53C119.36 229.203 118.795 229.04 118.058 229.04C116.91 229.04 116.018 229.404 115.384 230.132L114.67 229.516C115.052 229.068 115.538 228.723 116.126 228.48C116.723 228.237 117.395 228.116 118.142 228.116C119.14 228.116 119.929 228.354 120.508 228.83C121.096 229.297 121.39 229.941 121.39 230.762C121.39 231.266 121.278 231.751 121.054 232.218C120.83 232.685 120.405 233.221 119.78 233.828L116.448 237.104H121.838ZM131.245 235.424H129.285V238H128.277V235.424H122.747V234.696L127.941 228.2H129.061L124.049 234.528H128.305V232.26H129.285V234.528H131.245V235.424Z" fill="#192A3E"/>
<path d="M141 217H177V249H141V217Z" fill="#EDF2F4"/>
<path d="M158.337 237.104V238H151.463V237.286L155.537 233.296C156.05 232.792 156.395 232.358 156.573 231.994C156.759 231.621 156.853 231.247 156.853 230.874C156.853 230.295 156.652 229.847 156.251 229.53C155.859 229.203 155.294 229.04 154.557 229.04C153.409 229.04 152.517 229.404 151.883 230.132L151.169 229.516C151.551 229.068 152.037 228.723 152.625 228.48C153.222 228.237 153.894 228.116 154.641 228.116C155.639 228.116 156.428 228.354 157.007 228.83C157.595 229.297 157.889 229.941 157.889 230.762C157.889 231.266 157.777 231.751 157.553 232.218C157.329 232.685 156.904 233.221 156.279 233.828L152.947 237.104H158.337ZM162.318 232.218C163.736 232.218 164.768 232.475 165.412 232.988C166.065 233.492 166.392 234.201 166.392 235.116C166.392 235.685 166.256 236.194 165.986 236.642C165.724 237.09 165.328 237.445 164.796 237.706C164.264 237.958 163.61 238.084 162.836 238.084C162.136 238.084 161.468 237.972 160.834 237.748C160.208 237.515 159.704 237.207 159.322 236.824L159.812 236.026C160.138 236.362 160.568 236.637 161.1 236.852C161.632 237.057 162.206 237.16 162.822 237.16C163.634 237.16 164.259 236.978 164.698 236.614C165.146 236.25 165.37 235.765 165.37 235.158C165.37 234.486 165.118 233.977 164.614 233.632C164.119 233.287 163.279 233.114 162.094 233.114H160.008L160.512 228.2H165.874V229.096H161.394L161.058 232.218H162.318Z" fill="#192A3E"/>
<path d="M177 217H195C203.837 217 211 224.163 211 233C211 241.837 203.837 249 195 249H177V217Z" fill="#004269" fill-opacity="0.07"/>
<path d="M179 233C179 224.163 186.163 217 195 217C203.837 217 211 224.163 211 233C211 241.837 203.837 249 195 249C186.163 249 179 241.837 179 233Z" fill="#109CF1"/>
<path d="M194.101 236.782V238H187.059V237.048L191.049 233.198C191.534 232.731 191.861 232.33 192.029 231.994C192.197 231.649 192.281 231.303 192.281 230.958C192.281 230.445 192.099 230.048 191.735 229.768C191.38 229.479 190.867 229.334 190.195 229.334C189.112 229.334 188.277 229.689 187.689 230.398L186.737 229.572C187.119 229.105 187.619 228.741 188.235 228.48C188.86 228.219 189.555 228.088 190.321 228.088C191.347 228.088 192.164 228.335 192.771 228.83C193.377 229.315 193.681 229.978 193.681 230.818C193.681 231.341 193.569 231.835 193.345 232.302C193.121 232.769 192.696 233.301 192.071 233.898L189.075 236.782H194.101ZM199.579 232.05C200.223 232.05 200.797 232.171 201.301 232.414C201.814 232.657 202.215 233.007 202.505 233.464C202.794 233.912 202.939 234.43 202.939 235.018C202.939 235.634 202.785 236.175 202.477 236.642C202.178 237.109 201.763 237.473 201.231 237.734C200.708 237.986 200.12 238.112 199.467 238.112C198.151 238.112 197.133 237.687 196.415 236.838C195.705 235.989 195.351 234.785 195.351 233.226C195.351 232.134 195.542 231.205 195.925 230.44C196.317 229.665 196.858 229.082 197.549 228.69C198.249 228.289 199.061 228.088 199.985 228.088C200.461 228.088 200.909 228.139 201.329 228.242C201.749 228.335 202.113 228.475 202.421 228.662L201.889 229.754C201.422 229.446 200.797 229.292 200.013 229.292C198.995 229.292 198.197 229.609 197.619 230.244C197.04 230.869 196.751 231.784 196.751 232.988C196.751 233.137 196.755 233.254 196.765 233.338C197.045 232.918 197.427 232.601 197.913 232.386C198.407 232.162 198.963 232.05 199.579 232.05ZM199.411 236.978C200.055 236.978 200.577 236.805 200.979 236.46C201.38 236.115 201.581 235.653 201.581 235.074C201.581 234.495 201.375 234.038 200.965 233.702C200.563 233.357 200.022 233.184 199.341 233.184C198.902 233.184 198.51 233.268 198.165 233.436C197.829 233.604 197.563 233.833 197.367 234.122C197.18 234.411 197.087 234.733 197.087 235.088C197.087 235.433 197.175 235.751 197.353 236.04C197.539 236.32 197.805 236.549 198.151 236.726C198.505 236.894 198.925 236.978 199.411 236.978Z" fill="white"/>
<path d="M230.207 237.104V238H223.333V237.286L227.407 233.296C227.92 232.792 228.265 232.358 228.443 231.994C228.629 231.621 228.723 231.247 228.723 230.874C228.723 230.295 228.522 229.847 228.121 229.53C227.729 229.203 227.164 229.04 226.427 229.04C225.279 229.04 224.387 229.404 223.753 230.132L223.039 229.516C223.421 229.068 223.907 228.723 224.495 228.48C225.092 228.237 225.764 228.116 226.511 228.116C227.509 228.116 228.298 228.354 228.877 228.83C229.465 229.297 229.759 229.941 229.759 230.762C229.759 231.266 229.647 231.751 229.423 232.218C229.199 232.685 228.774 233.221 228.149 233.828L224.817 237.104H230.207ZM238.473 228.2V228.914L234.371 238H233.279L237.311 229.096H232.271V230.93H231.277V228.2H238.473Z" fill="#192A3E"/>
<path d="M265.838 237.104V238H258.964V237.286L263.038 233.296C263.551 232.792 263.896 232.358 264.074 231.994C264.26 231.621 264.354 231.247 264.354 230.874C264.354 230.295 264.153 229.847 263.752 229.53C263.36 229.203 262.795 229.04 262.058 229.04C260.91 229.04 260.018 229.404 259.384 230.132L258.67 229.516C259.052 229.068 259.538 228.723 260.126 228.48C260.723 228.237 261.395 228.116 262.142 228.116C263.14 228.116 263.929 228.354 264.508 228.83C265.096 229.297 265.39 229.941 265.39 230.762C265.39 231.266 265.278 231.751 265.054 232.218C264.83 232.685 264.405 233.221 263.78 233.828L260.448 237.104H265.838ZM272.857 232.862C273.473 233.067 273.944 233.375 274.271 233.786C274.607 234.197 274.775 234.691 274.775 235.27C274.775 235.839 274.621 236.339 274.313 236.768C274.005 237.188 273.561 237.515 272.983 237.748C272.413 237.972 271.741 238.084 270.967 238.084C269.791 238.084 268.867 237.832 268.195 237.328C267.523 236.824 267.187 236.138 267.187 235.27C267.187 234.682 267.345 234.187 267.663 233.786C267.989 233.375 268.461 233.067 269.077 232.862C268.573 232.666 268.19 232.386 267.929 232.022C267.667 231.649 267.537 231.21 267.537 230.706C267.537 229.913 267.845 229.283 268.461 228.816C269.086 228.349 269.921 228.116 270.967 228.116C271.657 228.116 272.259 228.223 272.773 228.438C273.295 228.643 273.701 228.942 273.991 229.334C274.28 229.726 274.425 230.183 274.425 230.706C274.425 231.21 274.289 231.649 274.019 232.022C273.748 232.386 273.361 232.666 272.857 232.862ZM268.545 230.734C268.545 231.275 268.759 231.705 269.189 232.022C269.618 232.339 270.211 232.498 270.967 232.498C271.723 232.498 272.315 232.339 272.745 232.022C273.183 231.705 273.403 231.28 273.403 230.748C273.403 230.197 273.179 229.763 272.731 229.446C272.292 229.129 271.704 228.97 270.967 228.97C270.22 228.97 269.627 229.129 269.189 229.446C268.759 229.763 268.545 230.193 268.545 230.734ZM270.967 237.23C271.835 237.23 272.511 237.053 272.997 236.698C273.491 236.343 273.739 235.863 273.739 235.256C273.739 234.649 273.491 234.173 272.997 233.828C272.511 233.473 271.835 233.296 270.967 233.296C270.108 233.296 269.431 233.473 268.937 233.828C268.451 234.173 268.209 234.649 268.209 235.256C268.209 235.872 268.451 236.357 268.937 236.712C269.422 237.057 270.099 237.23 270.967 237.23Z" fill="#192A3E"/>
<path d="M50.0359 273.104V274H43.1619V273.286L47.2359 269.296C47.7492 268.792 48.0945 268.358 48.2719 267.994C48.4585 267.621 48.5519 267.247 48.5519 266.874C48.5519 266.295 48.3512 265.847 47.9499 265.53C47.5579 265.203 46.9932 265.04 46.2559 265.04C45.1079 265.04 44.2165 265.404 43.5819 266.132L42.8679 265.516C43.2505 265.068 43.7359 264.723 44.3239 264.48C44.9212 264.237 45.5932 264.116 46.3399 264.116C47.3385 264.116 48.1272 264.354 48.7059 264.83C49.2939 265.297 49.5879 265.941 49.5879 266.762C49.5879 267.266 49.4759 267.751 49.2519 268.218C49.0279 268.685 48.6032 269.221 47.9779 269.828L44.6459 273.104H50.0359ZM54.4929 264.116C55.7902 264.116 56.7842 264.545 57.4749 265.404C58.1656 266.253 58.5109 267.457 58.5109 269.016C58.5109 270.108 58.3242 271.032 57.9509 271.788C57.5776 272.544 57.0549 273.118 56.3829 273.51C55.7109 273.893 54.9269 274.084 54.0309 274.084C53.0602 274.084 52.2856 273.907 51.7069 273.552L52.1129 272.74C52.5796 273.048 53.2142 273.202 54.0169 273.202C55.0996 273.202 55.9489 272.861 56.5649 272.18C57.1809 271.489 57.4889 270.491 57.4889 269.184C57.4889 268.941 57.4749 268.675 57.4469 268.386C57.2042 268.918 56.8169 269.333 56.2849 269.632C55.7529 269.921 55.1416 270.066 54.4509 270.066C53.8069 270.066 53.2329 269.945 52.7289 269.702C52.2342 269.459 51.8469 269.119 51.5669 268.68C51.2869 268.232 51.1469 267.714 51.1469 267.126C51.1469 266.529 51.2916 266.001 51.5809 265.544C51.8702 265.087 52.2669 264.737 52.7709 264.494C53.2842 264.242 53.8582 264.116 54.4929 264.116ZM54.6049 269.212C55.0996 269.212 55.5336 269.119 55.9069 268.932C56.2896 268.745 56.5882 268.489 56.8029 268.162C57.0176 267.835 57.1249 267.471 57.1249 267.07C57.1249 266.697 57.0222 266.351 56.8169 266.034C56.6209 265.717 56.3269 265.46 55.9349 265.264C55.5429 265.068 55.0762 264.97 54.5349 264.97C53.8256 264.97 53.2469 265.166 52.7989 265.558C52.3602 265.941 52.1409 266.454 52.1409 267.098C52.1409 267.742 52.3602 268.255 52.7989 268.638C53.2469 269.021 53.8489 269.212 54.6049 269.212Z" fill="#192A3E"/>
<path d="M82.3341 268.4C83.3607 268.456 84.1401 268.736 84.6721 269.24C85.2134 269.735 85.4841 270.383 85.4841 271.186C85.4841 271.746 85.3487 272.245 85.0781 272.684C84.8074 273.113 84.4061 273.454 83.8741 273.706C83.3421 273.958 82.6934 274.084 81.9281 274.084C81.2187 274.084 80.5467 273.972 79.9121 273.748C79.2867 273.515 78.7827 273.207 78.4001 272.824L78.8901 272.026C79.2167 272.362 79.6507 272.637 80.1921 272.852C80.7334 273.057 81.3121 273.16 81.9281 273.16C82.7307 273.16 83.3514 272.987 83.7901 272.642C84.2287 272.287 84.4481 271.802 84.4481 271.186C84.4481 270.579 84.2287 270.103 83.7901 269.758C83.3514 269.413 82.6887 269.24 81.8021 269.24H81.1021V268.498L83.8181 265.096H78.8061V264.2H85.1061V264.914L82.3341 268.4ZM90.9504 274.084C90.1944 274.084 89.5177 273.883 88.9204 273.482C88.3324 273.081 87.8704 272.507 87.5344 271.76C87.2077 271.004 87.0444 270.117 87.0444 269.1C87.0444 268.083 87.2077 267.201 87.5344 266.454C87.8704 265.698 88.3324 265.119 88.9204 264.718C89.5177 264.317 90.1944 264.116 90.9504 264.116C91.7064 264.116 92.3784 264.317 92.9664 264.718C93.5637 265.119 94.0304 265.698 94.3664 266.454C94.7024 267.201 94.8704 268.083 94.8704 269.1C94.8704 270.117 94.7024 271.004 94.3664 271.76C94.0304 272.507 93.5637 273.081 92.9664 273.482C92.3784 273.883 91.7064 274.084 90.9504 274.084ZM90.9504 273.16C91.5197 273.16 92.0191 273.001 92.4484 272.684C92.8871 272.367 93.2277 271.905 93.4704 271.298C93.7131 270.691 93.8344 269.959 93.8344 269.1C93.8344 268.241 93.7131 267.509 93.4704 266.902C93.2277 266.295 92.8871 265.833 92.4484 265.516C92.0191 265.199 91.5197 265.04 90.9504 265.04C90.3811 265.04 89.8771 265.199 89.4384 265.516C89.0091 265.833 88.6731 266.295 88.4304 266.902C88.1877 267.509 88.0664 268.241 88.0664 269.1C88.0664 269.959 88.1877 270.691 88.4304 271.298C88.6731 271.905 89.0091 272.367 89.4384 272.684C89.8771 273.001 90.3811 273.16 90.9504 273.16Z" fill="#192A3E"/>
<path d="M120.44 268.4C121.466 268.456 122.246 268.736 122.778 269.24C123.319 269.735 123.59 270.383 123.59 271.186C123.59 271.746 123.454 272.245 123.184 272.684C122.913 273.113 122.512 273.454 121.98 273.706C121.448 273.958 120.799 274.084 120.034 274.084C119.324 274.084 118.652 273.972 118.018 273.748C117.392 273.515 116.888 273.207 116.506 272.824L116.996 272.026C117.322 272.362 117.756 272.637 118.298 272.852C118.839 273.057 119.418 273.16 120.034 273.16C120.836 273.16 121.457 272.987 121.896 272.642C122.334 272.287 122.554 271.802 122.554 271.186C122.554 270.579 122.334 270.103 121.896 269.758C121.457 269.413 120.794 269.24 119.908 269.24H119.208V268.498L121.924 265.096H116.912V264.2H123.212V264.914L120.44 268.4ZM127.866 264.2V274H126.858V265.096H124.548V264.2H127.866Z" fill="#192A3E"/>
<path d="M159.845 264.2V274H158.837V265.096H156.527V264.2H159.845Z" fill="#BDC5CA"/>
<path d="M198.371 273.104V274H191.497V273.286L195.571 269.296C196.085 268.792 196.43 268.358 196.607 267.994C196.794 267.621 196.887 267.247 196.887 266.874C196.887 266.295 196.687 265.847 196.285 265.53C195.893 265.203 195.329 265.04 194.591 265.04C193.443 265.04 192.552 265.404 191.917 266.132L191.203 265.516C191.586 265.068 192.071 264.723 192.659 264.48C193.257 264.237 193.929 264.116 194.675 264.116C195.674 264.116 196.463 264.354 197.041 264.83C197.629 265.297 197.923 265.941 197.923 266.762C197.923 267.266 197.811 267.751 197.587 268.218C197.363 268.685 196.939 269.221 196.313 269.828L192.981 273.104H198.371Z" fill="#BDC5CA"/>
<path fill-rule="evenodd" clip-rule="evenodd" d="M231 281C232.105 281 233 280.105 233 279C233 277.895 232.105 277 231 277C229.895 277 229 277.895 229 279C229 280.105 229.895 281 231 281Z" fill="#002033" fill-opacity="0.26"/>
<path d="M231.039 268.4C232.065 268.456 232.845 268.736 233.377 269.24C233.918 269.735 234.189 270.383 234.189 271.186C234.189 271.746 234.053 272.245 233.783 272.684C233.512 273.113 233.111 273.454 232.579 273.706C232.047 273.958 231.398 274.084 230.633 274.084C229.923 274.084 229.251 273.972 228.617 273.748C227.991 273.515 227.487 273.207 227.105 272.824L227.595 272.026C227.921 272.362 228.355 272.637 228.897 272.852C229.438 273.057 230.017 273.16 230.633 273.16C231.435 273.16 232.056 272.987 232.495 272.642C232.933 272.287 233.153 271.802 233.153 271.186C233.153 270.579 232.933 270.103 232.495 269.758C232.056 269.413 231.393 269.24 230.507 269.24H229.807V268.498L232.523 265.096H227.511V264.2H233.811V264.914L231.039 268.4Z" fill="#BDC5CA"/>
<path d="M271.36 271.424H269.4V274H268.392V271.424H262.862V270.696L268.056 264.2H269.176L264.164 270.528H268.42V268.26H269.4V270.528H271.36V271.424Z" fill="#BDC5CA"/>
<path d="M49.8376 89V96H49.1076V89.64H44.6776V96H43.9476V89H49.8376ZM58.0495 89V96H57.3195V92.77H52.9395V96H52.1995V89H52.9395V92.12H57.3195V89H58.0495Z" fill="#BDC5CA"/>
<path d="M85.6943 92.39C86.1809 92.49 86.5509 92.6867 86.8043 92.98C87.0576 93.2667 87.1843 93.6433 87.1843 94.11C87.1843 94.7167 86.9676 95.1833 86.5343 95.51C86.1076 95.8367 85.4776 96 84.6443 96H81.5443V89H84.4543C85.2009 89 85.7843 89.1533 86.2043 89.46C86.6243 89.7667 86.8343 90.21 86.8343 90.79C86.8343 91.1833 86.7343 91.5167 86.5343 91.79C86.3343 92.0567 86.0543 92.2567 85.6943 92.39ZM82.2743 92.17H84.4143C84.9543 92.17 85.3676 92.06 85.6543 91.84C85.9476 91.62 86.0943 91.3 86.0943 90.88C86.0943 90.46 85.9476 90.14 85.6543 89.92C85.3676 89.7 84.9543 89.59 84.4143 89.59H82.2743V92.17ZM84.6443 95.41C85.8509 95.41 86.4543 94.96 86.4543 94.06C86.4543 93.18 85.8509 92.74 84.6443 92.74H82.2743V95.41H84.6443ZM93.5168 89.64H91.0568V96H90.3268V89.64H87.8668V89H93.5168V89.64Z" fill="#BDC5CA"/>
<path d="M120.111 96.06C119.418 96.06 118.791 95.9067 118.231 95.6C117.678 95.2933 117.241 94.87 116.921 94.33C116.608 93.7833 116.451 93.1733 116.451 92.5C116.451 91.8267 116.608 91.22 116.921 90.68C117.241 90.1333 117.681 89.7067 118.241 89.4C118.801 89.0933 119.428 88.94 120.121 88.94C120.641 88.94 121.121 89.0267 121.561 89.2C122.001 89.3733 122.374 89.6267 122.681 89.96L122.211 90.43C121.664 89.8767 120.974 89.6 120.141 89.6C119.588 89.6 119.084 89.7267 118.631 89.98C118.178 90.2333 117.821 90.58 117.561 91.02C117.308 91.46 117.181 91.9533 117.181 92.5C117.181 93.0467 117.308 93.54 117.561 93.98C117.821 94.42 118.178 94.7667 118.631 95.02C119.084 95.2733 119.588 95.4 120.141 95.4C120.981 95.4 121.671 95.12 122.211 94.56L122.681 95.03C122.374 95.3633 121.998 95.62 121.551 95.8C121.111 95.9733 120.631 96.06 120.111 96.06ZM126.829 89C127.723 89 128.423 89.2133 128.929 89.64C129.436 90.0667 129.689 90.6533 129.689 91.4C129.689 92.1467 129.436 92.7333 128.929 93.16C128.423 93.58 127.723 93.79 126.829 93.79H124.949V96H124.209V89H126.829ZM126.809 93.14C127.503 93.14 128.033 92.99 128.399 92.69C128.766 92.3833 128.949 91.9533 128.949 91.4C128.949 90.8333 128.766 90.4 128.399 90.1C128.033 89.7933 127.503 89.64 126.809 89.64H124.949V93.14H126.809Z" fill="#BDC5CA"/>
<path d="M158.523 89V96H157.803V93.1C157.043 93.4267 156.307 93.59 155.593 93.59C154.773 93.59 154.133 93.39 153.673 92.99C153.22 92.59 152.993 92.03 152.993 91.31V89H153.723V91.23C153.723 91.77 153.893 92.19 154.233 92.49C154.573 92.79 155.05 92.94 155.663 92.94C156.363 92.94 157.077 92.7733 157.803 92.44V89H158.523ZM165.478 89.64H163.018V96H162.288V89.64H159.828V89H165.478V89.64Z" fill="#B3BDC2"/>
<path d="M195.005 89V96H194.275V89.64H189.845V96H189.115V89H195.005ZM201.947 89.64H199.487V96H198.757V89.64H196.297V89H201.947V89.64Z" fill="#BDC5CA"/>
<path d="M228.028 96.06C227.335 96.06 226.708 95.9067 226.148 95.6C225.595 95.2933 225.158 94.87 224.838 94.33C224.525 93.7833 224.368 93.1733 224.368 92.5C224.368 91.8267 224.525 91.22 224.838 90.68C225.158 90.1333 225.598 89.7067 226.158 89.4C226.718 89.0933 227.345 88.94 228.038 88.94C228.558 88.94 229.038 89.0267 229.478 89.2C229.918 89.3733 230.291 89.6267 230.598 89.96L230.128 90.43C229.581 89.8767 228.891 89.6 228.058 89.6C227.505 89.6 227.001 89.7267 226.548 89.98C226.095 90.2333 225.738 90.58 225.478 91.02C225.225 91.46 225.098 91.9533 225.098 92.5C225.098 93.0467 225.225 93.54 225.478 93.98C225.738 94.42 226.095 94.7667 226.548 95.02C227.001 95.2733 227.505 95.4 228.058 95.4C228.898 95.4 229.588 95.12 230.128 94.56L230.598 95.03C230.291 95.3633 229.915 95.62 229.468 95.8C229.028 95.9733 228.548 96.06 228.028 96.06ZM232.126 89H237.246V89.63H232.856V91.92H235.146C235.973 91.92 236.6 92.09 237.026 92.43C237.46 92.77 237.676 93.2633 237.676 93.91C237.676 94.5833 237.443 95.1 236.976 95.46C236.516 95.82 235.853 96 234.986 96H232.126V89ZM234.976 95.41C235.623 95.41 236.11 95.2867 236.436 95.04C236.77 94.7933 236.936 94.4267 236.936 93.94C236.936 93.46 236.773 93.1033 236.446 92.87C236.126 92.63 235.636 92.51 234.976 92.51H232.856V95.41H234.976Z" fill="#BDC5CA"/>
<path d="M265.006 92.39C265.492 92.49 265.862 92.6867 266.116 92.98C266.369 93.2667 266.496 93.6433 266.496 94.11C266.496 94.7167 266.279 95.1833 265.846 95.51C265.419 95.8367 264.789 96 263.956 96H260.856V89H263.766C264.512 89 265.096 89.1533 265.516 89.46C265.936 89.7667 266.146 90.21 266.146 90.79C266.146 91.1833 266.046 91.5167 265.846 91.79C265.646 92.0567 265.366 92.2567 265.006 92.39ZM261.586 92.17H263.726C264.266 92.17 264.679 92.06 264.966 91.84C265.259 91.62 265.406 91.3 265.406 90.88C265.406 90.46 265.259 90.14 264.966 89.92C264.679 89.7 264.266 89.59 263.726 89.59H261.586V92.17ZM263.956 95.41C265.162 95.41 265.766 94.96 265.766 94.06C265.766 93.18 265.162 92.74 263.956 92.74H261.586V95.41H263.956ZM271.406 96.06C270.713 96.06 270.086 95.9067 269.526 95.6C268.973 95.2933 268.536 94.87 268.216 94.33C267.903 93.7833 267.746 93.1733 267.746 92.5C267.746 91.8267 267.903 91.22 268.216 90.68C268.536 90.1333 268.976 89.7067 269.536 89.4C270.096 89.0933 270.723 88.94 271.416 88.94C271.936 88.94 272.416 89.0267 272.856 89.2C273.296 89.3733 273.669 89.6267 273.976 89.96L273.506 90.43C272.959 89.8767 272.269 89.6 271.436 89.6C270.883 89.6 270.379 89.7267 269.926 89.98C269.473 90.2333 269.116 90.58 268.856 91.02C268.603 91.46 268.476 91.9533 268.476 92.5C268.476 93.0467 268.603 93.54 268.856 93.98C269.116 94.42 269.473 94.7667 269.926 95.02C270.379 95.2733 270.883 95.4 271.436 95.4C272.276 95.4 272.966 95.12 273.506 94.56L273.976 95.03C273.669 95.3633 273.293 95.62 272.846 95.8C272.406 95.9733 271.926 96.06 271.406 96.06Z" fill="#BDC5CA"/>
<path d="M123.945 51H121.73V47.1924H121.143C120.596 47.1924 120.149 47.6071 119.803 48.4365L118.736 51H116.187L117.561 48.0742C117.948 47.2493 118.456 46.7367 119.085 46.5361V46.5088C117.64 46.167 116.918 45.3307 116.918 44C116.918 43.1204 117.237 42.4346 117.875 41.9424C118.513 41.4456 119.411 41.1973 120.568 41.1973H123.945V51ZM121.73 45.5381V42.8789H120.808C119.773 42.8789 119.256 43.3096 119.256 44.1709C119.256 44.5811 119.395 44.9115 119.673 45.1621C119.955 45.4128 120.334 45.5381 120.808 45.5381H121.73ZM132.729 51H130.562V48.0742H128.143V51H125.982V44H128.143V46.5908H130.562V44H132.729V51ZM134.555 51V44H138.465C140.133 44 140.967 44.5697 140.967 45.709C140.967 46.1146 140.835 46.4587 140.57 46.7412C140.311 47.0192 139.971 47.2015 139.552 47.2881C140.067 47.3519 140.47 47.5319 140.762 47.8281C141.058 48.1198 141.206 48.4775 141.206 48.9014C141.206 49.5348 140.98 50.043 140.529 50.4258C140.078 50.8086 139.458 51 138.67 51H134.555ZM136.715 45.3193V46.7891H137.774C138.431 46.7891 138.759 46.5316 138.759 46.0166C138.759 45.5518 138.449 45.3193 137.829 45.3193H136.715ZM136.715 48.0605V49.6533H137.959C138.647 49.6533 138.991 49.3753 138.991 48.8193C138.991 48.3135 138.638 48.0605 137.932 48.0605H136.715ZM148.5 51H146.456V49.9951H146.429C145.959 50.779 145.264 51.1709 144.344 51.1709C143.665 51.1709 143.129 50.9795 142.737 50.5967C142.35 50.2093 142.156 49.6943 142.156 49.0518C142.156 47.6937 142.961 46.9098 144.569 46.7002L146.47 46.4473C146.47 45.6816 146.055 45.2988 145.226 45.2988C144.392 45.2988 143.599 45.5472 142.847 46.0439V44.417C143.147 44.262 143.558 44.1253 144.077 44.0068C144.601 43.8883 145.077 43.8291 145.506 43.8291C147.502 43.8291 148.5 44.8249 148.5 46.8164V51ZM146.47 48.1562V47.6846L145.198 47.8486C144.496 47.9398 144.146 48.2565 144.146 48.7988C144.146 49.0449 144.23 49.2477 144.398 49.4072C144.572 49.5622 144.804 49.6396 145.096 49.6396C145.501 49.6396 145.832 49.5007 146.087 49.2227C146.342 48.9401 146.47 48.5846 146.47 48.1562ZM152.396 50.1865H152.369V54.2197H150.209V44H152.369V45.0527H152.396C152.93 44.237 153.679 43.8291 154.646 43.8291C155.552 43.8291 156.252 44.1413 156.744 44.7656C157.241 45.3854 157.489 46.2308 157.489 47.3018C157.489 48.4684 157.2 49.4049 156.621 50.1113C156.047 50.8177 155.281 51.1709 154.324 51.1709C153.481 51.1709 152.839 50.8428 152.396 50.1865ZM152.335 47.3154V47.876C152.335 48.359 152.463 48.7533 152.718 49.0586C152.973 49.3639 153.308 49.5166 153.723 49.5166C154.215 49.5166 154.595 49.3275 154.864 48.9492C155.138 48.5664 155.274 48.0264 155.274 47.3291C155.274 46.0986 154.796 45.4834 153.839 45.4834C153.397 45.4834 153.035 45.652 152.752 45.9893C152.474 46.3219 152.335 46.764 152.335 47.3154ZM158.891 51V44H161.051V46.4473H162.896C163.689 46.4473 164.307 46.641 164.749 47.0283C165.191 47.4111 165.412 47.9512 165.412 48.6484C165.412 49.3639 165.193 49.9359 164.756 50.3643C164.318 50.7881 163.712 51 162.938 51H158.891ZM161.051 47.8076V49.626H162.097C162.826 49.626 163.19 49.3138 163.19 48.6895C163.19 48.1016 162.835 47.8076 162.124 47.8076H161.051ZM172.617 49.209H176.773V51H170.252V50.2617C170.252 49.7604 170.336 49.3115 170.505 48.915C170.674 48.514 170.885 48.1562 171.141 47.8418C171.396 47.5228 171.674 47.2425 171.975 47.001C172.28 46.7549 172.569 46.5339 172.843 46.3379C173.13 46.1328 173.381 45.9368 173.595 45.75C173.813 45.5632 173.996 45.3786 174.142 45.1963C174.292 45.0094 174.404 44.8226 174.477 44.6357C174.549 44.4443 174.586 44.2415 174.586 44.0273C174.586 43.6081 174.467 43.2913 174.23 43.0771C173.993 42.863 173.631 42.7559 173.144 42.7559C172.3 42.7559 171.494 43.0908 170.724 43.7607V41.8604C171.576 41.3089 172.537 41.0332 173.608 41.0332C174.105 41.0332 174.549 41.0993 174.941 41.2314C175.338 41.359 175.673 41.5436 175.946 41.7852C176.22 42.0267 176.427 42.3206 176.568 42.667C176.714 43.0088 176.787 43.3916 176.787 43.8154C176.787 44.2666 176.716 44.6676 176.575 45.0186C176.438 45.3695 176.254 45.6885 176.021 45.9756C175.794 46.2627 175.529 46.527 175.229 46.7686C174.928 47.0055 174.616 47.2357 174.292 47.459C174.073 47.6139 173.861 47.7689 173.656 47.9238C173.456 48.0742 173.278 48.2246 173.123 48.375C172.968 48.5208 172.845 48.6644 172.754 48.8057C172.663 48.9469 172.617 49.0814 172.617 49.209ZM181.709 51.1709C179.376 51.1709 178.209 49.5326 178.209 46.2559C178.209 44.556 178.523 43.2617 179.152 42.373C179.786 41.4798 180.702 41.0332 181.9 41.0332C184.179 41.0332 185.318 42.6989 185.318 46.0303C185.318 47.6891 185.006 48.9606 184.382 49.8447C183.762 50.7288 182.871 51.1709 181.709 51.1709ZM181.805 42.6807C180.87 42.6807 180.403 43.8542 180.403 46.2012C180.403 48.4115 180.861 49.5166 181.777 49.5166C182.671 49.5166 183.117 48.3773 183.117 46.0986C183.117 43.82 182.68 42.6807 181.805 42.6807ZM188.723 49.209H192.879V51H186.357V50.2617C186.357 49.7604 186.442 49.3115 186.61 48.915C186.779 48.514 186.991 48.1562 187.246 47.8418C187.501 47.5228 187.779 47.2425 188.08 47.001C188.385 46.7549 188.675 46.5339 188.948 46.3379C189.235 46.1328 189.486 45.9368 189.7 45.75C189.919 45.5632 190.101 45.3786 190.247 45.1963C190.397 45.0094 190.509 44.8226 190.582 44.6357C190.655 44.4443 190.691 44.2415 190.691 44.0273C190.691 43.6081 190.573 43.2913 190.336 43.0771C190.099 42.863 189.737 42.7559 189.249 42.7559C188.406 42.7559 187.599 43.0908 186.829 43.7607V41.8604C187.681 41.3089 188.643 41.0332 189.714 41.0332C190.211 41.0332 190.655 41.0993 191.047 41.2314C191.443 41.359 191.778 41.5436 192.052 41.7852C192.325 42.0267 192.533 42.3206 192.674 42.667C192.82 43.0088 192.893 43.3916 192.893 43.8154C192.893 44.2666 192.822 44.6676 192.681 45.0186C192.544 45.3695 192.359 45.6885 192.127 45.9756C191.899 46.2627 191.635 46.527 191.334 46.7686C191.033 47.0055 190.721 47.2357 190.397 47.459C190.179 47.6139 189.967 47.7689 189.762 47.9238C189.561 48.0742 189.383 48.2246 189.229 48.375C189.074 48.5208 188.951 48.6644 188.859 48.8057C188.768 48.9469 188.723 49.0814 188.723 49.209ZM197.814 51.1709C195.481 51.1709 194.314 49.5326 194.314 46.2559C194.314 44.556 194.629 43.2617 195.258 42.373C195.891 41.4798 196.807 41.0332 198.006 41.0332C200.285 41.0332 201.424 42.6989 201.424 46.0303C201.424 47.6891 201.112 48.9606 200.487 49.8447C199.868 50.7288 198.977 51.1709 197.814 51.1709ZM197.91 42.6807C196.976 42.6807 196.509 43.8542 196.509 46.2012C196.509 48.4115 196.967 49.5166 197.883 49.5166C198.776 49.5166 199.223 48.3773 199.223 46.0986C199.223 43.82 198.785 42.6807 197.91 42.6807Z" fill="#192A3E"/>
<path d="M271 46L265.5 51.5M271 46L265.5 40.5M271 46H258" stroke="#A7ABC3" stroke-linecap="round" stroke-linejoin="round"/>
<path d="M47 46L52.5 40.5M47 46L52.5 51.5M47 46H60" stroke="#A7ABC3" stroke-linecap="round" stroke-linejoin="round"/>
<path d="M181 311C181 308.791 182.791 307 185 307H283C285.209 307 287 308.791 287 311V343C287 345.209 285.209 347 283 347H185C182.791 347 181 345.209 181 343V311Z" fill="#109CF1"/>
<path d="M209.004 326.904C209.629 327.072 210.105 327.361 210.432 327.772C210.758 328.173 210.922 328.677 210.922 329.284C210.922 330.143 210.604 330.81 209.97 331.286C209.335 331.762 208.416 332 207.212 332H202.564V322.2H206.946C208.047 322.2 208.906 322.419 209.522 322.858C210.138 323.297 210.446 323.917 210.446 324.72C210.446 325.233 210.32 325.677 210.068 326.05C209.825 326.423 209.47 326.708 209.004 326.904ZM204.356 326.386H206.792C207.38 326.386 207.828 326.269 208.136 326.036C208.444 325.803 208.598 325.457 208.598 325C208.598 324.543 208.444 324.197 208.136 323.964C207.828 323.721 207.38 323.6 206.792 323.6H204.356V326.386ZM207.156 330.6C208.444 330.6 209.088 330.115 209.088 329.144C209.088 328.192 208.444 327.716 207.156 327.716H204.356V330.6H207.156ZM216.579 326.988C217.531 326.988 218.259 327.203 218.763 327.632C219.267 328.061 219.519 328.668 219.519 329.452C219.519 330.273 219.239 330.908 218.679 331.356C218.128 331.804 217.344 332.023 216.327 332.014L212.939 332V324.524H214.689V326.974L216.579 326.988ZM220.485 324.524H222.235V332H220.485V324.524ZM216.173 330.726C216.686 330.735 217.078 330.628 217.349 330.404C217.62 330.18 217.755 329.853 217.755 329.424C217.755 329.004 217.624 328.696 217.363 328.5C217.102 328.304 216.705 328.201 216.173 328.192L214.689 328.178V330.712L216.173 330.726ZM228.773 324.888C229.483 324.888 230.108 325.042 230.649 325.35C231.191 325.649 231.611 326.069 231.909 326.61C232.217 327.151 232.371 327.772 232.371 328.472C232.371 329.191 232.203 329.83 231.867 330.39C231.531 330.941 231.06 331.37 230.453 331.678C229.847 331.986 229.156 332.14 228.381 332.14C227.084 332.14 226.081 331.711 225.371 330.852C224.662 329.993 224.307 328.757 224.307 327.142C224.307 325.639 224.629 324.449 225.273 323.572C225.917 322.695 226.902 322.116 228.227 321.836L231.699 321.094L231.951 322.662L228.801 323.306C227.896 323.493 227.219 323.81 226.771 324.258C226.323 324.706 226.062 325.336 225.987 326.148C226.323 325.747 226.729 325.439 227.205 325.224C227.681 325 228.204 324.888 228.773 324.888ZM228.423 330.726C229.067 330.726 229.585 330.521 229.977 330.11C230.379 329.69 230.579 329.158 230.579 328.514C230.579 327.87 230.379 327.352 229.977 326.96C229.585 326.568 229.067 326.372 228.423 326.372C227.77 326.372 227.243 326.568 226.841 326.96C226.44 327.352 226.239 327.87 226.239 328.514C226.239 329.167 226.44 329.699 226.841 330.11C227.252 330.521 227.779 330.726 228.423 330.726ZM238.349 324.44C239.077 324.44 239.726 324.599 240.295 324.916C240.874 325.233 241.327 325.681 241.653 326.26C241.98 326.839 242.143 327.506 242.143 328.262C242.143 329.018 241.98 329.69 241.653 330.278C241.327 330.857 240.874 331.305 240.295 331.622C239.726 331.939 239.077 332.098 238.349 332.098C237.341 332.098 236.543 331.762 235.955 331.09V334.716H234.205V324.524H235.871V325.504C236.161 325.149 236.515 324.883 236.935 324.706C237.365 324.529 237.836 324.44 238.349 324.44ZM238.153 330.6C238.797 330.6 239.325 330.385 239.735 329.956C240.155 329.527 240.365 328.962 240.365 328.262C240.365 327.562 240.155 326.997 239.735 326.568C239.325 326.139 238.797 325.924 238.153 325.924C237.733 325.924 237.355 326.022 237.019 326.218C236.683 326.405 236.417 326.675 236.221 327.03C236.025 327.385 235.927 327.795 235.927 328.262C235.927 328.729 236.025 329.139 236.221 329.494C236.417 329.849 236.683 330.124 237.019 330.32C237.355 330.507 237.733 330.6 238.153 330.6ZM246.715 324.44C247.817 324.44 248.657 324.706 249.235 325.238C249.823 325.761 250.117 326.554 250.117 327.618V332H248.465V331.09C248.251 331.417 247.943 331.669 247.541 331.846C247.149 332.014 246.673 332.098 246.113 332.098C245.553 332.098 245.063 332.005 244.643 331.818C244.223 331.622 243.897 331.356 243.663 331.02C243.439 330.675 243.327 330.287 243.327 329.858C243.327 329.186 243.575 328.649 244.069 328.248C244.573 327.837 245.362 327.632 246.435 327.632H248.367V327.52C248.367 326.997 248.209 326.596 247.891 326.316C247.583 326.036 247.121 325.896 246.505 325.896C246.085 325.896 245.67 325.961 245.259 326.092C244.858 326.223 244.517 326.405 244.237 326.638L243.551 325.364C243.943 325.065 244.415 324.837 244.965 324.678C245.516 324.519 246.099 324.44 246.715 324.44ZM246.477 330.824C246.916 330.824 247.303 330.726 247.639 330.53C247.985 330.325 248.227 330.035 248.367 329.662V328.794H246.561C245.553 328.794 245.049 329.125 245.049 329.788C245.049 330.105 245.175 330.357 245.427 330.544C245.679 330.731 246.029 330.824 246.477 330.824ZM258.345 326.008H255.727V332H253.977V326.008H251.345V324.524H258.345V326.008ZM263.506 326.988C264.458 326.988 265.186 327.203 265.69 327.632C266.204 328.061 266.46 328.668 266.46 329.452C266.46 330.273 266.18 330.908 265.62 331.356C265.06 331.804 264.272 332.023 263.254 332.014L259.754 332V324.524H261.504V326.974L263.506 326.988ZM263.1 330.726C263.614 330.735 264.006 330.628 264.276 330.404C264.547 330.18 264.682 329.853 264.682 329.424C264.682 329.004 264.552 328.696 264.29 328.5C264.029 328.304 263.632 328.201 263.1 328.192L261.504 328.178V330.712L263.1 330.726Z" fill="white"/>
<path d="M31 311C31 308.791 32.7909 307 35 307H153C155.209 307 157 308.791 157 311V343C157 345.209 155.209 347 153 347H35C32.7909 347 31 345.209 31 343V311Z" fill="#EDF2F4"/>
<path d="M55.7497 322.06C56.7017 322.06 57.5557 322.279 58.3117 322.718C59.077 323.147 59.6744 323.745 60.1037 324.51C60.533 325.275 60.7477 326.139 60.7477 327.1C60.7477 328.061 60.533 328.925 60.1037 329.69C59.6744 330.455 59.077 331.057 58.3117 331.496C57.5557 331.925 56.7017 332.14 55.7497 332.14C54.919 332.14 54.163 332 53.4817 331.72C52.8097 331.44 52.2497 331.034 51.8017 330.502L52.9497 329.382C53.6684 330.157 54.569 330.544 55.6517 330.544C56.4917 330.544 57.201 330.287 57.7797 329.774C58.3677 329.261 58.727 328.584 58.8577 327.744H54.4757V326.302H58.8297C58.671 325.509 58.3024 324.869 57.7237 324.384C57.1544 323.899 56.4637 323.656 55.6517 323.656C54.569 323.656 53.6684 324.043 52.9497 324.818L51.8017 323.698C52.2497 323.166 52.8097 322.76 53.4817 322.48C54.163 322.2 54.919 322.06 55.7497 322.06ZM68.5064 326.008H65.8884V332H64.1384V326.008H61.5064V324.524H68.5064V326.008ZM72.7018 324.44C73.8032 324.44 74.6432 324.706 75.2218 325.238C75.8098 325.761 76.1038 326.554 76.1038 327.618V332H74.4518V331.09C74.2372 331.417 73.9292 331.669 73.5278 331.846C73.1358 332.014 72.6598 332.098 72.0998 332.098C71.5398 332.098 71.0498 332.005 70.6298 331.818C70.2098 331.622 69.8832 331.356 69.6498 331.02C69.4258 330.675 69.3138 330.287 69.3138 329.858C69.3138 329.186 69.5612 328.649 70.0558 328.248C70.5598 327.837 71.3485 327.632 72.4218 327.632H74.3538V327.52C74.3538 326.997 74.1952 326.596 73.8778 326.316C73.5698 326.036 73.1078 325.896 72.4918 325.896C72.0718 325.896 71.6565 325.961 71.2458 326.092C70.8445 326.223 70.5038 326.405 70.2238 326.638L69.5378 325.364C69.9298 325.065 70.4012 324.837 70.9518 324.678C71.5025 324.519 72.0858 324.44 72.7018 324.44ZM72.4638 330.824C72.9025 330.824 73.2898 330.726 73.6258 330.53C73.9712 330.325 74.2138 330.035 74.3538 329.662V328.794H72.5478C71.5398 328.794 71.0358 329.125 71.0358 329.788C71.0358 330.105 71.1618 330.357 71.4138 330.544C71.6658 330.731 72.0158 330.824 72.4638 330.824ZM82.4185 324.524H84.1685V327.562H87.9345V324.524H89.6845V332H87.9345V329.046H84.1685V332H82.4185V324.524ZM99.1698 328.304C99.1698 328.425 99.1605 328.598 99.1418 328.822H93.2758C93.3785 329.373 93.6445 329.811 94.0738 330.138C94.5125 330.455 95.0538 330.614 95.6978 330.614C96.5192 330.614 97.1958 330.343 97.7278 329.802L98.6658 330.88C98.3298 331.281 97.9052 331.585 97.3918 331.79C96.8785 331.995 96.2998 332.098 95.6558 332.098C94.8345 332.098 94.1112 331.935 93.4858 331.608C92.8605 331.281 92.3752 330.829 92.0298 330.25C91.6938 329.662 91.5258 328.999 91.5258 328.262C91.5258 327.534 91.6892 326.881 92.0158 326.302C92.3518 325.714 92.8138 325.257 93.4018 324.93C93.9898 324.603 94.6525 324.44 95.3898 324.44C96.1178 324.44 96.7665 324.603 97.3358 324.93C97.9145 325.247 98.3625 325.7 98.6798 326.288C99.0065 326.867 99.1698 327.539 99.1698 328.304ZM95.3898 325.84C94.8298 325.84 94.3538 326.008 93.9618 326.344C93.5792 326.671 93.3458 327.109 93.2618 327.66H97.5038C97.4292 327.119 97.2005 326.68 96.8178 326.344C96.4352 326.008 95.9592 325.84 95.3898 325.84ZM109.108 330.516V333.666H107.47V332H101.702V333.666H100.078V330.516H100.428C100.904 330.497 101.226 330.194 101.394 329.606C101.572 329.009 101.688 328.169 101.744 327.086L101.842 324.524H108.002V330.516H109.108ZM103.34 327.212C103.303 328.071 103.233 328.771 103.13 329.312C103.028 329.853 102.841 330.255 102.57 330.516H106.252V326.008H103.382L103.34 327.212ZM117.811 328.304C117.811 328.425 117.802 328.598 117.783 328.822H111.917C112.02 329.373 112.286 329.811 112.715 330.138C113.154 330.455 113.695 330.614 114.339 330.614C115.16 330.614 115.837 330.343 116.369 329.802L117.307 330.88C116.971 331.281 116.546 331.585 116.033 331.79C115.52 331.995 114.941 332.098 114.297 332.098C113.476 332.098 112.752 331.935 112.127 331.608C111.502 331.281 111.016 330.829 110.671 330.25C110.335 329.662 110.167 328.999 110.167 328.262C110.167 327.534 110.33 326.881 110.657 326.302C110.993 325.714 111.455 325.257 112.043 324.93C112.631 324.603 113.294 324.44 114.031 324.44C114.759 324.44 115.408 324.603 115.977 324.93C116.556 325.247 117.004 325.7 117.321 326.288C117.648 326.867 117.811 327.539 117.811 328.304ZM114.031 325.84C113.471 325.84 112.995 326.008 112.603 326.344C112.22 326.671 111.987 327.109 111.903 327.66H116.145C116.07 327.119 115.842 326.68 115.459 326.344C115.076 326.008 114.6 325.84 114.031 325.84ZM126.546 324.524V332H124.796V326.008H121.996L121.926 327.492C121.879 328.481 121.786 329.312 121.646 329.984C121.515 330.647 121.286 331.174 120.96 331.566C120.642 331.949 120.204 332.14 119.644 332.14C119.382 332.14 119.06 332.089 118.678 331.986L118.762 330.516C118.892 330.544 119.004 330.558 119.098 330.558C119.452 330.558 119.718 330.418 119.896 330.138C120.073 329.849 120.185 329.508 120.232 329.116C120.288 328.715 120.334 328.145 120.372 327.408L120.498 324.524H126.546ZM135.356 324.524V332H133.788V329.746H131.814L130.288 332H128.412L130.176 329.508C129.635 329.321 129.22 329.037 128.93 328.654C128.65 328.262 128.51 327.781 128.51 327.212C128.51 326.353 128.814 325.691 129.42 325.224C130.027 324.757 130.862 324.524 131.926 324.524H135.356ZM131.982 325.994C130.853 325.994 130.288 326.419 130.288 327.268C130.288 328.108 130.834 328.528 131.926 328.528H133.788V325.994H131.982Z" fill="#9BA7B6"/>
</g>
<defs>
<filter id="filter0_d_12_1786" x="0" y="0" width="318" height="386" filterUnits="userSpaceOnUse" color-interpolation-filters="sRGB">
<feFlood flood-opacity="0" result="BackgroundImageFix"/>
<feColorMatrix in="SourceAlpha" type="matrix" values="0 0 0 0 0 0 0 0 0 0 0 0 0 0 0 0 0 0 127 0" result="hardAlpha"/>
<feMorphology radius="9" operator="erode" in="SourceAlpha" result="effect1_dropShadow_12_1786"/>
<feOffset dy="7"/>
<feGaussianBlur stdDeviation="11"/>
<feComposite in2="hardAlpha" operator="out"/>
<feColorMatrix type="matrix" values="0 0 0 0 0.279063 0 0 0 0 0.316597 0 0 0 0 0.391667 0 0 0 0.2 0"/>
<feBlend mode="normal" in2="BackgroundImageFix" result="effect1_dropShadow_12_1786"/>
<feBlend mode="normal" in="SourceGraphic" in2="effect1_dropShadow_12_1786" result="shape"/>
</filter>
</defs>
</svg>
