<svg width="20" height="20" viewBox="0 0 20 20" fill="none" xmlns="http://www.w3.org/2000/svg">
<path d="M10.0154 15.0836C11.3539 15.0836 12.6375 14.548 13.5841 13.5947C14.5305 12.6413 15.0622 11.3483 15.0622 10.0001C15.0622 8.65178 14.5305 7.35889 13.5841 6.40542C12.6376 5.45217 11.3539 4.91656 10.0154 4.91656C8.6768 4.91656 7.39322 5.45214 6.44699 6.40542C5.50046 7.35881 4.96875 8.65178 4.96875 10.0001C4.97014 11.3478 5.50227 12.64 6.44851 13.5933C7.39464 14.5463 8.67744 15.0822 10.0155 15.0836L10.0154 15.0836ZM10.0154 6.66321C10.894 6.66321 11.7366 7.01477 12.3579 7.64046C12.9791 8.26628 13.3281 9.11492 13.3281 9.99996C13.3281 10.885 12.979 11.7336 12.3579 12.3595C11.7366 12.9852 10.894 13.3367 10.0154 13.3367C9.13686 13.3367 8.29419 12.9851 7.67287 12.3595C7.05167 11.7336 6.70266 10.885 6.70266 9.99996C6.70405 9.11546 7.05349 8.26753 7.6744 7.64199C8.29546 7.01656 9.13728 6.6646 10.0154 6.66321Z" fill="#4787F3"/>
<path d="M16.6874 9.12929H19.0633C19.3048 9.11046 19.5432 9.19402 19.721 9.35976C19.8989 9.5255 19.9998 9.75847 19.9998 10.0026C19.9998 10.2466 19.8989 10.4796 19.721 10.6453C19.5432 10.8112 19.3048 10.8946 19.0633 10.8759H16.6874C16.3934 10.8529 16.1311 10.6817 15.9904 10.4209C15.8496 10.16 15.8496 9.84512 15.9904 9.58422C16.1311 9.32348 16.3935 9.15215 16.6874 9.1293V9.12929Z" fill="#4787F3"/>
<path d="M10.0157 0C10.2464 0 10.4675 0.0922142 10.6307 0.256557C10.7937 0.420761 10.8854 0.643557 10.8854 0.875985V3.26898C10.8627 3.56502 10.6926 3.82927 10.4336 3.97113C10.1746 4.11287 9.86203 4.11287 9.60302 3.97113C9.34415 3.82924 9.17406 3.56502 9.15137 3.26898V0.875985C9.15137 0.644539 9.24222 0.42245 9.40427 0.258378C9.56618 0.0943142 9.786 0.00140357 10.0158 7.14285e-06L10.0157 0Z" fill="#4787F3"/>
<path d="M16.6618 2.41922C16.8921 2.41908 17.1125 2.51311 17.2726 2.67982C17.4361 2.84333 17.528 3.06572 17.528 3.29772C17.528 3.52972 17.4361 3.75211 17.2726 3.91561L15.5955 5.60479C15.4373 5.78824 15.2106 5.89734 14.9696 5.90585C14.7285 5.9145 14.4946 5.82172 14.324 5.64985C14.1534 5.47811 14.0614 5.24263 14.0699 4.99974C14.0783 4.75685 14.1866 4.52849 14.3688 4.36917L16.051 2.67985C16.2111 2.51313 16.4316 2.41911 16.6618 2.41925L16.6618 2.41922Z" fill="#4787F3"/>
<path d="M3.31247 9.12929H0.93657C0.695019 9.11046 0.45666 9.19402 0.278808 9.35976C0.100957 9.5255 0 9.75847 0 10.0026C0 10.2466 0.100971 10.4796 0.278808 10.6453C0.456646 10.8112 0.695002 10.8946 0.93657 10.8759H3.31247C3.60637 10.8529 3.86871 10.6817 4.00941 10.4209C4.15027 10.16 4.15027 9.84512 4.00941 9.58422C3.86869 9.32348 3.60637 9.15215 3.31247 9.1293V9.12929Z" fill="#4787F3"/>
<path d="M3.33838 2.41922C3.10805 2.41908 2.88769 2.51311 2.72757 2.67982C2.56413 2.84333 2.47217 3.06572 2.47217 3.29772C2.47217 3.52972 2.56414 3.75211 2.72757 3.91561L4.40472 5.60493V5.6048C4.56288 5.78825 4.7896 5.89735 5.0306 5.90586C5.27174 5.91451 5.50555 5.82173 5.67616 5.64986C5.8468 5.47812 5.93877 5.24264 5.93032 4.99975C5.92187 4.75686 5.81356 4.5285 5.63143 4.36918L3.94918 2.67985C3.78907 2.51314 3.56858 2.41911 3.33836 2.41925L3.33838 2.41922Z" fill="#4787F3"/>
<path d="M10.0158 20C10.2455 20 10.4659 19.9085 10.6289 19.7452C10.7918 19.5822 10.884 19.3607 10.8854 19.1293V16.731C10.8627 16.435 10.6926 16.1707 10.4336 16.0289C10.1746 15.8871 9.86203 15.8871 9.60301 16.0289C9.34415 16.1708 9.17406 16.435 9.15137 16.731V19.1293C9.15137 19.3602 9.24236 19.5817 9.40455 19.745C9.5666 19.9082 9.78652 20 10.0158 20V20Z" fill="#4787F3"/>
<path d="M16.6616 17.5807C16.8907 17.5786 17.1095 17.4856 17.2709 17.3218C17.4321 17.158 17.5228 16.9367 17.5231 16.706C17.5234 16.4752 17.4334 16.2538 17.2724 16.0896L15.5953 14.3952C15.4324 14.2318 15.2119 14.1401 14.982 14.1401C14.752 14.1401 14.5316 14.2318 14.3685 14.3952C14.2051 14.5585 14.1133 14.7811 14.1133 15.0129C14.1133 15.2449 14.2051 15.4673 14.3685 15.6308L16.0508 17.3253C16.2127 17.4886 16.4325 17.5806 16.6616 17.5807V17.5807Z" fill="#4787F3"/>
<path d="M3.36901 17.5807C3.14006 17.5793 2.9208 17.4877 2.75819 17.3253C2.59476 17.1618 2.50293 16.9394 2.50293 16.7074C2.50293 16.4755 2.59476 16.253 2.75819 16.0896L4.44044 14.3952C4.6615 14.1745 4.98254 14.0892 5.28283 14.1717C5.58311 14.254 5.81688 14.4916 5.89627 14.7947C5.97549 15.0977 5.88824 15.4205 5.66719 15.6412L3.98493 17.3252C3.82025 17.4875 3.59948 17.579 3.36901 17.5807L3.36901 17.5807Z" fill="#4787F3"/>
</svg>
