<svg width="24" height="24" viewBox="0 0 20 20" fill="none" xmlns="http://www.w3.org/2000/svg">
<path d="M11.8754 10.625C11.5298 10.625 11.2504 10.905 11.2504 11.2499V13.75C11.2504 14.0944 10.9704 14.375 10.6254 14.375H8.75037V4.99996C8.75037 4.46621 8.41036 3.98933 7.89915 3.81184L7.7141 3.74992H10.6254C10.9704 3.74992 11.2504 4.03053 11.2504 4.375V6.25C11.2504 6.59492 11.5298 6.87496 11.8754 6.87496C12.221 6.87496 12.5004 6.59492 12.5004 6.25V4.375C12.5004 3.34126 11.6591 2.5 10.6254 2.5H3.90665C3.88285 2.5 3.86294 2.51064 3.83982 2.51373C3.80972 2.51122 3.781 2.5 3.75044 2.5C3.06105 2.5 2.5004 3.06053 2.5004 3.74992V14.9999C2.5004 15.5337 2.84041 16.0106 3.35162 16.188L7.11294 17.4419C7.24043 17.4812 7.36723 17.5 7.50044 17.5C8.18983 17.5 8.75037 16.9394 8.75037 16.25V15.625H10.6254C11.6591 15.625 12.5004 14.7837 12.5004 13.75V11.2499C12.5004 10.905 12.221 10.625 11.8754 10.625Z" fill="#A7ABC3"/>
<path d="M17.3173 8.30826L14.8172 5.80829C14.6385 5.62954 14.3697 5.57575 14.136 5.67257C13.9029 5.7695 13.7504 5.99758 13.7504 6.25015V8.12515H11.2504C10.9054 8.12515 10.6253 8.40507 10.6253 8.75011C10.6253 9.09515 10.9054 9.37508 11.2504 9.37508H13.7504V11.2501C13.7504 11.5026 13.9029 11.7307 14.136 11.8277C14.3697 11.9245 14.6385 11.8707 14.8172 11.692L17.3173 9.19197C17.5616 8.94764 17.5616 8.55259 17.3173 8.30826Z" fill="#C2CFE0"/>
</svg>
