<svg width="24" height="24" viewBox="0 0 24 24" fill="none" xmlns="http://www.w3.org/2000/svg">
<path d="M7.69155 12.2679C7.61534 11.9488 7.56489 11.6212 7.56489 11.2793C7.56489 8.91627 9.48785 6.99331 11.8508 6.99331C12.1928 6.99331 12.5214 7.0438 12.8404 7.11997L15.5358 4.4246L15.2738 4.03221C14.9205 3.50169 14.3252 3.18359 13.689 3.18359H10.0126C9.37633 3.18359 8.78107 3.50169 8.42771 4.03221L7.65432 5.19321C7.30095 5.72275 6.70569 6.04089 6.06945 6.04089H5.18369C4.13127 6.04089 3.27881 6.89429 3.27881 7.94577V15.5652C3.27881 15.8872 3.36645 16.1853 3.50739 16.4519L7.69155 12.2679Z" fill="#C2CFE0"/>
<path d="M19.1817 6.16682L21.0009 4.34673L19.6551 3L2.99988 19.6542L4.34758 21L7.87728 17.4703H18.5179C19.5703 17.4703 20.4227 16.6169 20.4227 15.5654V7.94598C20.4227 7.1288 19.9046 6.43635 19.1817 6.16682ZM11.8508 15.5654C11.2432 15.5654 10.6698 15.4311 10.1488 15.1987L11.7051 13.6434C13.1538 13.732 14.3062 12.5757 14.2148 11.1338L15.7711 9.5775C16.0034 10.0994 16.1368 10.6709 16.1368 11.2795C16.1368 13.6434 14.2138 15.5654 11.8508 15.5654Z" fill="#C2CFE0"/>
</svg>
