<svg width="140" height="140" viewBox="0 0 140 140" fill="none" xmlns="http://www.w3.org/2000/svg">
<rect width="140" height="140" rx="4" fill="#F5F7F9"/>
<path d="M22.532 96.6V105H21.332V101.256H16.508V105H15.308V96.6H16.508V100.212H21.332V96.6H22.532ZM30.7078 101.856C30.7078 101.944 30.6998 102.06 30.6838 102.204H25.5238C25.5958 102.764 25.8398 103.216 26.2558 103.56C26.6798 103.896 27.2038 104.064 27.8278 104.064C28.5878 104.064 29.1998 103.808 29.6638 103.296L30.2998 104.04C30.0118 104.376 29.6518 104.632 29.2198 104.808C28.7958 104.984 28.3198 105.072 27.7918 105.072C27.1198 105.072 26.5238 104.936 26.0038 104.664C25.4838 104.384 25.0798 103.996 24.7918 103.5C24.5118 103.004 24.3718 102.444 24.3718 101.82C24.3718 101.204 24.5078 100.648 24.7798 100.152C25.0598 99.656 25.4398 99.272 25.9198 99C26.4078 98.72 26.9558 98.58 27.5638 98.58C28.1718 98.58 28.7118 98.72 29.1838 99C29.6638 99.272 30.0358 99.656 30.2998 100.152C30.5718 100.648 30.7078 101.216 30.7078 101.856ZM27.5638 99.552C27.0118 99.552 26.5478 99.72 26.1718 100.056C25.8038 100.392 25.5878 100.832 25.5238 101.376H29.6038C29.5398 100.84 29.3198 100.404 28.9438 100.068C28.5758 99.724 28.1158 99.552 27.5638 99.552ZM36.9654 99.648H34.6374V105H33.4854V99.648H31.1574V98.64H36.9654V99.648ZM41.366 98.64H42.518V103.272L46.418 98.64H47.462V105H46.31V100.368L42.422 105H41.366V98.64ZM53.0366 101.688C53.4606 101.8 53.7886 101.98 54.0206 102.228C54.2526 102.476 54.3686 102.784 54.3686 103.152C54.3686 103.528 54.2406 103.864 53.9846 104.16C53.7286 104.448 53.3726 104.676 52.9166 104.844C52.4686 105.004 51.9646 105.084 51.4046 105.084C50.9326 105.084 50.4686 105.024 50.0126 104.904C49.5646 104.776 49.1646 104.596 48.8126 104.364L49.1606 103.488C49.4646 103.68 49.8126 103.832 50.2046 103.944C50.5966 104.048 50.9926 104.1 51.3926 104.1C51.9366 104.1 52.3686 104.008 52.6886 103.824C53.0166 103.632 53.1806 103.376 53.1806 103.056C53.1806 102.76 53.0486 102.532 52.7846 102.372C52.5286 102.212 52.1646 102.132 51.6926 102.132H50.5286V101.304H51.6086C52.0406 101.304 52.3806 101.228 52.6286 101.076C52.8766 100.924 53.0006 100.716 53.0006 100.452C53.0006 100.164 52.8526 99.94 52.5566 99.78C52.2686 99.62 51.8766 99.54 51.3806 99.54C50.7486 99.54 50.0806 99.704 49.3766 100.032L49.0646 99.144C49.8406 98.752 50.6526 98.556 51.5006 98.556C52.0126 98.556 52.4726 98.628 52.8806 98.772C53.2886 98.916 53.6086 99.12 53.8406 99.384C54.0726 99.648 54.1886 99.948 54.1886 100.284C54.1886 100.596 54.0846 100.876 53.8766 101.124C53.6686 101.372 53.3886 101.56 53.0366 101.688ZM58.8439 105.072C58.2119 105.072 57.6439 104.932 57.1399 104.652C56.6359 104.372 56.2399 103.988 55.9519 103.5C55.6719 103.004 55.5319 102.444 55.5319 101.82C55.5319 101.196 55.6719 100.64 55.9519 100.152C56.2399 99.656 56.6359 99.272 57.1399 99C57.6439 98.72 58.2119 98.58 58.8439 98.58C59.4759 98.58 60.0399 98.72 60.5359 99C61.0399 99.272 61.4319 99.656 61.7119 100.152C61.9999 100.64 62.1439 101.196 62.1439 101.82C62.1439 102.444 61.9999 103.004 61.7119 103.5C61.4319 103.988 61.0399 104.372 60.5359 104.652C60.0399 104.932 59.4759 105.072 58.8439 105.072ZM58.8439 104.064C59.2519 104.064 59.6159 103.972 59.9359 103.788C60.2639 103.596 60.5199 103.332 60.7039 102.996C60.8879 102.652 60.9799 102.26 60.9799 101.82C60.9799 101.38 60.8879 100.992 60.7039 100.656C60.5199 100.312 60.2639 100.048 59.9359 99.864C59.6159 99.68 59.2519 99.588 58.8439 99.588C58.4359 99.588 58.0679 99.68 57.7399 99.864C57.4199 100.048 57.1639 100.312 56.9719 100.656C56.7879 100.992 56.6959 101.38 56.6959 101.82C56.6959 102.26 56.7879 102.652 56.9719 102.996C57.1639 103.332 57.4199 103.596 57.7399 103.788C58.0679 103.972 58.4359 104.064 58.8439 104.064ZM67.0474 98.856C67.6394 98.856 68.1674 98.988 68.6314 99.252C69.0954 99.516 69.4554 99.884 69.7114 100.356C69.9754 100.82 70.1074 101.352 70.1074 101.952C70.1074 102.568 69.9674 103.116 69.6874 103.596C69.4154 104.068 69.0274 104.436 68.5234 104.7C68.0274 104.964 67.4594 105.096 66.8194 105.096C65.7394 105.096 64.9034 104.728 64.3114 103.992C63.7274 103.248 63.4354 102.204 63.4354 100.86C63.4354 99.556 63.7034 98.536 64.2394 97.8C64.7754 97.056 65.5954 96.564 66.6994 96.324L69.6034 95.676L69.7714 96.732L67.0954 97.308C66.2634 97.492 65.6434 97.804 65.2354 98.244C64.8274 98.684 64.5954 99.316 64.5394 100.14C64.8114 99.732 65.1634 99.416 65.5954 99.192C66.0274 98.968 66.5114 98.856 67.0474 98.856ZM66.8434 104.136C67.2514 104.136 67.6114 104.044 67.9234 103.86C68.2434 103.676 68.4914 103.424 68.6674 103.104C68.8434 102.776 68.9314 102.404 68.9314 101.988C68.9314 101.356 68.7394 100.848 68.3554 100.464C67.9714 100.08 67.4674 99.888 66.8434 99.888C66.2194 99.888 65.7114 100.08 65.3194 100.464C64.9354 100.848 64.7434 101.356 64.7434 101.988C64.7434 102.404 64.8314 102.776 65.0074 103.104C65.1914 103.424 65.4434 103.676 65.7634 103.86C66.0834 104.044 66.4434 104.136 66.8434 104.136ZM75.1247 98.58C75.7407 98.58 76.2927 98.716 76.7807 98.988C77.2687 99.26 77.6487 99.64 77.9207 100.128C78.2007 100.616 78.3407 101.18 78.3407 101.82C78.3407 102.46 78.2007 103.028 77.9207 103.524C77.6487 104.012 77.2687 104.392 76.7807 104.664C76.2927 104.936 75.7407 105.072 75.1247 105.072C74.6687 105.072 74.2487 104.984 73.8647 104.808C73.4887 104.632 73.1687 104.376 72.9047 104.04V107.328H71.7527V98.64H72.8567V99.648C73.1127 99.296 73.4367 99.032 73.8287 98.856C74.2207 98.672 74.6527 98.58 75.1247 98.58ZM75.0287 104.064C75.4367 104.064 75.8007 103.972 76.1207 103.788C76.4487 103.596 76.7047 103.332 76.8887 102.996C77.0807 102.652 77.1767 102.26 77.1767 101.82C77.1767 101.38 77.0807 100.992 76.8887 100.656C76.7047 100.312 76.4487 100.048 76.1207 99.864C75.8007 99.68 75.4367 99.588 75.0287 99.588C74.6287 99.588 74.2647 99.684 73.9367 99.876C73.6167 100.06 73.3607 100.32 73.1687 100.656C72.9847 100.992 72.8927 101.38 72.8927 101.82C72.8927 102.26 72.9847 102.652 73.1687 102.996C73.3527 103.332 73.6087 103.596 73.9367 103.788C74.2647 103.972 74.6287 104.064 75.0287 104.064ZM82.2238 98.58C83.1038 98.58 83.7758 98.796 84.2398 99.228C84.7118 99.66 84.9478 100.304 84.9478 101.16V105H83.8558V104.16C83.6638 104.456 83.3878 104.684 83.0278 104.844C82.6758 104.996 82.2558 105.072 81.7678 105.072C81.0558 105.072 80.4838 104.9 80.0518 104.556C79.6278 104.212 79.4158 103.76 79.4158 103.2C79.4158 102.64 79.6198 102.192 80.0278 101.856C80.4358 101.512 81.0838 101.34 81.9718 101.34H83.7958V101.112C83.7958 100.616 83.6518 100.236 83.3638 99.972C83.0758 99.708 82.6518 99.576 82.0918 99.576C81.7158 99.576 81.3478 99.64 80.9878 99.768C80.6278 99.888 80.3238 100.052 80.0758 100.26L79.5958 99.396C79.9238 99.132 80.3158 98.932 80.7718 98.796C81.2278 98.652 81.7118 98.58 82.2238 98.58ZM81.9598 104.184C82.3998 104.184 82.7798 104.088 83.0998 103.896C83.4198 103.696 83.6518 103.416 83.7958 103.056V102.168H82.0198C81.0438 102.168 80.5558 102.496 80.5558 103.152C80.5558 103.472 80.6798 103.724 80.9278 103.908C81.1758 104.092 81.5198 104.184 81.9598 104.184ZM92.8063 102.312H91.5703V105H90.4183V102.312H89.1823L87.4303 105H86.0623L88.2463 101.712L86.2303 98.64H87.4543L89.1703 101.328H90.4183V98.64H91.5703V101.328H92.8183L94.5343 98.64H95.7703L93.7543 101.724L95.9383 105H94.5703L92.8063 102.312ZM102.743 101.856C102.743 101.944 102.735 102.06 102.719 102.204H97.5589C97.6309 102.764 97.8749 103.216 98.2909 103.56C98.7149 103.896 99.2389 104.064 99.8629 104.064C100.623 104.064 101.235 103.808 101.699 103.296L102.335 104.04C102.047 104.376 101.687 104.632 101.255 104.808C100.831 104.984 100.355 105.072 99.8269 105.072C99.1549 105.072 98.5589 104.936 98.0389 104.664C97.5189 104.384 97.1149 103.996 96.8269 103.5C96.5469 103.004 96.4069 102.444 96.4069 101.82C96.4069 101.204 96.5429 100.648 96.8149 100.152C97.0949 99.656 97.4749 99.272 97.9549 99C98.4429 98.72 98.9909 98.58 99.5989 98.58C100.207 98.58 100.747 98.72 101.219 99C101.699 99.272 102.071 99.656 102.335 100.152C102.607 100.648 102.743 101.216 102.743 101.856ZM99.5989 99.552C99.0469 99.552 98.5829 99.72 98.2069 100.056C97.8389 100.392 97.6229 100.832 97.5589 101.376H101.639C101.575 100.84 101.355 100.404 100.979 100.068C100.611 99.724 100.151 99.552 99.5989 99.552ZM104.53 98.64H105.682V101.34H109.306V98.64H110.458V105H109.306V102.336H105.682V105H104.53V98.64ZM112.698 98.64H113.85V103.272L117.75 98.64H118.794V105H117.642V100.368L113.754 105H112.698V98.64ZM126.13 98.64V105H125.098V102.984H123.25H123.118L121.726 105H120.49L122.038 102.828C121.558 102.684 121.19 102.448 120.934 102.12C120.678 101.784 120.55 101.368 120.55 100.872C120.55 100.144 120.798 99.592 121.294 99.216C121.79 98.832 122.474 98.64 123.346 98.64H126.13ZM121.726 100.908C121.726 101.332 121.858 101.648 122.122 101.856C122.394 102.056 122.798 102.156 123.334 102.156H125.098V99.648H123.382C122.278 99.648 121.726 100.068 121.726 100.908Z" fill="#A7ABC3"/>
<path d="M59.2303 60.6702C59.0398 59.8725 58.9136 59.0535 58.9136 58.1986C58.9136 52.2912 63.721 47.4838 69.6285 47.4838C70.4834 47.4838 71.3048 47.61 72.1024 47.8004L78.8409 41.062L78.186 40.081C77.3026 38.7547 75.8145 37.9595 74.2239 37.9595H65.0328C63.4422 37.9595 61.9541 38.7547 61.0707 40.081L59.1372 42.9835C58.2538 44.3074 56.7656 45.1027 55.175 45.1027H52.9606C50.3296 45.1027 48.1984 47.2362 48.1984 49.8649V68.9136C48.1984 69.7185 48.4175 70.4637 48.7699 71.1304L59.2303 60.6702Z" fill="#A7ABC3"/>
<path d="M87.9558 45.4171L92.5037 40.8668L89.1392 37.5L47.5012 79.1355L50.8705 82.5L59.6947 73.6757H86.2962C88.9272 73.6757 91.0584 71.5423 91.0584 68.9135V49.865C91.0584 47.822 89.763 46.0909 87.9558 45.4171ZM69.6286 68.9135C68.1095 68.9135 66.6761 68.5778 65.3736 67.9969L69.2643 64.1086C72.886 64.33 75.767 61.4394 75.5385 57.8345L79.4292 53.9438C80.0101 55.2486 80.3435 56.6773 80.3435 58.1988C80.3435 64.1086 75.5361 68.9135 69.6286 68.9135Z" fill="#A7ABC3"/>
</svg>
