<svg width="24" height="24" viewBox="0 0 24 24" fill="none" xmlns="http://www.w3.org/2000/svg">
<path d="M15.2001 18.6664C15.2001 20.5074 13.7673 21.9997 12 21.9997C10.2327 21.9997 8.80005 20.5074 8.80005 18.6664C8.80005 16.8255 10.2327 15.333 12 15.333C13.7673 15.333 15.2001 16.8255 15.2001 18.6664Z" fill="#A7ABC3"/>
<path d="M11.9999 5.33327C11.5584 5.33327 11.2 4.96005 11.2 4.49999V2.83328C11.2 2.37338 11.5584 2 11.9999 2C12.4415 2 12.8 2.37338 12.8 2.83328V4.49999C12.8 4.96005 12.4415 5.33327 11.9999 5.33327Z" fill="#A7ABC3"/>
<path d="M19.5031 16.0936C18.2936 15.0285 17.6 13.4727 17.6 11.8236V9.50026C17.6 6.28356 15.0872 3.66699 11.9999 3.66699C8.91278 3.66699 6.39999 6.28356 6.39999 9.50026V11.8236C6.39999 13.4727 5.70639 15.0294 4.48955 16.101C4.17842 16.3777 4 16.7819 4 17.2085C4 18.0128 4.62798 18.667 5.39995 18.667H18.5999C19.372 18.667 20 18.0128 20 17.2085C20 16.7819 19.8216 16.3777 19.5031 16.0936Z" fill="#A7ABC3"/>
<circle cx="17" cy="6" r="4.5" fill="#F7685B" stroke="white"/>
</svg>
