<svg width="20" height="20" viewBox="0 0 20 20" fill="none" xmlns="http://www.w3.org/2000/svg">
<path d="M16.0038 5.90339H12.7732V4.60162C12.7732 3.98178 12.2689 3.47754 11.6491 3.47754H8.35069C7.73086 3.47754 7.22658 3.98178 7.22658 4.60162V5.90339H3.99599C3.17302 5.90339 2.50347 6.57295 2.50347 7.39592C2.50347 8.14347 2.42691 8.81481 2.9934 9.56979C3.31391 9.99694 3.75436 10.3017 4.26711 10.4509L9.24629 11.9006C9.73923 12.0441 10.2604 12.0442 10.7534 11.9006L15.7326 10.4509C16.2453 10.3016 16.6858 9.99694 17.0063 9.56979C17.5753 8.81142 17.4962 8.13317 17.4962 7.39592C17.4963 6.57295 16.8267 5.90339 16.0038 5.90339ZM8.17872 4.60162C8.17872 4.50679 8.25587 4.42967 8.35069 4.42967H11.6491C11.7439 4.42967 11.821 4.50682 11.821 4.60162V5.90339H8.17872V4.60162Z" fill="#109CF1"/>
<path d="M15.9987 11.3652C10.6281 12.9289 10.6976 12.9605 9.99983 12.9605C9.30704 12.9605 9.4714 12.958 4.00095 11.3652C3.42416 11.1973 2.91334 10.8877 2.50345 10.4609V15.0299C2.50345 15.8528 3.17298 16.5224 3.99598 16.5224H16.0037C16.8267 16.5224 17.4962 15.8528 17.4962 15.0299V10.4609C17.0863 10.8877 16.5755 11.1973 15.9987 11.3652Z" fill="#109CF1"/>
</svg>
