<svg width="24" height="24" viewBox="0 0 24 24" fill="none" xmlns="http://www.w3.org/2000/svg">
<path fill-rule="evenodd" clip-rule="evenodd" d="M12 5.87953L8.18608 12.8071C9.67199 14.248 10.0232 15.6439 10.0232 17.436H13.9476C13.9476 15.6439 14.3281 14.248 15.8141 12.8071L12.0002 5.87953H12ZM14.4384 21.957H9.55926V18.1025H14.4384V21.957ZM12 12.44C12.4323 12.44 12.7813 12.0888 12.7813 11.6588C12.7813 11.2265 12.4323 10.8753 12 10.8753C11.5678 10.8753 11.2188 11.2265 11.2188 11.6588C11.2188 12.0888 11.5678 12.44 12 12.44ZM3.746 9.83279H4.47992C4.60145 7.94831 5.41651 6.25301 6.67067 4.99893C6.97456 4.69503 7.30337 4.41579 7.65458 4.16815H4.81541C4.56776 4.64091 4.07244 4.9629 3.50281 4.9629C2.6855 4.9629 2.02136 4.29872 2.02136 3.48145C2.02136 2.66414 2.68554 2 3.50281 2C4.07244 2 4.56777 2.32199 4.81541 2.79475H10.4305V2H13.5691V2.79475H19.1841C19.4318 2.32198 19.9271 2 20.4967 2C21.314 2 21.9782 2.66417 21.9782 3.48145C21.9782 4.29876 21.314 4.9629 20.4967 4.9629C19.9271 4.9629 19.4317 4.6409 19.1841 4.16815H16.3427C16.6939 4.4158 17.025 4.69504 17.3289 4.99893C18.583 6.25304 19.398 7.94835 19.5196 9.83279H20.2535V12.4513H17.635V9.83279H18.2699C18.1484 8.29271 17.4752 6.90816 16.4463 5.87917C15.6628 5.09572 14.6744 4.51925 13.569 4.23568V5.13845H10.4304V4.23568C9.32491 4.51938 8.33433 5.09572 7.55309 5.87917C6.5242 6.90806 5.84876 8.29279 5.72944 9.83279H6.36436V12.4513H3.74583L3.746 9.83279Z" fill="#109CF1"/>
</svg>
