<svg width="40" height="40" viewBox="0 0 40 40" fill="none" xmlns="http://www.w3.org/2000/svg">
<path d="M32.0075 11.8073H25.5464V9.20373C25.5464 7.96405 24.5378 6.95557 23.2981 6.95557H16.7014C15.4617 6.95557 14.4532 7.96405 14.4532 9.20373V11.8073H7.99199C6.34605 11.8073 5.00693 13.1464 5.00693 14.7923C5.00693 16.2874 4.85382 17.6301 5.9868 19.1401C6.62782 19.9944 7.50872 20.6038 8.53423 20.9023L18.4926 23.8018C19.4785 24.0888 20.5208 24.0889 21.5068 23.8018L31.4652 20.9023C32.4907 20.6037 33.3716 19.9944 34.0126 19.1401C35.1507 17.6233 34.9925 16.2668 34.9925 14.7923C34.9925 13.1464 33.6535 11.8073 32.0075 11.8073ZM16.3574 9.20373C16.3574 9.01408 16.5117 8.85983 16.7014 8.85983H23.2981C23.4878 8.85983 23.6421 9.01414 23.6421 9.20373V11.8073H16.3574V9.20373Z" fill="#A7ABC3"/>
<path d="M31.9975 22.7304C21.2562 25.8578 21.3953 25.921 19.9997 25.921C18.6141 25.921 18.9428 25.9159 8.00189 22.7304C6.84832 22.3945 5.82668 21.7754 5.0069 20.9219V30.0597C5.0069 31.7057 6.34595 33.0447 7.99195 33.0447H32.0074C33.6534 33.0447 34.9925 31.7057 34.9925 30.0597V20.9219C34.1726 21.7753 33.151 22.3945 31.9975 22.7304Z" fill="#A7ABC3"/>
</svg>
