<svg width="18" height="18" viewBox="0 0 18 18" fill="none" xmlns="http://www.w3.org/2000/svg">
<path d="M17.3408 2.716L15.2839 0.659004C14.8619 0.237023 14.2897 0 13.6929 0H12.3749V3.9375C12.3749 4.24814 12.123 4.5 11.8124 4.5H2.81238C2.50174 4.5 2.24988 4.24814 2.24988 3.9375V0H1.12488C0.503597 0 -0.00012207 0.503648 -0.00012207 1.125V16.875C-0.00012207 17.4963 0.503597 18 1.12488 18H16.8749C17.4962 18 17.9999 17.4963 17.9999 16.875V4.30699C17.9999 3.71021 17.7629 3.13794 17.3408 2.716ZM15.7499 15.75H2.24988V9H15.7499V15.75Z" fill="#C2CFE0"/>
</svg>
