<svg width="24" height="24" viewBox="0 0 24 24" fill="none" xmlns="http://www.w3.org/2000/svg">
<path d="M20.3414 5.716L18.2845 3.659C17.8625 3.23702 17.2903 3 16.6935 3H15.3755V6.9375C15.3755 7.24814 15.1236 7.5 14.813 7.5H5.81299C5.50235 7.5 5.25049 7.24814 5.25049 6.9375V3H4.12549C3.50421 3 3.00049 3.50365 3.00049 4.125V19.875C3.00049 20.4963 3.50421 21 4.12549 21H19.8755C20.4968 21 21.0005 20.4963 21.0005 19.875V7.30699C21.0005 6.71021 20.7635 6.13794 20.3414 5.716ZM18.7505 18.75H5.25049V12H18.7505V18.75Z" fill="white"/>
<path d="M13.1255 3H10.8755V6.375H13.1255V3Z" fill="white"/>
</svg>
