<svg width="16" height="16" viewBox="0 0 16 16" fill="none" xmlns="http://www.w3.org/2000/svg">
<path d="M14.6769 6.37125L13.5019 6.22187C13.405 5.92375 13.2856 5.63625 13.1462 5.36312L13.8719 4.42875C14.1656 4.05062 14.1313 3.51688 13.7956 3.19187L12.8112 2.2075C12.4831 1.86875 11.9494 1.835 11.5706 2.12812L10.6375 2.85375C10.3644 2.71438 10.0769 2.595 9.77812 2.49813L9.62875 1.325C9.5725 0.854375 9.17313 0.5 8.7 0.5H7.3C6.82688 0.5 6.4275 0.854375 6.37125 1.32313L6.22187 2.49813C5.92312 2.595 5.63563 2.71375 5.3625 2.85375L4.42875 2.12812C4.05125 1.835 3.5175 1.86875 3.19187 2.20438L2.2075 3.18813C1.86875 3.51688 1.83438 4.05063 2.12812 4.42938L2.85375 5.36312C2.71375 5.63625 2.595 5.92375 2.49813 6.22187L1.325 6.37125C0.854375 6.4275 0.5 6.82688 0.5 7.3V8.7C0.5 9.17313 0.854375 9.5725 1.32313 9.62875L2.49813 9.77812C2.595 10.0763 2.71438 10.3637 2.85375 10.6369L2.12812 11.5713C1.83438 11.9494 1.86875 12.4831 2.20438 12.8081L3.18875 13.7925C3.5175 14.1306 4.05063 14.1644 4.42938 13.8712L5.36312 13.1456C5.63625 13.2856 5.92375 13.405 6.22187 13.5013L6.37125 14.6737C6.4275 15.1456 6.82688 15.5 7.3 15.5H8.7C9.17313 15.5 9.5725 15.1456 9.62875 14.6769L9.77812 13.5019C10.0763 13.405 10.3637 13.2856 10.6369 13.1462L11.5713 13.8719C11.9494 14.1656 12.4831 14.1313 12.8081 13.7956L13.7925 12.8112C14.1312 12.4825 14.1656 11.9494 13.8719 11.5706L13.1462 10.6369C13.2862 10.3637 13.4056 10.0763 13.5019 9.77812L14.6744 9.62875C15.145 9.5725 15.4994 9.17313 15.4994 8.7V7.3C15.5 6.82688 15.1456 6.4275 14.6769 6.37125ZM8 11.125C6.27688 11.125 4.875 9.72313 4.875 8C4.875 6.27688 6.27688 4.875 8 4.875C9.72313 4.875 11.125 6.27688 11.125 8C11.125 9.72313 9.72313 11.125 8 11.125Z" fill="#C2CFE0"/>
</svg>
