<svg width="40" height="40" viewBox="0 0 40 40" fill="none" xmlns="http://www.w3.org/2000/svg">
<path d="M33.3538 16.7425L31.0037 16.4437C30.81 15.8475 30.5712 15.2725 30.2925 14.7262L31.7438 12.8575C32.3313 12.1012 32.2625 11.0338 31.5913 10.3837L29.6225 8.415C28.9662 7.7375 27.8987 7.67 27.1412 8.25625L25.275 9.7075C24.7287 9.42875 24.1537 9.19 23.5562 8.99625L23.2575 6.65C23.145 5.70875 22.3463 5 21.4 5H18.6C17.6538 5 16.855 5.70875 16.7425 6.64625L16.4437 8.99625C15.8462 9.19 15.2713 9.4275 14.725 9.7075L12.8575 8.25625C12.1025 7.67 11.035 7.7375 10.3837 8.40875L8.415 10.3763C7.7375 11.0338 7.66875 12.1013 8.25625 12.8588L9.7075 14.7262C9.4275 15.2725 9.19 15.8475 8.99625 16.4437L6.65 16.7425C5.70875 16.855 5 17.6538 5 18.6V21.4C5 22.3463 5.70875 23.145 6.64625 23.2575L8.99625 23.5562C9.19 24.1525 9.42875 24.7275 9.7075 25.2738L8.25625 27.1425C7.66875 27.8988 7.7375 28.9663 8.40875 29.6163L10.3775 31.585C11.035 32.2612 12.1013 32.3287 12.8588 31.7425L14.7262 30.2913C15.2725 30.5712 15.8475 30.81 16.4437 31.0025L16.7425 33.3475C16.855 34.2913 17.6538 35 18.6 35H21.4C22.3463 35 23.145 34.2913 23.2575 33.3538L23.5562 31.0037C24.1525 30.81 24.7275 30.5712 25.2738 30.2925L27.1425 31.7438C27.8988 32.3313 28.9663 32.2625 29.6163 31.5913L31.585 29.6225C32.2625 28.965 32.3313 27.8987 31.7438 27.1412L30.2925 25.2738C30.5725 24.7275 30.8112 24.1525 31.0037 23.5562L33.3488 23.2575C34.29 23.145 34.9988 22.3463 34.9988 21.4V18.6C35 17.6538 34.2913 16.855 33.3538 16.7425ZM20 26.25C16.5538 26.25 13.75 23.4463 13.75 20C13.75 16.5538 16.5538 13.75 20 13.75C23.4463 13.75 26.25 16.5538 26.25 20C26.25 23.4463 23.4463 26.25 20 26.25Z" fill="#A7ABC3"/>
</svg>
