<svg width="24" height="24" viewBox="0 0 16 16" fill="none" xmlns="http://www.w3.org/2000/svg">
<path d="M7.99995 6.4541C7.09721 6.4541 6.36359 7.18773 6.36359 8.09046C6.36359 8.9932 7.09721 9.72682 7.99995 9.72682C8.90268 9.72682 9.63631 8.9932 9.63631 8.09046C9.63631 7.18773 8.90266 6.4541 7.99995 6.4541Z" fill="#C2CFE0"/>
<path d="M8 4C5.27272 4 2.94364 5.69635 2 8.09091C2.94364 10.4854 5.27272 12.1818 8 12.1818C10.7273 12.1818 13.0564 10.4854 14 8.09091C13.0564 5.69635 10.73 4 8 4ZM8 10.8182C6.49455 10.8182 5.27272 9.59633 5.27272 8.09088C5.27272 6.58543 6.49455 5.36363 8 5.36363C9.50545 5.36363 10.7273 6.58545 10.7273 8.09091C10.7273 9.59636 9.50545 10.8182 8 10.8182Z" fill="#C2CFE0"/>
</svg>
