<svg width="6" height="7" viewBox="0 0 6 7" fill="none" xmlns="http://www.w3.org/2000/svg">
<path d="M0.735199 5.767C0.939199 5.605 1.0322 5.53 1.0142 5.542C1.6022 5.056 2.0642 4.657 2.4002 4.345C2.7422 4.033 3.0302 3.706 3.2642 3.364C3.4982 3.022 3.6152 2.689 3.6152 2.365C3.6152 2.119 3.5582 1.927 3.4442 1.789C3.3302 1.651 3.1592 1.582 2.9312 1.582C2.7032 1.582 2.5232 1.669 2.3912 1.843C2.2652 2.011 2.2022 2.251 2.2022 2.563H0.717199C0.729199 2.053 0.837199 1.627 1.0412 1.285C1.2512 0.943 1.5242 0.691 1.8602 0.529C2.2022 0.367 2.5802 0.286 2.9942 0.286C3.7082 0.286 4.2452 0.469 4.6052 0.834999C4.9712 1.201 5.1542 1.678 5.1542 2.266C5.1542 2.908 4.9352 3.505 4.4972 4.057C4.0592 4.603 3.5012 5.137 2.8232 5.659H5.2532V6.91H0.735199V5.767Z" fill="white"/>
</svg>
