<svg width="24" height="24" viewBox="0 0 24 24" fill="none" xmlns="http://www.w3.org/2000/svg">
<path d="M6.47549 11.8232L6.29871 12L6.47549 12.1768L12.8935 18.5947C13.3865 19.0877 13.3865 19.8873 12.8935 20.3803C12.4005 20.8732 11.6009 20.8732 11.108 20.3803L3.61972 12.892C3.12662 12.3989 3.12694 11.5995 3.6195 11.1082L3.61972 11.108L11.108 3.61973C11.6009 3.12675 12.4005 3.12675 12.8935 3.61973C13.3865 4.11271 13.3865 4.91229 12.8935 5.40526L6.47549 11.8232ZM15.5084 12.2109L15.3452 12.383L15.5084 12.5551L20.3727 17.6816L20.5526 17.5109L20.3727 17.6816C20.8786 18.2148 20.8784 19.0836 20.3728 19.6159C19.874 20.1409 19.0719 20.1409 18.5731 19.616C18.573 19.6159 18.573 19.6159 18.573 19.6159L12.6281 13.3502L12.4467 13.5222L12.628 13.3502C12.1221 12.817 12.1223 11.9482 12.6279 11.4159L12.6281 11.4158L18.573 5.15012C19.0718 4.62503 19.874 4.62503 20.3728 5.15012C20.8785 5.68247 20.8785 6.55188 20.3728 7.08423L20.3727 7.08434L15.5084 12.2109Z" fill="#109CF1" stroke="white" stroke-width="0.5"/>
</svg>
