<svg width="45" height="46" viewBox="0 0 45 46" fill="none" xmlns="http://www.w3.org/2000/svg">
<path d="M17.9545 1L13.7816 3.08643C12.7893 3.5826 11.695 3.84091 10.5856 3.84091V3.84091C9.09608 3.84091 7.6438 4.30631 6.43175 5.17207L5.69415 5.69892C4.78753 6.3465 4.03187 7.1827 3.4791 8.15006L3.44054 8.21753C2.54092 9.79187 2.24125 11.6385 2.59686 13.4166L2.62126 13.5386C2.98124 15.3384 2.6399 17.2078 1.66708 18.7643V18.7643C0.808129 20.1387 0.43819 21.7627 0.617163 23.3734L0.909002 26M8.29537 15.2045C8.29537 15.2045 9.06434 22.4974 15.6817 23.1591C21.3635 23.7273 21.9317 18.6136 21.9317 18.6136H23.0681M6.02264 29.4091L6.61093 28.8208C7.34742 28.0843 7.92664 27.2059 8.31347 26.2388V26.2388C8.67685 25.3304 8.86355 24.3609 8.86355 23.3825V21.3935C8.86355 21.3487 8.92893 21.3441 8.93526 21.3884L9.80177 27.4539C9.93268 28.3703 10.2358 29.2537 10.695 30.0574L10.7699 30.1884C11.7287 31.8662 11.9502 33.8661 11.3819 35.7131V35.7131C10.5462 38.4292 11.4376 41.3808 13.6369 43.1803L16.2499 45.3182" stroke="#767676"/>
<path d="M27.0453 1L31.2182 3.08643C32.2105 3.5826 33.3047 3.84091 34.4142 3.84091V3.84091C35.9037 3.84091 37.356 4.30631 38.568 5.17207L39.3056 5.69892C40.2122 6.3465 40.9679 7.1827 41.5207 8.15006L41.5592 8.21753C42.4588 9.79187 42.7585 11.6385 42.4029 13.4166L42.3785 13.5386C42.0185 15.3384 42.3599 17.2078 43.3327 18.7643V18.7643C44.1916 20.1387 44.5616 21.7627 44.3826 23.3734L44.0908 26M36.7044 15.2045C36.7044 15.2045 35.9354 22.4974 29.318 23.1591C23.6362 23.7273 23.068 18.6136 23.068 18.6136H21.9317M38.9771 29.4091L38.3888 28.8208C37.6523 28.0843 37.0731 27.2059 36.6863 26.2388V26.2388C36.3229 25.3304 36.1362 24.3609 36.1362 23.3825V21.3935C36.1362 21.3487 36.0708 21.3441 36.0645 21.3884L35.198 27.4539C35.0671 28.3703 34.764 29.2537 34.3047 30.0574L34.2299 30.1884C33.2711 31.8662 33.0496 33.8661 33.6179 35.7131V35.7131C34.4536 38.4292 33.5622 41.3808 31.3629 43.1803L28.7498 45.3182" stroke="#767676"/>
</svg>
