<svg width="36" height="35" viewBox="0 0 36 35" fill="none" xmlns="http://www.w3.org/2000/svg">
<path d="M18 35C27.665 35 35.5 27.165 35.5 17.5C35.5 7.83502 27.665 0 18 0C8.33502 0 0.5 7.83502 0.5 17.5C0.5 26.1253 6.74009 33.2932 14.9521 34.7355V22.8519H10.5V17.9126H14.9521V14.1481C14.9521 9.86617 17.5685 7.5 21.5753 7.5C23.4931 7.5 25.5 7.83374 25.5 7.83374V12.0388H23.2877C21.1096 12.0388 20.4315 13.3571 20.4315 14.7087V17.9126H25.2945L24.5171 22.8519H20.4315V34.7931C19.5875 34.9223 18.7251 34.992 17.8473 34.9993C17.8982 34.9998 17.9491 35 18 35Z" fill="#767676"/>
</svg>
