<svg width="34" height="35" viewBox="0 0 34 35" fill="none" xmlns="http://www.w3.org/2000/svg">
<path fill-rule="evenodd" clip-rule="evenodd" d="M33.5 17.8977C33.5 16.6653 33.3995 15.4768 33.21 14.3394H17.3341V21.0792H26.4272C26.0367 23.2762 24.8559 25.1455 23.0648 26.3972L28.4917 30.7746C31.6692 27.7267 33.5 23.2229 33.5 17.8977Z" fill="#767676"/>
<path fill-rule="evenodd" clip-rule="evenodd" d="M17.3352 35C21.8783 35 25.7034 33.4493 28.4929 30.7757L23.0661 26.3984C21.5556 27.4556 19.6102 28.073 17.3352 28.073C12.9443 28.073 9.21726 24.996 7.88451 20.8495L2.29397 25.3581C5.06466 31.0747 10.758 35 17.3352 35Z" fill="#767676"/>
<path fill-rule="evenodd" clip-rule="evenodd" d="M7.88382 20.8491C7.54249 19.7918 7.35538 18.664 7.35538 17.4998C7.35538 16.3356 7.54249 15.2078 7.88382 14.1505L2.29335 9.64195C1.14767 12.0044 0.5 14.6732 0.5 17.4998C0.5 20.3265 1.14767 22.9955 2.29335 25.3577L7.88382 20.8491Z" fill="#767676"/>
<path fill-rule="evenodd" clip-rule="evenodd" d="M17.3352 6.927C19.816 6.927 22.0396 7.81407 23.7932 9.55197V9.5544L28.5981 4.55965C25.6801 1.73539 21.8759 0 17.3352 0C10.758 0 5.06466 3.9253 2.29397 9.64187L7.88451 14.1505C9.21726 10.004 12.9443 6.927 17.3352 6.927Z" fill="#767676"/>
</svg>
