<svg width="55" height="44" viewBox="0 0 55 44" fill="none" xmlns="http://www.w3.org/2000/svg">
<path d="M10.2688 43.4418C10.2688 43.4418 7.56168 35.8044 8.0616 30.8289C8.47626 26.7021 10.7945 21.9357 12.2433 19.2959C12.9854 17.9437 13.4959 16.469 13.6375 14.933L13.6844 14.4241C13.8868 12.2286 13.2238 10.0409 11.8368 8.32706V8.32706C10.6183 6.82145 9.95353 4.94324 9.95353 3.00635V0.558105" stroke="#767676"/>
<path d="M8.06158 31.775C8.06158 31.775 11.5467 33.7856 17.2059 35.2724M27.9268 36.8201C23.8667 36.7104 20.2266 36.066 17.2059 35.2724M17.2059 35.2724C17.2059 35.2724 15.5696 33.9083 14.9986 32.7209C14.5586 31.8058 14.368 30.1984 14.368 30.1984M27.6547 30.1984H27.4538C26.6702 30.1984 26.0349 29.5631 26.0349 28.7794V28.7794C26.0349 27.9958 26.6702 27.3605 27.4538 27.3605H27.6547M4.90837 20.7387L10.2688 15.6936L4.90837 10.0178V13.171H1.12451V17.5855H4.90837V20.7387Z" stroke="#767676"/>
<path d="M45.0014 43.4418C45.0014 43.4418 47.7086 35.8044 47.2087 30.8289C46.794 26.7021 44.4758 21.9357 43.027 19.2959C42.2848 17.9437 41.7744 16.469 41.6328 14.933L41.5859 14.4241C41.3835 12.2286 42.0465 10.0409 43.4335 8.32706V8.32706C44.6519 6.82145 45.3167 4.94324 45.3167 3.00635V0.558105" stroke="#767676"/>
<path d="M47.2087 31.775C47.2087 31.775 43.7236 33.7856 38.0644 35.2724M27.3434 36.8201C31.4036 36.7104 35.0437 36.066 38.0644 35.2724M38.0644 35.2724C38.0644 35.2724 39.7007 33.9083 40.2716 32.7209C40.7117 31.8058 40.9023 30.1984 40.9023 30.1984M27.6156 30.1984H27.8164C28.6001 30.1984 29.2354 29.5631 29.2354 28.7794V28.7794C29.2354 27.9958 28.6001 27.3605 27.8164 27.3605H27.6156M50.3619 20.7387L45.0014 15.6936L50.3619 10.0178V13.171H54.1458V17.5855H50.3619V20.7387Z" stroke="#767676"/>
</svg>
