<svg width="34" height="34" viewBox="0 0 34 34" fill="none" xmlns="http://www.w3.org/2000/svg">
<g filter="url(#filter0_i_18_442)">
<rect width="34" height="34" rx="17" fill="#26282A"/>
<rect width="34" height="34" rx="17" fill="white"/>
</g>
<rect x="0.5" y="0.5" width="33" height="33" rx="16.5" stroke="url(#paint0_linear_18_442)"/>
<path d="M9 25C9 25 9 17.96 17 17.96M25 25C25 25 25 17.96 17 17.96M17 17.96C14.4227 17.96 12.3333 15.9542 12.3333 13.48C12.3333 11.0058 14.4227 9 17 9C19.5773 9 21.6667 11.0058 21.6667 13.48C21.6667 15.9542 19.5773 17.96 17 17.96Z" stroke="#EA2460" stroke-width="2"/>
<defs>
<filter id="filter0_i_18_442" x="0" y="0" width="38" height="38" filterUnits="userSpaceOnUse" color-interpolation-filters="sRGB">
<feFlood flood-opacity="0" result="BackgroundImageFix"/>
<feBlend mode="normal" in="SourceGraphic" in2="BackgroundImageFix" result="shape"/>
<feColorMatrix in="SourceAlpha" type="matrix" values="0 0 0 0 0 0 0 0 0 0 0 0 0 0 0 0 0 0 127 0" result="hardAlpha"/>
<feOffset dx="4" dy="4"/>
<feGaussianBlur stdDeviation="4"/>
<feComposite in2="hardAlpha" operator="arithmetic" k2="-1" k3="1"/>
<feColorMatrix type="matrix" values="0 0 0 0 0.879167 0 0 0 0 0.879167 0 0 0 0 0.879167 0 0 0 1 0"/>
<feBlend mode="normal" in2="shape" result="effect1_innerShadow_18_442"/>
</filter>
<linearGradient id="paint0_linear_18_442" x1="26.2866" y1="34" x2="15.3404" y2="3.88668" gradientUnits="userSpaceOnUse">
<stop stop-color="white"/>
<stop offset="1" stop-color="white" stop-opacity="0"/>
<stop offset="1" stop-color="white" stop-opacity="0"/>
</linearGradient>
</defs>
</svg>
