<svg width="42" height="42" viewBox="0 0 42 42" fill="none" xmlns="http://www.w3.org/2000/svg">
<path d="M4 1L6.58101 5.87524C10.5186 13.313 9.90747 22.3811 5.05423 29.2565V29.2565C2.4276 32.9776 1 37.4453 1 42V42" stroke="#767676"/>
<path d="M37 1L36.1555 2.37234C34.081 5.74345 32.8287 9.55538 32.5 13.5V13.5M40 42V40.3254C40 36.8558 38.9546 33.4667 37 30.6V30.6M32.5 13.5H30M32.5 13.5H33.5M32.5 24H15V13.5H18.5M32.5 24H41.5V13.5H37.5M32.5 24L37 30.6M18.5 13.5V19M18.5 13.5H22.5M22.5 13.5V19M22.5 13.5H26M26 13.5V19M26 13.5H30M30 13.5V19M33.5 13.5V19M33.5 13.5H37.5M37.5 13.5V19M21 27V29M37 30.6C37 30.6 27.5346 35.4444 21 35.5C14.2785 35.5572 4.5 30.6 4.5 30.6" stroke="#767676"/>
</svg>
