<svg width="24" height="24" viewBox="0 0 24 24" fill="none" xmlns="http://www.w3.org/2000/svg">
<path d="M20.0729 18.7026C20.1713 18.7944 20.2614 18.8785 20.341 18.9529L18.9509 20.343C18.8765 20.2634 18.7924 20.1733 18.7006 20.0749L18.7007 20.0748L18.6932 20.0672C18.3235 19.6875 17.8302 19.1822 17.337 18.677C16.8426 18.1574 16.3291 17.662 15.9394 17.2964C15.7449 17.1051 15.5766 16.9515 15.4558 16.8448C15.4123 16.8064 15.3749 16.774 15.3446 16.748L14.0624 14.0627L16.747 15.3446C16.773 15.3749 16.8054 15.4123 16.8438 15.4558C16.9505 15.5766 17.1041 15.7449 17.2954 15.9394C17.661 16.3291 18.1564 16.8426 18.6761 17.3371C19.1814 17.8305 19.6859 18.323 20.0638 18.6938L20.0636 18.6939L20.0729 18.7026ZM13.8839 13.2736L13.5942 13.6043L13.2737 13.8847C12.1269 14.8883 10.6354 15.5 9 15.5C5.41619 15.5 2.5 12.5829 2.5 9C2.5 5.4171 5.41619 2.5 9 2.5C12.5838 2.5 15.5 5.4171 15.5 9C15.5 10.6354 14.8884 12.1268 13.8839 13.2736ZM3.5 9C3.5 12.0331 5.96686 14.5 9 14.5C12.0331 14.5 14.5 12.0331 14.5 9C14.5 5.96686 12.0331 3.5 9 3.5C5.96686 3.5 3.5 5.96686 3.5 9Z" fill="black" stroke="black"/>
</svg>
