<svg width="24" height="24" viewBox="0 0 24 24" fill="none" xmlns="http://www.w3.org/2000/svg">
<path d="M16.5 6V6.5H17H20C20.8269 6.5 21.5 7.17314 21.5 8V19C21.5 19.8269 20.8269 20.5 20 20.5H4C3.17314 20.5 2.5 19.8269 2.5 19V8C2.5 7.17314 3.17314 6.5 4 6.5H7H7.5V6V4C7.5 3.17314 8.17314 2.5 9 2.5H15C15.8269 2.5 16.5 3.17314 16.5 4V6ZM16.5 8V7.5H16H8H7.5V8V19V19.5H8H16H16.5V19V8ZM15.5 4V3.5H15H9H8.5V4V6V6.5H9H15H15.5V6V4ZM4 7.5H3.5V8V19V19.5H4H6H6.5V19V8V7.5H6H4ZM17.5 19V19.5H18H20.001H20.501L20.501 19L20.5 7.99995L20.5 7.5H20H18H17.5V8V19Z" fill="#3C444C" stroke="#3C444C"/>
</svg>
