<svg width="50" height="50" viewBox="0 0 50 50" fill="none" xmlns="http://www.w3.org/2000/svg">
<path d="M0 10C0 4.47715 4.47715 0 10 0H40C45.5228 0 50 4.47715 50 10V40C50 45.5228 45.5228 50 40 50H10C4.47715 50 0 45.5228 0 40V10Z" fill="#A154F2"/>
<path d="M23.9396 24.6463L21.4652 22.1718L22.1721 21.4649L24.6465 23.9394L25.0001 24.2929L25.3536 23.9394L27.8281 21.4649L28.535 22.1718L26.0605 24.6463L25.7069 24.9998L26.0605 25.3534L28.535 27.8278L27.8281 28.5347L25.3536 26.0603L25.0001 25.7067L24.6465 26.0603L22.1721 28.5347L21.4652 27.8278L23.9396 25.3534L24.2932 24.9998L23.9396 24.6463Z" fill="white" stroke="white"/>
<path d="M25 35C30.514 35 35 30.514 35 25C35 19.486 30.514 15 25 15C19.486 15 15 19.486 15 25C15 30.514 19.486 35 25 35ZM25 17C29.411 17 33 20.589 33 25C33 29.411 29.411 33 25 33C20.589 33 17 29.411 17 25C17 20.589 20.589 17 25 17Z" fill="white"/>
</svg>
