<svg width="24" height="24" viewBox="0 0 24 24" fill="none" xmlns="http://www.w3.org/2000/svg">
<path d="M19.075 14.6393C19.2703 14.8345 19.5869 14.8345 19.7821 14.6393C19.9774 14.444 19.9774 14.1274 19.7821 13.9322L19.075 14.6393ZM15.1429 10L15.4964 9.64645C15.3011 9.45118 14.9846 9.45118 14.7893 9.64645L15.1429 10ZM5.71429 4.5H17.7143V3.5H5.71429V4.5ZM17.7143 4.5C18.3849 4.5 18.9286 5.04365 18.9286 5.71429H19.9286C19.9286 4.49137 18.9372 3.5 17.7143 3.5V4.5ZM18.9286 5.71429V17.7143H19.9286V5.71429H18.9286ZM18.9286 17.7143C18.9286 18.3849 18.3849 18.9286 17.7143 18.9286V19.9286C18.9372 19.9286 19.9286 18.9372 19.9286 17.7143H18.9286ZM17.7143 18.9286H5.71429V19.9286H17.7143V18.9286ZM5.71429 18.9286C5.04365 18.9286 4.5 18.3849 4.5 17.7143H3.5C3.5 18.9372 4.49137 19.9286 5.71429 19.9286V18.9286ZM4.5 17.7143V5.71429H3.5V17.7143H4.5ZM4.5 5.71429C4.5 5.04365 5.04365 4.5 5.71429 4.5V3.5C4.49137 3.5 3.5 4.49137 3.5 5.71429H4.5ZM9.5 8.71428C9.5 9.14822 9.14822 9.5 8.71429 9.5V10.5C9.70051 10.5 10.5 9.70051 10.5 8.71428H9.5ZM8.71429 9.5C8.28035 9.5 7.92857 9.14822 7.92857 8.71428H6.92857C6.92857 9.70051 7.72806 10.5 8.71429 10.5V9.5ZM7.92857 8.71428C7.92857 8.28035 8.28035 7.92857 8.71429 7.92857V6.92857C7.72806 6.92857 6.92857 7.72806 6.92857 8.71428H7.92857ZM8.71429 7.92857C9.14822 7.92857 9.5 8.28035 9.5 8.71428H10.5C10.5 7.72806 9.70051 6.92857 8.71429 6.92857V7.92857ZM19.7821 13.9322L15.4964 9.64645L14.7893 10.3536L19.075 14.6393L19.7821 13.9322ZM14.7893 9.64645L5.36073 19.075L6.06784 19.7821L15.4964 10.3536L14.7893 9.64645Z" fill="white"/>
</svg>
